<svg xmlns="http://www.w3.org/2000/svg" xmlns:xlink="http://www.w3.org/1999/xlink" width="21.44" height="21.426" viewBox="0 0 21.44 21.426">
  <defs>
    <clipPath id="clip-path">
      <rect id="Rectangle_17392" data-name="Rectangle 17392" width="21.44" height="21.426" fill="#1cb5b5"/>
    </clipPath>
  </defs>
  <g id="call" style="isolation: isolate">
    <g id="Group_17160" data-name="Group 17160" transform="translate(0 0)" clip-path="url(#clip-path)">
      <path id="Path_56044" data-name="Path 56044" d="M16.743,16.608c.058.054.11.1.161.151a1.367,1.367,0,0,1,.318,1.368,3.06,3.06,0,0,1-1.06,1.65,6.362,6.362,0,0,1-2.9,1.392,11,11,0,0,1-3.782.166,10.524,10.524,0,0,1-7.93-5.108A10.1,10.1,0,0,1,.075,12,10.67,10.67,0,0,1,4.551,1.949,10.257,10.257,0,0,1,9.915.021a10.541,10.541,0,0,1,9.374,4.252,10.235,10.235,0,0,1,2.132,5.82,10.629,10.629,0,0,1-1.394,5.938,1.787,1.787,0,0,1-.233.325.383.383,0,0,1-.617-.42c.182-.378.38-.748.559-1.127a9.443,9.443,0,0,0,.9-4.379A9.7,9.7,0,0,0,17.82,3.8,9.488,9.488,0,0,0,12.368.932,9.63,9.63,0,0,0,5.361,2.38,9.523,9.523,0,0,0,.89,9.486,9.6,9.6,0,0,0,4.7,18.56a9.538,9.538,0,0,0,5.4,2.026,9.4,9.4,0,0,0,3.993-.516,4.339,4.339,0,0,0,1.778-1.133,4.907,4.907,0,0,0,.484-.717.913.913,0,0,0,.1-.649.571.571,0,0,0-.178-.28c-.035-.033-.147-.02-.2.01a1.062,1.062,0,0,0-.237.195,2.1,2.1,0,0,1-1.882.584,6.288,6.288,0,0,1-2.282-.848,16.421,16.421,0,0,1-3.024-2.293A33.462,33.462,0,0,1,5.451,11.6,11.65,11.65,0,0,1,3.688,8.8a4.505,4.505,0,0,1-.371-1.446A1.945,1.945,0,0,1,3.85,5.731q.628-.612,1.256-1.224a1.364,1.364,0,0,1,1.542-.248,1.023,1.023,0,0,1,.423.29c.569.7,1.138,1.4,1.671,2.125a1.372,1.372,0,0,1,0,1.6c-.076.131-.175.248-.259.374a3.6,3.6,0,0,0-.224.364.47.47,0,0,0,.071.571c.395.419.788.84,1.2,1.247.733.732,1.477,1.452,2.214,2.18a.606.606,0,0,0,.856.073.837.837,0,0,0,.078-.051c.1-.074.2-.147.3-.223a1.59,1.59,0,0,1,1.958-.011c.6.469,1.217.922,1.805,1.408a1.471,1.471,0,0,1,.211,2.135c-.068.087-.137.174-.211.267M12.23,14a1.128,1.128,0,0,1-.985-.34Q10.088,12.54,8.95,11.4c-.417-.416-.822-.844-1.218-1.28a1.077,1.077,0,0,1-.262-.458A1.536,1.536,0,0,1,7.7,8.351c.129-.171.26-.342.371-.524A.863.863,0,0,0,8.178,7.5a.582.582,0,0,0-.132-.451c-.506-.635-1.009-1.273-1.521-1.9A.619.619,0,0,0,5.644,5.1c-.425.414-.839.84-1.264,1.255a.872.872,0,0,0-.248.533,2.715,2.715,0,0,0,.183,1.3,8.965,8.965,0,0,0,1.422,2.459,28.143,28.143,0,0,0,4.775,4.824,10.628,10.628,0,0,0,2.321,1.453,3.477,3.477,0,0,0,1.537.362,1.1,1.1,0,0,0,.8-.308c.348-.359.72-.695,1.06-1.061.426-.458.419-.725-.059-1.122-.6-.5-1.227-.966-1.847-1.441a.537.537,0,0,0-.618-.044,2.821,2.821,0,0,0-.43.293A1.506,1.506,0,0,1,12.23,14" transform="translate(0 -0.001)" fill="#1cb5b5"/>
    </g>
  </g>
</svg>
