<svg id="cart_screen" xmlns="http://www.w3.org/2000/svg" xmlns:xlink="http://www.w3.org/1999/xlink" width="19.871" height="16.284" viewBox="0 0 19.871 16.284">
  <defs>
    <clipPath id="clip-path">
      <rect id="Rectangle_11600" data-name="Rectangle 11600" width="19.871" height="16.284"/>
    </clipPath>
  </defs>
  <g id="Group_10055" data-name="Group 10055" clip-path="url(#clip-path)">
    <path id="Path_52532" data-name="Path 52532" d="M6.563,9.907a1.5,1.5,0,0,0,1.451,1.27H15.55a1.4,1.4,0,0,1,.161,0,.412.412,0,0,1,.033.814.915.915,0,0,1-.173.011c-2.487,0-4.975-.01-7.462.006a2.206,2.206,0,0,1-2.1-1.263A4.041,4.041,0,0,1,5.7,9.97c-.484-1.663-.954-3.331-1.435-5C3.928,3.815,3.583,2.658,3.242,1.5A1.01,1.01,0,0,0,2.3.821c-.612,0-1.225,0-1.837,0A.431.431,0,0,1,.105.677.391.391,0,0,1,.031.26.363.363,0,0,1,.364,0c.893,0,1.787,0,2.679.045A1.067,1.067,0,0,1,4.061.928C4.8,3.608,5.545,6.284,6.287,8.961a.139.139,0,0,0,.161.122c2.992,0,5.984-.007,8.976,0a.829.829,0,0,0,.886-.5c.22-.5.474-.983.7-1.481q.948-2.1,1.878-4.216a2.265,2.265,0,0,0,.146-.623c.022-.175-.043-.233-.222-.237-.29-.007-.579,0-.869,0l-11.795,0a.433.433,0,0,1-.476-.311.41.41,0,0,1,.4-.517c.248-.008.5,0,.745,0l11.708,0a2.741,2.741,0,0,1,.494.026,1.016,1.016,0,0,1,.838,1.229,3.162,3.162,0,0,1-.261.889c-.74,1.644-1.474,3.292-2.217,4.935-.143.316-.314.619-.478.925a1.309,1.309,0,0,1-1.168.7c-.124.007-.248.008-.372.008h-8.8Z" transform="translate(0 0)"/>
    <path id="Path_52533" data-name="Path 52533" d="M51.592,112.726a1.934,1.934,0,1,1,1.934,1.934,1.935,1.935,0,0,1-1.934-1.934m3.069-.006a1.137,1.137,0,1,0-1.117,1.145,1.141,1.141,0,0,0,1.117-1.145" transform="translate(-45.811 -98.376)"/>
    <path id="Path_52534" data-name="Path 52534" d="M125.7,112.726a1.933,1.933,0,1,1-1.934-1.935,1.931,1.931,0,0,1,1.934,1.935m-3.069,0a1.137,1.137,0,1,0,1.142-1.133,1.138,1.138,0,0,0-1.142,1.133" transform="translate(-108.179 -98.377)"/>
  </g>
</svg>
