<svg xmlns="http://www.w3.org/2000/svg" width="7.578" height="7.577" viewBox="0 0 7.578 7.577">
  <path id="close" d="M28.373,17.578a.508.508,0,0,1-.392-.2c-.935-.937-1.874-1.871-2.8-2.812-.111-.112-.164-.113-.276,0-.931.941-1.87,1.875-2.806,2.812a.587.587,0,0,1-.3.19.45.45,0,0,1-.493-.216.474.474,0,0,1,.094-.564q.769-.775,1.544-1.546c.443-.443.881-.889,1.331-1.324.114-.11.093-.163-.008-.263q-1.41-1.4-2.811-2.807a.708.708,0,0,1-.158-.194.466.466,0,0,1,.131-.569.473.473,0,0,1,.609.06c.522.517,1.039,1.037,1.559,1.556.443.443.888.882,1.325,1.33.094.1.142.1.237,0q1.418-1.43,2.845-2.849a.49.49,0,0,1,.648-.1.471.471,0,0,1,.012.725c-.436.44-.876.877-1.315,1.315-.515.515-1.027,1.033-1.548,1.542-.106.1-.089.156.006.25q1.416,1.406,2.825,2.818a.534.534,0,0,1,.194.408A.429.429,0,0,1,28.373,17.578Z" transform="translate(-21.248 -10.003)" fill="#fefefe"/>
</svg>
