<svg xmlns="http://www.w3.org/2000/svg" width="17.761" height="24.391" viewBox="0 0 17.761 24.391">
  <g id="direction" transform="translate(-576.459 -143.251)">
    <path id="Path_33921" data-name="Path 33921" d="M581.89,185.831l-.548,2.051-4.883-4.9,6.668-1.795-.618,2.329c.244.087.478.167.71.254a14,14,0,0,1,5.614,3.746,11.773,11.773,0,0,1,1.9,3.046,13.678,13.678,0,0,1,1.255,5.724c0,1.564-.017,3.127-.025,4.691,0,.059,0,.117,0,.186h-2.43c0-.071-.009-.145-.009-.218,0-1.342.029-2.685,0-4.026a13.739,13.739,0,0,0-.99-5.229,10,10,0,0,0-4.793-5.029C583.151,186.355,582.525,186.113,581.89,185.831Z" transform="translate(0 -33.521)" fill="#e0dddd"/>
    <path id="Path_33922" data-name="Path 33922" d="M671.706,149.269h-2.267l3.471-6.018,3.471,6.012h-2.255v8.175l-.029.008c-.021-.039-.046-.076-.063-.117a14.054,14.054,0,0,0-2.23-3.543.432.432,0,0,1-.093-.259c-.006-1.342,0-2.684,0-4.026Z" transform="translate(-82.16)" fill="#fefefe"/>
  </g>
</svg>
