<svg xmlns="http://www.w3.org/2000/svg" xmlns:xlink="http://www.w3.org/1999/xlink" width="21.188" height="14.375" viewBox="0 0 21.188 14.375">
  <defs>
    <clipPath id="clip-path">
      <rect id="Rectangle_17394" data-name="Rectangle 17394" width="21.187" height="14.375" fill="#1cb5b5"/>
    </clipPath>
  </defs>
  <g id="driver_mail" style="isolation: isolate">
    <g id="Group_17164" data-name="Group 17164" transform="translate(0 0)" clip-path="url(#clip-path)">
      <path id="Path_56046" data-name="Path 56046" d="M10.592.006c3.261,0,6.522,0,9.783,0a.784.784,0,0,1,.811.813q0,6.363,0,12.726a.8.8,0,0,1-.841.836q-9.777-.008-19.554,0a.741.741,0,0,1-.75-.515A1.074,1.074,0,0,1,0,13.523Q0,7.233,0,.943A1.534,1.534,0,0,1,.055.491.7.7,0,0,1,.749.006h9.844m9.2.8L19.774.782H1.407L1.361.844A.445.445,0,0,1,1.484.9q.476.438.946.883l2.543,2.4L7.542,6.6Q8.87,7.857,10.2,9.11a.768.768,0,0,0,.24.157.518.518,0,0,0,.573-.18q.7-.663,1.4-1.322,1-.941,2-1.881c.466-.44.931-.882,1.4-1.321q1.105-1.04,2.212-2.078.731-.688,1.46-1.378l.312-.3M1.508,13.593h18.15a.533.533,0,0,0-.044-.054l-2.44-2.1q-1.926-1.656-3.85-3.314c-.073-.063-.117-.068-.19,0q-.836.8-1.68,1.585a1.246,1.246,0,0,1-1.712.009c-.563-.518-1.119-1.045-1.672-1.575-.089-.085-.14-.083-.227-.007-.489.426-.984.847-1.476,1.271l-3.025,2.6L1.508,13.593M.764,1.287V13.2a1.293,1.293,0,0,0,.12-.079c.2-.167.391-.337.587-.5q1.375-1.184,2.751-2.367Q5.2,9.406,6.186,8.565c.373-.32.745-.643,1.119-.962.07-.059.094-.1,0-.166a1.308,1.308,0,0,1-.148-.142q-1.224-1.152-2.449-2.3c-.531-.5-1.058-1-1.589-1.505Q2,2.424.866,1.366c-.024-.023-.053-.041-.1-.079m19.653,0a.985.985,0,0,0-.088.063L17.829,3.7q-.845.8-1.69,1.592Q15,6.375,13.853,7.455c-.059.056-.05.087,0,.133q1.085.928,2.167,1.858l4.107,3.535c.086.074.175.146.286.237Z" transform="translate(0 -0.001)" fill="#1cb5b5"/>
    </g>
  </g>
</svg>
