<svg xmlns="http://www.w3.org/2000/svg" width="13.893" height="10.603" viewBox="0 0 13.893 10.603">
  <g id="email" transform="translate(-45 -586)">
    <path id="Vector" d="M12.672,0H1.221A1.224,1.224,0,0,0,0,1.223V9.38A1.224,1.224,0,0,0,1.221,10.6H12.672A1.224,1.224,0,0,0,13.893,9.38V1.223A1.224,1.224,0,0,0,12.672,0ZM12.5.816,6.972,6.357,1.394.816ZM.814,9.211V1.388l3.92,3.894Zm.576.577,3.923-3.93L6.687,7.222a.406.406,0,0,0,.574,0L8.6,5.878l3.9,3.909Zm11.689-.577L9.177,5.3l3.9-3.909Z" transform="translate(45 586)" fill="#1cb5b5"/>
  </g>
</svg>
