<svg xmlns="http://www.w3.org/2000/svg" width="16.407" height="10.457" viewBox="0 0 16.407 10.457">
  <g id="eye" transform="translate(-325 -397)">
    <path id="Vector" d="M16.3,4.909C16.156,4.709,12.664,0,8.2,0S.251,4.709.1,4.909a.541.541,0,0,0,0,.638c.146.2,3.639,4.909,8.1,4.909s7.953-4.709,8.1-4.909A.541.541,0,0,0,16.3,4.909ZM8.2,9.375c-3.286,0-6.131-3.125-6.974-4.147C2.071,4.206,4.911,1.082,8.2,1.082s6.131,3.125,6.974,4.147C14.336,6.252,11.5,9.375,8.2,9.375Z" transform="translate(325 397)" fill="#c1c5c7"/>
    <g id="Group" transform="translate(330.378 399.403)">
      <g id="Group-2" data-name="Group" transform="translate(0)">
        <path id="Vector-2" data-name="Vector" d="M2.825,0A2.825,2.825,0,1,0,5.651,2.825,2.829,2.829,0,0,0,2.825,0Zm0,4.88A1.884,1.884,0,1,1,4.709,3,1.886,1.886,0,0,1,2.825,4.88Z" fill="#c1c5c7"/>
      </g>
    </g>
  </g>
</svg>
