<svg xmlns="http://www.w3.org/2000/svg" xmlns:xlink="http://www.w3.org/1999/xlink" width="18.956" height="25.271" viewBox="0 0 18.956 25.271">
  <defs>
    <linearGradient id="linear-gradient" x1="1" x2="0.284" y2="1.07" gradientUnits="objectBoundingBox">
      <stop offset="0" stop-color="#f6c03e"/>
      <stop offset="1" stop-color="#e19807"/>
    </linearGradient>
    <clipPath id="clip-path">
      <rect id="Rectangle_17402" data-name="Rectangle 17402" width="18.956" height="25.271" fill="url(#linear-gradient)"/>
    </clipPath>
  </defs>
  <g id="favorite_color" transform="translate(593.159 -11766.441)">
    <g id="Group_17177" data-name="Group 17177" transform="translate(-593.159 11766.441)">
      <g id="Group_17176" data-name="Group 17176" clip-path="url(#clip-path)">
        <path id="Path_56070" data-name="Path 56070" d="M9.472,18.408,8.121,19.532,1.493,25.055A.9.9,0,0,1,.03,24.514a1.447,1.447,0,0,1-.029-.3Q0,12.634,0,1.055A.99.99,0,0,1,.7.027.922.922,0,0,1,.942,0H18.014a.95.95,0,0,1,.939.94c0,.067,0,.135,0,.2q0,11.492,0,22.985a1.6,1.6,0,0,1-.089.564.875.875,0,0,1-1.413.354L9.575,18.491l-.1-.083" transform="translate(0 0)" fill="url(#linear-gradient)"/>
      </g>
    </g>
    <path id="Path_56071" data-name="Path 56071" d="M49.519,51.4c.449,0,.9,0,1.347,0a.188.188,0,0,0,.221-.158c.277-.886.563-1.769.847-2.653a.585.585,0,0,1,.833-.363.6.6,0,0,1,.3.374c.28.877.566,1.752.839,2.63a.2.2,0,0,0,.236.169c.906-.006,1.812,0,2.718,0a.6.6,0,0,1,.36,1.09c-.749.55-1.5,1.1-2.247,1.65a.159.159,0,0,0-.066.214q.432,1.33.856,2.662a.592.592,0,0,1-.919.68c-.742-.547-1.485-1.091-2.224-1.642a.172.172,0,0,0-.25,0c-.735.549-1.476,1.091-2.214,1.635a.591.591,0,0,1-.932-.662q.428-1.338.86-2.674a.159.159,0,0,0-.066-.214c-.745-.542-1.486-1.09-2.228-1.636a.6.6,0,0,1,.365-1.1h1.359M52.5,49.229c-.023.057-.038.087-.048.119q-.368,1.146-.734,2.293a.6.6,0,0,1-.668.49H48.676c-.041,0-.082,0-.158.007l.128.1,1.941,1.429a.605.605,0,0,1,.246.744q-.333,1.039-.668,2.079c-.038.118-.074.237-.12.382.047-.029.07-.042.091-.057q.971-.714,1.94-1.429a.617.617,0,0,1,.84-.006q.96.709,1.921,1.416c.03.022.062.041.118.079-.023-.077-.036-.125-.051-.172l-.732-2.281a.6.6,0,0,1,.243-.754l1.941-1.429.1-.074-.009-.028H53.923a.594.594,0,0,1-.637-.469q-.366-1.146-.734-2.293c-.013-.039-.028-.077-.051-.14" transform="translate(-636.091 11721.247)" fill="#ffe2a2"/>
  </g>
</svg>
