<svg xmlns="http://www.w3.org/2000/svg" width="18.762" height="16.388" viewBox="0 0 18.762 16.388">
  <path id="like_favorite" d="M252.709,339.837a4.986,4.986,0,0,1,5.7-1.451,5.067,5.067,0,0,1,2.574,7.195,11.407,11.407,0,0,1-1.447,2.119,31.582,31.582,0,0,1-6.83,5.617,29.536,29.536,0,0,1-7.484-6.522,5.561,5.561,0,0,1-.964-5.65,5,5,0,0,1,8.139-1.668C252.5,339.575,252.582,339.691,252.709,339.837Z" transform="translate(-243.352 -337.517)" fill="#f00d0d" stroke="rgba(0,0,0,0)" stroke-width="1"/>
</svg>
