<svg xmlns="http://www.w3.org/2000/svg" xmlns:xlink="http://www.w3.org/1999/xlink" width="44" height="44" viewBox="0 0 44 44">
  <defs>
    <linearGradient id="linear-gradient" x1="1" x2="0.284" y2="1.07" gradientUnits="objectBoundingBox">
      <stop offset="0" stop-color="#f6c63e"/>
      <stop offset="1" stop-color="#e14307"/>
    </linearGradient>
    <clipPath id="clip-path">
      <circle id="Ellipse_16" data-name="Ellipse 16" cx="22" cy="22" r="22" fill="#c6f5f5"/>
    </clipPath>
    <clipPath id="clip-path-2">
      <rect id="Rectangle_17402" data-name="Rectangle 17402" width="8.348" height="11.129" fill="url(#linear-gradient)"/>
    </clipPath>
  </defs>
  <g id="favorutes" transform="translate(-29 -491)">
    <g id="Mask_Group_263" data-name="Mask Group 263" transform="translate(29 491)" clip-path="url(#clip-path)">
      <g id="Group_17350" data-name="Group 17350" transform="translate(7.652 2.606)">
        <g id="Group_17348" data-name="Group 17348" transform="translate(1.124 0)">
          <g id="Group_17334" data-name="Group 17334" transform="translate(0 1.74)">
            <path id="Path_56618" data-name="Path 56618" d="M77.159,62.817a6.342,6.342,0,0,1-1.544,1.105l2.948,8.009,7.037-2.5.106-10.958-2.778-.954.237-6.17c.018-.46-.516-.683-1.156-.8-.285-1.934-2.566-3.2-2.566-1.281,0,2.4.022,4.8.027,7.207C78.7,58.588,77.828,59.276,77.159,62.817Z" transform="translate(-75.615 -48.315)" fill="#de9d80" fill-rule="evenodd"/>
            <path id="Path_56619" data-name="Path 56619" d="M99.821,72.67l4.534-1.7.106-10.958-2.778-.954.237-6.17c.018-.46-.516-.683-1.156-.8a3.042,3.042,0,0,0-.969-1.789V72.373A1.77,1.77,0,0,0,99.821,72.67Z" transform="translate(-94.369 -49.848)" fill="#c88972" fill-rule="evenodd"/>
            <path id="Path_56620" data-name="Path 56620" d="M92.868,112.028a.24.24,0,0,0-.48-.021,11.09,11.09,0,0,1-.312,2.479,1.888,1.888,0,0,1-.705,1.105,3.045,3.045,0,0,1-.948.521.241.241,0,0,0,.081.474,3.451,3.451,0,0,0,1.14-.6,2.336,2.336,0,0,0,.893-1.366A11.518,11.518,0,0,0,92.868,112.028Z" transform="translate(-86.944 -97.536)" fill="#c88972" fill-rule="evenodd"/>
          </g>
          <path id="Path_56621" data-name="Path 56621" d="M159.658,70.9h-6.636a1.808,1.808,0,0,0-1.8,1.8h0a1.808,1.808,0,0,0,1.8,1.8h6.636a1.808,1.808,0,0,0,1.8-1.8h0A1.808,1.808,0,0,0,159.658,70.9Z" transform="translate(-134.252 -64.093)" fill="#de9d80" fill-rule="evenodd"/>
          <path id="Path_56622" data-name="Path 56622" d="M116.256,40.56H103.5a1.642,1.642,0,0,0-1.579,1.689V64.825a1.642,1.642,0,0,0,1.579,1.689h12.753a1.642,1.642,0,0,0,1.579-1.689V42.249A1.642,1.642,0,0,0,116.256,40.56Z" transform="translate(-96.02 -40.56)" fill="#3d3d3c" fill-rule="evenodd"/>
          <path id="Path_56623" data-name="Path 56623" d="M118.886,44.2h-3.714v.1a.793.793,0,0,1-.791.791h-2.437a.794.794,0,0,1-.791-.791v-.1h-4.216a1.147,1.147,0,0,0-1.1,1.18V64.661a1.147,1.147,0,0,0,1.1,1.181h11.95a1.147,1.147,0,0,0,1.1-1.181V45.383A1.147,1.147,0,0,0,118.886,44.2Z" transform="translate(-99.051 -43.385)" fill="#fbeec1" fill-rule="evenodd"/>
          <path id="Path_56624" data-name="Path 56624" d="M158.32,100.277a1.233,1.233,0,0,0,.12-.533V96.672h-1.229a1.808,1.808,0,0,0-1.8,1.8h0a1.808,1.808,0,0,0,1.8,1.8Zm.12-3.618V93.055h-1.229a1.808,1.808,0,0,0-1.8,1.8h0a1.808,1.808,0,0,0,1.8,1.8Zm0-3.618v-3.6h-1.229a1.808,1.808,0,0,0-1.8,1.8h0a1.808,1.808,0,0,0,1.8,1.8Z" transform="translate(-137.501 -78.468)" fill="#f0ca0c" fill-rule="evenodd"/>
          <path id="Path_56625" data-name="Path 56625" d="M121.15,47.662h-2.858a1.769,1.769,0,0,1-.613.631,1.742,1.742,0,0,1-.911.256h-2.437a1.742,1.742,0,0,1-.911-.256,1.771,1.771,0,0,1-.613-.631h-2.981a.11.11,0,0,0-.084.05.288.288,0,0,0-.057.168V67.157h-.241V47.879a.539.539,0,0,1,.108-.315.341.341,0,0,1,.274-.144h3.125l.034.065a1.526,1.526,0,0,0,.56.6,1.5,1.5,0,0,0,.786.221h2.437a1.5,1.5,0,0,0,.786-.221,1.526,1.526,0,0,0,.56-.6l.034-.065h3Z" transform="translate(-101.852 -45.881)" fill="#fff" fill-rule="evenodd"/>
          <path id="Rectangle_17550" data-name="Rectangle 17550" d="M1.139,0h0A1.138,1.138,0,0,1,2.278,1.138v0A1.138,1.138,0,0,1,1.14,2.278h0A1.139,1.139,0,0,1,0,1.139v0A1.139,1.139,0,0,1,1.139,0Z" transform="translate(12.721 22.993)" fill="#323231"/>
          <g id="Group_17335" data-name="Group 17335" transform="translate(18.164 10.427)">
            <path id="Path_56626" data-name="Path 56626" d="M160.815,87.021h-2.458a1.808,1.808,0,0,0-1.8,1.8h0a1.808,1.808,0,0,0,1.8,1.8h2.458a1.808,1.808,0,0,0,1.8-1.8h0A1.808,1.808,0,0,0,160.815,87.021Z" transform="translate(-156.555 -87.021)" fill="#de9d80" fill-rule="evenodd"/>
            <path id="Path_56627" data-name="Path 56627" d="M160.815,103.142h-2.458a1.807,1.807,0,0,0-1.8,1.8h0a1.808,1.808,0,0,0,1.8,1.8h2.458a1.808,1.808,0,0,0,1.8-1.8h0A1.808,1.808,0,0,0,160.815,103.142Z" transform="translate(-156.555 -99.524)" fill="#de9d80" fill-rule="evenodd"/>
            <path id="Path_56628" data-name="Path 56628" d="M160.815,119.262h-2.458a1.808,1.808,0,0,0-1.8,1.8h0a1.808,1.808,0,0,0,1.8,1.8h2.458a1.808,1.808,0,0,0,1.8-1.8h0A1.808,1.808,0,0,0,160.815,119.262Z" transform="translate(-156.555 -112.027)" fill="#de9d80" fill-rule="evenodd"/>
            <path id="Path_56629" data-name="Path 56629" d="M165.666,89.759h-.49v2.376h.49a1.192,1.192,0,0,0,1.188-1.188h0A1.192,1.192,0,0,0,165.666,89.759Z" transform="translate(-163.241 -89.145)" fill="#e6b8a2" fill-rule="evenodd"/>
            <path id="Path_56630" data-name="Path 56630" d="M165.666,105.878h-.49v2.377h.49a1.192,1.192,0,0,0,1.188-1.188h0A1.192,1.192,0,0,0,165.666,105.878Z" transform="translate(-163.241 -101.646)" fill="#e6b8a2" fill-rule="evenodd"/>
            <path id="Path_56631" data-name="Path 56631" d="M165.666,122h-.49v2.376h.49a1.192,1.192,0,0,0,1.188-1.188h0A1.192,1.192,0,0,0,165.666,122Z" transform="translate(-163.241 -114.149)" fill="#e6b8a2" fill-rule="evenodd"/>
          </g>
          <path id="Path_56632" data-name="Path 56632" d="M156.555,88.824a1.808,1.808,0,0,0,1.8,1.8h.815a1.8,1.8,0,0,1,0-3.605h-.815a1.8,1.8,0,0,0-1.8,1.8Z" transform="translate(-138.391 -76.594)" fill="#c88972" fill-rule="evenodd"/>
          <path id="Path_56633" data-name="Path 56633" d="M157.3,103.484a1.8,1.8,0,0,0,1.054,3.262h.815a1.8,1.8,0,0,1-1.3-3.049l.037-.037a1.8,1.8,0,0,1,1.263-.519h-.815A1.789,1.789,0,0,0,157.3,103.484Z" transform="translate(-138.391 -89.097)" fill="#c88972" fill-rule="evenodd"/>
          <path id="Path_56634" data-name="Path 56634" d="M157.3,119.6a1.8,1.8,0,0,0,1.054,3.262h.815a1.8,1.8,0,0,1-1.3-3.049l.037-.037a1.8,1.8,0,0,1,1.263-.519h-.815A1.791,1.791,0,0,0,157.3,119.6Z" transform="translate(-138.391 -101.6)" fill="#c88972" fill-rule="evenodd"/>
          <g id="Group_17352" data-name="Group 17352" transform="translate(12.721 2.976)">
            <g id="Group_17346" data-name="Group 17346" transform="translate(0 0)">
              <g id="Group_17336" data-name="Group 17336" transform="translate(1.119 0.083)">
                <path id="Path_56635" data-name="Path 56635" d="M135.255,69.307a3.514,3.514,0,0,1,.422,1.661c-.056.39-.009.558-.249.384s-.348-.009-.422-.546a8.853,8.853,0,0,1-.109-1.078C134.894,69.466,135.255,69.307,135.255,69.307Z" transform="translate(-134.559 -68.85)" fill="#506422" fill-rule="evenodd"/>
                <path id="Path_56636" data-name="Path 56636" d="M135.994,64.814c-.076-.343-.184-.432-.27-.408s-.07.014-.125-.027-.16-.014-.193.147a.833.833,0,0,0,.094.466c.037.049.008.123.113.141S135.994,64.814,135.994,64.814Z" transform="translate(-135.015 -64.362)" fill="#506422" fill-rule="evenodd"/>
                <path id="Path_56637" data-name="Path 56637" d="M138.7,67.534a.462.462,0,0,1,.188.187.31.31,0,0,1,.2.244,3.253,3.253,0,0,0,.065.377.317.317,0,0,1,.033.246.788.788,0,0,0-.036.164.564.564,0,0,1,.043.395c-.066.185-.147.271-.224.24a.513.513,0,0,1-.291-.362c-.013-.185.086-.267-.049-.372s-.218-.166-.167-.31.112-.214.012-.356,0-.169.056-.262S138.474,67.38,138.7,67.534Z" transform="translate(-137.767 -67.197)" fill="#637d2a" fill-rule="evenodd"/>
                <path id="Path_56638" data-name="Path 56638" d="M131.9,67.289c.125-.1.257-.371.149-.5a.42.42,0,0,1-.138-.447c.059-.229-.083-.2-.088-.365s.051-.2-.067-.323.038-.211-.065-.286-.186-.012-.216.152-.19.055-.211.31.117.223,0,.463.173.271.134.436a.589.589,0,0,0,.112.522C131.65,67.406,131.924,67.555,131.9,67.289Z" transform="translate(-131.243 -65.244)" fill="#637d2a" fill-rule="evenodd"/>
                <path id="Path_56639" data-name="Path 56639" d="M134.321,69.874a6.647,6.647,0,0,0,.3.762,1.17,1.17,0,0,1,.068.987c-.154.345-.4.322-.727.119s-.3-.509-.339-.864a5.255,5.255,0,0,1-.081-.979,1.3,1.3,0,0,1,.066-.3s.071.5.192,1.066a1.364,1.364,0,0,0,.4.822c.067.044.232-.236.146-.847S134.244,69.843,134.321,69.874Z" transform="translate(-133.318 -69.112)" fill="#c0c8a1" fill-rule="evenodd"/>
                <path id="Path_56640" data-name="Path 56640" d="M140.993,93.359c-.118-.013-.085-.16.122-.149C141.269,93.219,141.258,93.388,140.993,93.359Z" transform="translate(-140.031 -90.544)" fill="#8e9f6a" fill-rule="evenodd"/>
                <path id="Path_56641" data-name="Path 56641" d="M134.791,72.608q0,.027.007.057a.019.019,0,0,1,.014.015c.092.379.42,1.079.055,1.445a1.207,1.207,0,0,0-.008-1.17,2.2,2.2,0,0,1,.066.468c0,.346-.059.691-.19.695s-.347-.189-.454-.661c-.027-.12-.052-.252-.074-.382a1.969,1.969,0,0,0,.178.835,1.249,1.249,0,0,0,.23.267.95.95,0,0,1-.243-.257,10,10,0,0,1-.3-1.541,5.139,5.139,0,0,0,.193,1.647c.1.109.3.337.447.27a.347.347,0,0,1,.1-.026.534.534,0,0,1,.084,0c.108,0,.072.046.14-.06a.8.8,0,0,0,.137-.465,4.016,4.016,0,0,0-.33-1.122C134.827,72.577,134.783,72.509,134.791,72.608Z" transform="translate(-133.802 -71.637)" fill="#ecefe9" fill-rule="evenodd"/>
                <path id="Path_56642" data-name="Path 56642" d="M139.219,69.89c-.073-.1-.212-.136-.177-.248s.134-.227.064-.36-.143-.126-.048-.206.106-.111.116-.188.105-.026.167.079.188.092.214.233-.041.192-.006.263.157.2.145.27a.441.441,0,0,1-.043.123.384.384,0,0,0-.08-.2.582.582,0,0,1-.111-.374c-.007-.182-.136-.265-.217-.19s-.016.171-.053.3-.12.167-.052.239.128.182.11.232S139.219,69.89,139.219,69.89Z" transform="translate(-138.295 -68.436)" fill="#69822c" fill-rule="evenodd"/>
                <path id="Path_56643" data-name="Path 56643" d="M135.642,69.013a.358.358,0,0,0,.108-.288c-.014-.066-.091-.133-.134-.2a.261.261,0,0,1-.059-.214c.02-.1.079-.186.032-.284s-.123-.152-.08-.234a.188.188,0,0,0-.055-.24c-.072-.077-.07-.043-.068-.154-.026.109-.045.131.024.213.046.054.066.116.022.167-.081.1.035.135.085.247a.675.675,0,0,1-.012.328c-.024.139.043.159.139.28C135.76,68.774,135.7,68.851,135.642,69.013Z" transform="translate(-134.983 -67.116)" fill="#69822c" fill-rule="evenodd"/>
                <path id="Path_56644" data-name="Path 56644" d="M141.441,93.674c-.087-.01-.063-.119.09-.11C141.645,93.57,141.638,93.7,141.441,93.674Z" transform="translate(-140.453 -90.865)" fill="#aeb994" fill-rule="evenodd"/>
              </g>
              <g id="Group_17339" data-name="Group 17339" transform="translate(1.286)">
                <g id="Group_17337" data-name="Group 17337" transform="translate(1.275)">
                  <path id="Path_56645" data-name="Path 56645" d="M146.93,65a4.662,4.662,0,0,0,.328-1.429c0-.216-.2-.04-.208.166s-.206.177-.146.429,0,.228-.048.408A.749.749,0,0,0,146.93,65Z" transform="translate(-146.845 -63.468)" fill="#637d2a" fill-rule="evenodd"/>
                  <path id="Path_56646" data-name="Path 56646" d="M147.843,65.846a3.357,3.357,0,0,1,.581-1.372c.2-.192.087.134.021.278s.016.093,0,.233-.222.231-.244.293.1.029-.011.186A3.566,3.566,0,0,1,147.843,65.846Z" transform="translate(-147.751 -64.328)" fill="#576e26" fill-rule="evenodd"/>
                  <path id="Path_56647" data-name="Path 56647" d="M148.08,69.438a4.17,4.17,0,0,1,.864-.991c.295-.2-.012.148-.061.2s.039.194-.04.262-.119.025-.166.156S148.08,69.438,148.08,69.438Z" transform="translate(-147.966 -67.931)" fill="#637d2a" fill-rule="evenodd"/>
                  <path id="Path_56648" data-name="Path 56648" d="M147.069,64.308a2.224,2.224,0,0,0,.118-.792.308.308,0,0,0-.137.26c0,.2-.206.177-.146.429s0,.228-.048.408a.37.37,0,0,0-.011.1C146.923,64.684,147,64.5,147.069,64.308Z" transform="translate(-146.845 -63.512)" fill="#7b913f" fill-rule="evenodd"/>
                  <path id="Path_56649" data-name="Path 56649" d="M149.181,64.564a1.9,1.9,0,0,0-.378.716c-.041.116-.083.246-.127.391a.149.149,0,0,0,.022-.021c.051-.057.131-.191.192-.276.1-.134.238-.259.237-.318a.593.593,0,0,1,.038-.335.646.646,0,0,0,.076-.206A.332.332,0,0,0,149.181,64.564Z" transform="translate(-148.508 -64.417)" fill="#7b913f" fill-rule="evenodd"/>
                  <path id="Path_56650" data-name="Path 56650" d="M149.881,69.233c.032,0,.091-.044.186-.109.155-.106.122-.148.181-.232s.152-.052.177-.129a.745.745,0,0,1,.239-.328c.033-.056.023-.077-.11.013a2.684,2.684,0,0,0-.5.491c-.073.088-.142.179-.2.264C149.858,69.223,149.867,69.233,149.881,69.233Z" transform="translate(-149.576 -67.932)" fill="#7b913f" fill-rule="evenodd"/>
                </g>
                <g id="Group_17338" data-name="Group 17338" transform="translate(0 1.365)">
                  <path id="Path_56651" data-name="Path 56651" d="M134.042,78.329a2.946,2.946,0,0,0-.662,1.784c-.051.172-.078.2-.119.175-.057-.032-.068-.141-.124-.06a.725.725,0,0,0-.088.192s.072-.159.129-.109.067.181.378-.084l.005,0a1.054,1.054,0,0,0,.368-.267,2.685,2.685,0,0,0,.76-1.361A.408.408,0,0,0,134.042,78.329Z" transform="translate(-133.049 -78.244)" fill="#d8d6a6" fill-rule="evenodd"/>
                  <path id="Path_56652" data-name="Path 56652" d="M137.463,79.164c.117-.244.365-.674.241-.8a.442.442,0,0,0-.036-.032l-.019-.014-.039-.025-.018-.009a.388.388,0,0,0-.118-.036.4.4,0,0,0-.3.081,3.058,3.058,0,0,0-.671,1.726c.036.012-.09.189.149.09A2.922,2.922,0,0,0,137.463,79.164Z" transform="translate(-136.186 -78.244)" fill="#f6f2d1" fill-rule="evenodd"/>
                  <path id="Path_56653" data-name="Path 56653" d="M139.2,80.128c-.284-.021-.8,1.213-.606,1.2C138.765,81.315,139.556,80.155,139.2,80.128Z" transform="translate(-138.04 -79.954)" fill="#fbfaed" fill-rule="evenodd"/>
                </g>
              </g>
              <g id="Group_17340" data-name="Group 17340" transform="translate(0.529 0.737)">
                <path id="Path_56654" data-name="Path 56654" d="M125.954,73.935v2.42h-.005a.273.273,0,0,1-.269.138.418.418,0,0,0-.274,0,.418.418,0,0,0-.274,0,.273.273,0,0,1-.268-.138h-.006v-2.42c0-.548.273-.5.41-.751V73.05h.277v.133C125.681,73.434,125.954,73.41,125.954,73.935Z" transform="translate(-124.858 -72.901)" fill="#55352a" fill-rule="evenodd"/>
                <rect id="Rectangle_17551" data-name="Rectangle 17551" width="1.096" height="0.658" transform="translate(0 1.051)" fill="#c10016"/>
                <rect id="Rectangle_17552" data-name="Rectangle 17552" width="0.274" height="0.149" transform="translate(0.411)" fill="#c10016"/>
                <path id="Path_56655" data-name="Path 56655" d="M126.015,78.4a.037.037,0,1,1-.074,0V76.011a.631.631,0,0,1,.256-.6c.026-.021.052-.043.076-.067a.037.037,0,1,1,.052.053c-.026.025-.053.048-.081.071a.569.569,0,0,0-.229.539Z" transform="translate(-125.841 -74.978)" fill="#fff" fill-rule="evenodd"/>
                <path id="Path_56656" data-name="Path 56656" d="M131.214,73.952h.137v-.018c0-.524-.273-.5-.41-.751V73.05H130.8v.133c.137.25.41.227.41.751Z" transform="translate(-130.255 -72.901)" fill="#452c22" fill-rule="evenodd"/>
                <rect id="Rectangle_17553" data-name="Rectangle 17553" width="0.137" height="0.658" transform="translate(0.959 1.051)" fill="#911b19"/>
                <path id="Path_56657" data-name="Path 56657" d="M133.355,89.932h-.137v1.745h-.005a.24.24,0,0,1-.2.132.422.422,0,0,0,.068.006.273.273,0,0,0,.268-.138h.005V89.932Z" transform="translate(-132.26 -88.224)" fill="#452c22" fill-rule="evenodd"/>
              </g>
              <g id="Group_17341" data-name="Group 17341" transform="translate(0.22 0.907)">
                <path id="Path_56658" data-name="Path 56658" d="M122.124,73.907c.132.259.043.4-.069.413a.212.212,0,0,1-.144-.073C121.811,74.124,121.825,73.324,122.124,73.907Z" transform="translate(-121.824 -73.658)" fill="#506422" fill-rule="evenodd"/>
                <path id="Path_56659" data-name="Path 56659" d="M121.521,74.38c.036.163.127.13.124.072S121.464,74.122,121.521,74.38Z" transform="translate(-121.51 -74.179)" fill="#637d2a" fill-rule="evenodd"/>
                <path id="Path_56660" data-name="Path 56660" d="M123.306,74.009c-.014.166-.109.145-.113.088S123.329,73.745,123.306,74.009Z" transform="translate(-123.037 -73.843)" fill="#637d2a" fill-rule="evenodd"/>
                <path id="Path_56661" data-name="Path 56661" d="M122.577,73.377c.056.157-.039.178-.067.127S122.488,73.128,122.577,73.377Z" transform="translate(-122.403 -73.284)" fill="#637d2a" fill-rule="evenodd"/>
                <path id="Path_56662" data-name="Path 56662" d="M123.239,77.019a3.338,3.338,0,0,0,.494,1.337c.313.545.428.456.444.351s-.331-.268-.641-1.008S123.334,76.911,123.239,77.019Z" transform="translate(-123.079 -76.634)" fill="#506422" fill-rule="evenodd"/>
                <path id="Path_56663" data-name="Path 56663" d="M124.346,78.656a3.211,3.211,0,0,1-.627-.958c-.286-.683-.217-.776-.279-.7a3.342,3.342,0,0,0,.481,1.256C124.177,78.7,124.3,78.72,124.346,78.656Z" transform="translate(-123.262 -76.634)" fill="#637d2a" fill-rule="evenodd"/>
                <path id="Path_56664" data-name="Path 56664" d="M121.869,78.314c.038.1.158.114.144.054S121.771,78.049,121.869,78.314Z" transform="translate(-121.813 -77.742)" fill="#637d2a" fill-rule="evenodd"/>
                <path id="Path_56665" data-name="Path 56665" d="M124.5,77.55c0,.231-.1.183-.112.122S124.5,77.319,124.5,77.55Z" transform="translate(-124.119 -77.076)" fill="#637d2a" fill-rule="evenodd"/>
                <path id="Path_56666" data-name="Path 56666" d="M121.681,76.226c.067.166.158.114.144.054S121.574,75.964,121.681,76.226Z" transform="translate(-121.64 -75.848)" fill="#637d2a" fill-rule="evenodd"/>
                <path id="Path_56667" data-name="Path 56667" d="M123.788,75.364c.015.178-.089.173-.1.113S123.765,75.082,123.788,75.364Z" transform="translate(-123.482 -75.07)" fill="#637d2a" fill-rule="evenodd"/>
                <path id="Path_56668" data-name="Path 56668" d="M125.3,80.714c0,.179-.1.164-.114.1S125.3,80.431,125.3,80.714Z" transform="translate(-124.849 -79.923)" fill="#506422" fill-rule="evenodd"/>
                <path id="Path_56669" data-name="Path 56669" d="M124.2,83.964c.071.164.16.111.145.051S124.087,83.7,124.2,83.964Z" transform="translate(-123.924 -82.871)" fill="#506422" fill-rule="evenodd"/>
                <path id="Path_56670" data-name="Path 56670" d="M126.731,89.291c.071.164.16.111.145.051S126.619,89.032,126.731,89.291Z" transform="translate(-126.222 -87.707)" fill="#506422" fill-rule="evenodd"/>
                <path id="Path_56671" data-name="Path 56671" d="M127.687,86.142c.054.17-.048.189-.076.134S127.6,85.872,127.687,86.142Z" transform="translate(-127.035 -84.861)" fill="#506422" fill-rule="evenodd"/>
                <path id="Path_56672" data-name="Path 56672" d="M123.34,77.475c.058.144-.011.183-.051.155a.053.053,0,0,1-.016-.017C123.239,77.557,123.235,77.212,123.34,77.475Z" transform="translate(-123.091 -76.999)" fill="#637d2a" fill-rule="evenodd"/>
                <path id="Path_56673" data-name="Path 56673" d="M121.615,74.56c.019.1.063.083.061.046S121.584,74.395,121.615,74.56Z" transform="translate(-121.599 -74.378)" fill="#7b913f" fill-rule="evenodd"/>
                <path id="Path_56674" data-name="Path 56674" d="M121.84,76.607c.051.122.1.084.087.04S121.758,76.414,121.84,76.607Z" transform="translate(-121.788 -76.222)" fill="#7b913f" fill-rule="evenodd"/>
                <path id="Path_56675" data-name="Path 56675" d="M121.972,78.541c.051.122.1.084.087.04S121.891,78.348,121.972,78.541Z" transform="translate(-121.908 -77.977)" fill="#7b913f" fill-rule="evenodd"/>
                <path id="Path_56676" data-name="Path 56676" d="M123.456,77.85c.006.132.064.114.068.068S123.448,77.641,123.456,77.85Z" transform="translate(-123.276 -77.349)" fill="#6d852c" fill-rule="evenodd"/>
                <path id="Path_56677" data-name="Path 56677" d="M124.042,75.685c-.033.128.028.127.045.084S124.095,75.483,124.042,75.685Z" transform="translate(-123.799 -75.391)" fill="#7b913f" fill-rule="evenodd"/>
                <path id="Path_56678" data-name="Path 56678" d="M124.862,77.766c-.033.128.028.127.045.085S124.915,77.563,124.862,77.766Z" transform="translate(-124.544 -77.279)" fill="#7b913f" fill-rule="evenodd"/>
                <path id="Path_56679" data-name="Path 56679" d="M123.638,74.189c-.047.11.008.118.029.082S123.712,74.016,123.638,74.189Z" transform="translate(-123.424 -74.045)" fill="#7b913f" fill-rule="evenodd"/>
                <path id="Path_56680" data-name="Path 56680" d="M122.822,73.5c.025.087-.017.1-.03.071S122.782,73.358,122.822,73.5Z" transform="translate(-122.667 -73.43)" fill="#7b913f" fill-rule="evenodd"/>
                <path id="Path_56681" data-name="Path 56681" d="M122.769,74.916c.071.164-.029.193-.063.14S122.657,74.656,122.769,74.916Z" transform="translate(-122.572 -74.678)" fill="#637d2a" fill-rule="evenodd"/>
                <path id="Path_56682" data-name="Path 56682" d="M122.753,75.27c.006.132.064.114.068.068S122.744,75.061,122.753,75.27Z" transform="translate(-122.637 -75.008)" fill="#7b913f" fill-rule="evenodd"/>
                <path id="Path_56683" data-name="Path 56683" d="M125.684,80.842c-.033.128.028.127.045.085S125.736,80.64,125.684,80.842Z" transform="translate(-125.289 -80.071)" fill="#637d2a" fill-rule="evenodd"/>
                <path id="Path_56684" data-name="Path 56684" d="M124.386,84.336c.07.091.021.111-.007.083S124.276,84.193,124.386,84.336Z" transform="translate(-124.067 -83.268)" fill="#637d2a" fill-rule="evenodd"/>
                <path id="Path_56685" data-name="Path 56685" d="M128.049,86.463c.031.11-.022.111-.038.074S128,86.288,128.049,86.463Z" transform="translate(-127.403 -85.183)" fill="#637d2a" fill-rule="evenodd"/>
                <path id="Path_56686" data-name="Path 56686" d="M127.011,89.722c.075.086.027.109,0,.083S126.892,89.585,127.011,89.722Z" transform="translate(-126.447 -88.159)" fill="#637d2a" fill-rule="evenodd"/>
              </g>
              <g id="Group_17342" data-name="Group 17342" transform="translate(0.723 1.18)">
                <path id="Path_56687" data-name="Path 56687" d="M134.208,76.242a.261.261,0,0,0-.155.141.437.437,0,0,0,.021.424l.029.028-.02-.034a.436.436,0,0,1-.015-.365.242.242,0,0,1,.152-.153.021.021,0,1,0-.012-.041Z" transform="translate(-133.357 -76.241)" fill="#506422" fill-rule="evenodd"/>
                <path id="Path_56688" data-name="Path 56688" d="M127.575,78.175a.263.263,0,0,1,.088.049.291.291,0,0,1,.026.036l-.047.006.031.072-.027,0a.155.155,0,0,1,0,.063.211.211,0,0,1-.022.051s-.051-.08-.064-.11-.011-.011-.011-.011V78.4h-.016l-.032.058-.01.017s-.042-.043-.037-.047a.146.146,0,0,1-.067.055.292.292,0,0,1-.079.026.585.585,0,0,1,.033-.132c.015-.019.022-.018.015-.019l-.029,0,.092-.092s-.081.064-.1.077-.021.017-.021.017l-.017-.022a.168.168,0,0,1-.038.035c-.021.013-.027.012-.027.012l0-.009-.076.019.023-.063h-.01l.019-.023s-.061.017-.078.019-.013-.028-.013-.028-.094-.012-.119-.019h0s0,0,0,0c.019-.015.1-.057.1-.057s-.017-.026,0-.03.08-.008.08-.008l-.028-.015.009,0-.05-.05.079-.008V78.1s0,0,.03,0a.2.2,0,0,1,.051.02l.006-.026s0,0,.027.009.129.037.129.037l-.128-.054.026-.011c.006,0,0,0-.023-.012a.68.68,0,0,1-.091-.11.3.3,0,0,1,.085,0,.171.171,0,0,1,.087.028c-.006,0,.013-.056.013-.056l.016.012.056.043.014-.006.034.071s.007.018.005-.014a1.188,1.188,0,0,1,.008-.122.248.248,0,0,1,.044.04.17.17,0,0,1,.032.057l.023-.013.005.076.046-.01a.242.242,0,0,1-.007.042A.222.222,0,0,1,127.575,78.175Z" transform="translate(-126.953 -77.755)" fill="#7b913f" fill-rule="evenodd"/>
                <path id="Path_56689" data-name="Path 56689" d="M127.589,80.847a.229.229,0,0,1,.074.043.292.292,0,0,1,.026.036l-.047.006.031.072-.027,0a.155.155,0,0,1,0,.063.21.21,0,0,1-.022.051s-.051-.08-.064-.11-.011-.011-.011-.011v.076h-.016l-.032.058-.01.017s-.042-.043-.037-.047a.145.145,0,0,1-.067.055.291.291,0,0,1-.079.026.585.585,0,0,1,.033-.132c.015-.019.022-.018.015-.019l-.029,0,.092-.092s-.081.064-.1.077-.021.017-.021.017l-.017-.022a.168.168,0,0,1-.038.035c-.021.013-.027.012-.027.012l0-.008-.076.019.023-.063h-.01l.019-.023s-.061.017-.078.019-.013-.028-.013-.028-.094-.012-.119-.019h0s0,0,0,0h0l.171-.024.335-.073Z" transform="translate(-126.953 -80.421)" fill="#687e2c" fill-rule="evenodd"/>
                <path id="Path_56690" data-name="Path 56690" d="M128.58,82.358a.28.28,0,0,0-.17.234.167.167,0,0,0-.038.159c.008.056.021.082.017,0a.209.209,0,0,1,.016-.128l.009-.009c.021.092.145.059.119-.011a.076.076,0,0,0-.089-.031.26.26,0,0,1,.147-.186.016.016,0,1,0-.011-.031Zm-.137.242a.053.053,0,0,1,.059.012C128.519,82.638,128.451,82.665,128.443,82.6Z" transform="translate(-128.238 -81.792)" fill="#687e2c" fill-rule="evenodd"/>
                <path id="Path_56691" data-name="Path 56691" d="M133.277,81.4c-.132.057-.246.13-.248.218a1.015,1.015,0,0,0,.057.321c.021.021.41.277.446.305s.065.113.122.021a.316.316,0,0,0,.044-.361C133.613,81.742,133.487,81.41,133.277,81.4Z" transform="translate(-132.468 -80.927)" fill="#4b2747" fill-rule="evenodd"/>
                <path id="Path_56692" data-name="Path 56692" d="M139.528,88.973a.1.1,0,1,0-.1-.1A.1.1,0,0,0,139.528,88.973Z" transform="translate(-138.279 -87.622)" fill="#61345e" fill-rule="evenodd"/>
                <path id="Path_56693" data-name="Path 56693" d="M136.278,85.822a.111.111,0,1,0-.111-.111A.111.111,0,0,0,136.278,85.822Z" transform="translate(-135.316 -84.734)" fill="#61345e" fill-rule="evenodd"/>
                <path id="Path_56694" data-name="Path 56694" d="M138.03,82.761a.111.111,0,1,0-.111-.111A.112.112,0,0,0,138.03,82.761Z" transform="translate(-136.906 -81.956)" fill="#61345e" fill-rule="evenodd"/>
                <path id="Path_56695" data-name="Path 56695" d="M138.411,85.061a.111.111,0,1,0-.111-.111A.112.112,0,0,0,138.411,85.061Z" transform="translate(-137.252 -84.044)" fill="#61345e" fill-rule="evenodd"/>
                <path id="Path_56696" data-name="Path 56696" d="M134.749,82.979a.111.111,0,1,0-.111-.111A.112.112,0,0,0,134.749,82.979Z" transform="translate(-133.928 -82.154)" fill="#61345e" fill-rule="evenodd"/>
                <path id="Path_56697" data-name="Path 56697" d="M136.63,81.259a.111.111,0,1,0-.111-.111A.112.112,0,0,0,136.63,81.259Z" transform="translate(-135.635 -80.594)" fill="#61345e" fill-rule="evenodd"/>
                <path id="Path_56698" data-name="Path 56698" d="M134.408,80.659a.111.111,0,1,0-.111-.111A.112.112,0,0,0,134.408,80.659Z" transform="translate(-133.619 -80.048)" fill="#61345e" fill-rule="evenodd"/>
                <path id="Path_56699" data-name="Path 56699" d="M132.647,81.82a.111.111,0,1,0-.111-.111A.112.112,0,0,0,132.647,81.82Z" transform="translate(-132.02 -81.102)" fill="#61345e" fill-rule="evenodd"/>
                <path id="Path_56700" data-name="Path 56700" d="M132.447,83.7a.111.111,0,1,0-.111-.111A.112.112,0,0,0,132.447,83.7Z" transform="translate(-131.839 -82.809)" fill="#61345e" fill-rule="evenodd"/>
                <path id="Path_56701" data-name="Path 56701" d="M137.534,89.987a.111.111,0,1,0-.111-.111A.111.111,0,0,0,137.534,89.987Z" transform="translate(-136.456 -88.515)" fill="#61345e" fill-rule="evenodd"/>
                <path id="Path_56702" data-name="Path 56702" d="M135.953,88.625a.111.111,0,1,0-.111-.111A.111.111,0,0,0,135.953,88.625Z" transform="translate(-135.021 -87.278)" fill="#61345e" fill-rule="evenodd"/>
                <path id="Path_56703" data-name="Path 56703" d="M134.562,87.235a.111.111,0,1,0-.111-.111A.112.112,0,0,0,134.562,87.235Z" transform="translate(-133.758 -86.017)" fill="#61345e" fill-rule="evenodd"/>
                <path id="Path_56704" data-name="Path 56704" d="M132.321,85.794a.111.111,0,1,0-.111-.111A.111.111,0,0,0,132.321,85.794Z" transform="translate(-131.724 -84.71)" fill="#61345e" fill-rule="evenodd"/>
                <path id="Path_56705" data-name="Path 56705" d="M139.756,90.577a.111.111,0,1,0-.111-.111A.111.111,0,0,0,139.756,90.577Z" transform="translate(-138.472 -89.05)" fill="#61345e" fill-rule="evenodd"/>
                <path id="Path_56706" data-name="Path 56706" d="M139.125,86.885a.111.111,0,1,0-.111-.111A.112.112,0,0,0,139.125,86.885Z" transform="translate(-137.9 -85.699)" fill="#61345e" fill-rule="evenodd"/>
                <path id="Path_56707" data-name="Path 56707" d="M137.52,87.783a.111.111,0,1,0-.111-.111A.112.112,0,0,0,137.52,87.783Z" transform="translate(-136.443 -86.514)" fill="#61345e" fill-rule="evenodd"/>
                <path id="Path_56708" data-name="Path 56708" d="M133.968,85.121a.111.111,0,1,0-.111-.111A.112.112,0,0,0,133.968,85.121Z" transform="translate(-133.219 -84.098)" fill="#61345e" fill-rule="evenodd"/>
                <path id="Path_56709" data-name="Path 56709" d="M136.47,83.841a.111.111,0,1,0-.111-.111A.112.112,0,0,0,136.47,83.841Z" transform="translate(-135.49 -82.936)" fill="#61345e" fill-rule="evenodd"/>
                <path id="Path_56710" data-name="Path 56710" d="M136.979,81.2a.09.09,0,1,1-.035.118A.087.087,0,0,1,136.979,81.2Z" transform="translate(-136.012 -80.732)" fill="#6e3b6e" fill-rule="evenodd"/>
                <path id="Path_56711" data-name="Path 56711" d="M134.752,80.6a.09.09,0,1,1-.021.121A.087.087,0,0,1,134.752,80.6Z" transform="translate(-133.998 -80.184)" fill="#6e3b6e" fill-rule="evenodd"/>
                <path id="Path_56712" data-name="Path 56712" d="M132.961,81.7a.09.09,0,1,1,.007.123A.087.087,0,0,1,132.961,81.7Z" transform="translate(-132.386 -81.17)" fill="#6e3b6e" fill-rule="evenodd"/>
                <path id="Path_56713" data-name="Path 56713" d="M132.7,83.537a.09.09,0,1,1,.007.123A.087.087,0,0,1,132.7,83.537Z" transform="translate(-132.15 -82.841)" fill="#6e3b6e" fill-rule="evenodd"/>
                <path id="Path_56714" data-name="Path 56714" d="M134.992,82.907a.09.09,0,1,1,.007.123A.087.087,0,0,1,134.992,82.907Z" transform="translate(-134.23 -82.269)" fill="#6e3b6e" fill-rule="evenodd"/>
                <path id="Path_56715" data-name="Path 56715" d="M136.724,83.847a.09.09,0,1,1,.007.123A.087.087,0,0,1,136.724,83.847Z" transform="translate(-135.801 -83.123)" fill="#6e3b6e" fill-rule="evenodd"/>
                <path id="Path_56716" data-name="Path 56716" d="M138.4,82.727a.09.09,0,1,1,.007.123A.087.087,0,0,1,138.4,82.727Z" transform="translate(-137.327 -82.105)" fill="#6e3b6e" fill-rule="evenodd"/>
                <path id="Path_56717" data-name="Path 56717" d="M138.832,84.975a.082.082,0,1,1,.006.111A.079.079,0,0,1,138.832,84.975Z" transform="translate(-137.717 -84.148)" fill="#6e3b6e" fill-rule="evenodd"/>
                <path id="Path_56718" data-name="Path 56718" d="M139.7,86.887a.082.082,0,1,1,.006.111A.079.079,0,0,1,139.7,86.887Z" transform="translate(-138.507 -85.883)" fill="#6e3b6e" fill-rule="evenodd"/>
                <path id="Path_56719" data-name="Path 56719" d="M137.812,87.757a.082.082,0,1,1,.006.111A.079.079,0,0,1,137.812,87.757Z" transform="translate(-136.79 -86.673)" fill="#6e3b6e" fill-rule="evenodd"/>
                <path id="Path_56720" data-name="Path 56720" d="M136.691,85.876a.082.082,0,1,1,.006.111A.079.079,0,0,1,136.691,85.876Z" transform="translate(-135.773 -84.966)" fill="#6e3b6e" fill-rule="evenodd"/>
                <path id="Path_56721" data-name="Path 56721" d="M136.411,88.737a.082.082,0,1,1,.006.111A.079.079,0,0,1,136.411,88.737Z" transform="translate(-135.519 -87.563)" fill="#6e3b6e" fill-rule="evenodd"/>
                <path id="Path_56722" data-name="Path 56722" d="M134.85,87.356a.082.082,0,1,1,.006.111A.079.079,0,0,1,134.85,87.356Z" transform="translate(-134.102 -86.309)" fill="#6e3b6e" fill-rule="evenodd"/>
                <path id="Path_56723" data-name="Path 56723" d="M137.892,90.059a.082.082,0,1,1,.006.111A.079.079,0,0,1,137.892,90.059Z" transform="translate(-136.863 -88.762)" fill="#6e3b6e" fill-rule="evenodd"/>
                <path id="Path_56724" data-name="Path 56724" d="M139.823,88.817a.082.082,0,1,1,.006.111A.079.079,0,0,1,139.823,88.817Z" transform="translate(-138.616 -87.635)" fill="#6e3b6e" fill-rule="evenodd"/>
                <path id="Path_56725" data-name="Path 56725" d="M140.257,90.623a.076.076,0,1,1,.006.1A.073.073,0,0,1,140.257,90.623Z" transform="translate(-139.011 -89.275)" fill="#6e3b6e" fill-rule="evenodd"/>
                <path id="Path_56726" data-name="Path 56726" d="M134.182,85.138a.09.09,0,1,1,.007.123A.087.087,0,0,1,134.182,85.138Z" transform="translate(-133.494 -84.294)" fill="#6e3b6e" fill-rule="evenodd"/>
                <path id="Path_56727" data-name="Path 56727" d="M132.321,85.859a.09.09,0,1,1,.007.123A.087.087,0,0,1,132.321,85.859Z" transform="translate(-131.805 -84.948)" fill="#6e3b6e" fill-rule="evenodd"/>
                <path id="Path_56728" data-name="Path 56728" d="M138.957,82.832c.04.025.047.083.019.066a.121.121,0,0,0-.04-.034c-.019-.009-.055-.009-.057-.02C138.874,82.815,138.931,82.816,138.957,82.832Z" transform="translate(-137.777 -82.213)" fill="#7d4f7c" fill-rule="evenodd"/>
                <path id="Path_56729" data-name="Path 56729" d="M137.516,81.371c.04.025.047.083.019.066a.123.123,0,0,0-.04-.034c-.019-.009-.055-.009-.057-.02C137.433,81.355,137.49,81.355,137.516,81.371Z" transform="translate(-136.47 -80.887)" fill="#7d4f7c" fill-rule="evenodd"/>
                <path id="Path_56730" data-name="Path 56730" d="M135.275,80.73c.04.025.047.083.019.066a.124.124,0,0,0-.04-.034c-.019-.009-.055-.01-.057-.02C135.192,80.714,135.249,80.714,135.275,80.73Z" transform="translate(-134.435 -80.306)" fill="#7d4f7c" fill-rule="evenodd"/>
                <path id="Path_56731" data-name="Path 56731" d="M133.494,81.791c.04.025.047.082.019.066a.127.127,0,0,0-.04-.034c-.019-.009-.055-.009-.057-.02C133.411,81.775,133.468,81.775,133.494,81.791Z" transform="translate(-132.819 -81.268)" fill="#7d4f7c" fill-rule="evenodd"/>
                <path id="Path_56732" data-name="Path 56732" d="M135.575,83.072c.04.025.047.083.019.066a.124.124,0,0,0-.04-.034c-.019-.009-.055-.009-.057-.02C135.493,83.056,135.549,83.056,135.575,83.072Z" transform="translate(-134.708 -82.431)" fill="#7d4f7c" fill-rule="evenodd"/>
                <path id="Path_56733" data-name="Path 56733" d="M137.3,83.933c.04.025.047.083.019.066a.127.127,0,0,0-.04-.034c-.019-.009-.055-.009-.057-.02C137.213,83.916,137.27,83.916,137.3,83.933Z" transform="translate(-136.27 -83.212)" fill="#7d4f7c" fill-rule="evenodd"/>
                <path id="Path_56734" data-name="Path 56734" d="M139.257,85.074c.04.025.047.082.019.066a.126.126,0,0,0-.04-.034c-.019-.009-.055-.009-.057-.02C139.175,85.057,139.231,85.058,139.257,85.074Z" transform="translate(-138.05 -84.248)" fill="#7d4f7c" fill-rule="evenodd"/>
                <path id="Path_56735" data-name="Path 56735" d="M140.118,87.015c.04.025.047.083.019.066a.125.125,0,0,0-.04-.034c-.019-.009-.055-.009-.057-.02C140.035,87,140.092,87,140.118,87.015Z" transform="translate(-138.831 -86.009)" fill="#7d4f7c" fill-rule="evenodd"/>
                <path id="Path_56736" data-name="Path 56736" d="M140.353,88.937c.035.028.034.084.01.065a.118.118,0,0,0-.033-.037c-.017-.011-.051-.016-.052-.026C140.276,88.911,140.33,88.919,140.353,88.937Z" transform="translate(-139.047 -87.749)" fill="#7d4f7c" fill-rule="evenodd"/>
                <path id="Path_56737" data-name="Path 56737" d="M140.723,90.668c.035.028.034.084.01.065a.12.12,0,0,0-.033-.037c-.017-.011-.051-.016-.052-.026C140.646,90.643,140.7,90.65,140.723,90.668Z" transform="translate(-139.382 -89.32)" fill="#7d4f7c" fill-rule="evenodd"/>
                <path id="Path_56738" data-name="Path 56738" d="M138.382,90.2c.035.028.034.084.01.065a.123.123,0,0,0-.033-.037c-.017-.011-.051-.016-.052-.026C138.305,90.173,138.359,90.18,138.382,90.2Z" transform="translate(-137.258 -88.894)" fill="#7d4f7c" fill-rule="evenodd"/>
                <path id="Path_56739" data-name="Path 56739" d="M138.322,87.9c.034.028.034.084.01.065a.118.118,0,0,0-.033-.037c-.017-.011-.051-.016-.052-.026C138.245,87.871,138.3,87.878,138.322,87.9Z" transform="translate(-137.203 -86.805)" fill="#7d4f7c" fill-rule="evenodd"/>
                <path id="Path_56740" data-name="Path 56740" d="M137.211,85.916c.035.028.034.084.01.065a.119.119,0,0,0-.033-.037c-.017-.011-.051-.016-.052-.026C137.134,85.89,137.188,85.9,137.211,85.916Z" transform="translate(-136.195 -85.007)" fill="#7d4f7c" fill-rule="evenodd"/>
                <path id="Path_56741" data-name="Path 56741" d="M134.82,85.315c.035.028.034.084.01.065a.119.119,0,0,0-.033-.037c-.017-.011-.051-.016-.052-.026C134.743,85.289,134.8,85.3,134.82,85.315Z" transform="translate(-134.025 -84.462)" fill="#7d4f7c" fill-rule="evenodd"/>
                <path id="Path_56742" data-name="Path 56742" d="M135.32,87.586c.035.028.034.084.01.065a.119.119,0,0,0-.033-.037c-.017-.011-.051-.016-.052-.026C135.243,87.561,135.3,87.568,135.32,87.586Z" transform="translate(-134.479 -86.523)" fill="#7d4f7c" fill-rule="evenodd"/>
                <path id="Path_56743" data-name="Path 56743" d="M136.9,88.847c.034.028.034.084.01.065a.12.12,0,0,0-.033-.037c-.017-.011-.051-.016-.052-.026C136.824,88.822,136.878,88.829,136.9,88.847Z" transform="translate(-135.914 -87.668)" fill="#7d4f7c" fill-rule="evenodd"/>
                <path id="Path_56744" data-name="Path 56744" d="M133.3,83.654c.035.028.034.084.01.065a.119.119,0,0,0-.033-.037c-.017-.011-.051-.016-.052-.026C133.221,83.628,133.275,83.635,133.3,83.654Z" transform="translate(-132.644 -82.954)" fill="#7d4f7c" fill-rule="evenodd"/>
                <path id="Path_56745" data-name="Path 56745" d="M132.838,86.075c.035.028.034.084.01.065a.118.118,0,0,0-.033-.037c-.017-.011-.051-.016-.052-.026C132.761,86.049,132.815,86.057,132.838,86.075Z" transform="translate(-132.226 -85.152)" fill="#7d4f7c" fill-rule="evenodd"/>
              </g>
              <g id="Group_17345" data-name="Group 17345" transform="translate(0 2.019)">
                <g id="Group_17343" data-name="Group 17343">
                  <path id="Path_56746" data-name="Path 56746" d="M119.393,85.32h2.483l.265,2.929h-3.013Z" transform="translate(-119.128 -85.32)" fill="#b49061" fill-rule="evenodd"/>
                  <path id="Path_56747" data-name="Path 56747" d="M123.141,85.32h2.483l.265,2.929h-3.013Z" transform="translate(-122.53 -85.32)" fill="#e2c077" fill-rule="evenodd"/>
                </g>
                <g id="Group_17344" data-name="Group 17344" transform="translate(1.197 0.293)">
                  <path id="Path_56748" data-name="Path 56748" d="M132.154,88.63a.068.068,0,1,0-.068-.068A.068.068,0,0,0,132.154,88.63Z" transform="translate(-132.086 -88.494)" fill="#764633" fill-rule="evenodd"/>
                  <path id="Path_56749" data-name="Path 56749" d="M144.126,88.63a.068.068,0,1,0-.068-.068A.068.068,0,0,0,144.126,88.63Z" transform="translate(-142.952 -88.494)" fill="#764633" fill-rule="evenodd"/>
                </g>
                <path id="Path_56750" data-name="Path 56750" d="M133.591,89.112a.034.034,0,1,1,.068,0,.586.586,0,1,1-1.172,0,.034.034,0,1,1,.068,0,.518.518,0,0,0,1.037,0Z" transform="translate(-131.253 -88.731)" fill="#e0a519" fill-rule="evenodd"/>
              </g>
            </g>
            <g id="Group_17347" data-name="Group 17347" transform="translate(1.017 3.524)">
              <path id="Path_56751" data-name="Path 56751" d="M125.842,95.088h-.962a.335.335,0,0,0-.334.334h0a.335.335,0,0,0,.334.334h.962a.335.335,0,0,0,.334-.334h0A.335.335,0,0,0,125.842,95.088Z" transform="translate(-124.546 -95.088)" fill="#c10016" fill-rule="evenodd"/>
              <path id="Path_56754" data-name="Path 56754" d="M.09-.714H.206a.224.224,0,0,1,.115.023.079.079,0,0,1,.036.072.091.091,0,0,1-.016.055A.063.063,0,0,1,.3-.539v0a.082.082,0,0,1,.051.03.1.1,0,0,1,.016.058.1.1,0,0,1-.037.08.16.16,0,0,1-.1.029H.09Zm.079.148H.215a.084.084,0,0,0,.047-.01A.037.037,0,0,0,.276-.609.033.033,0,0,0,.26-.64a.1.1,0,0,0-.05-.009H.169Zm0,.063v.1H.221A.076.076,0,0,0,.269-.419.046.046,0,0,0,.284-.457Q.284-.5.218-.5ZM.745-.714v.241A.139.139,0,0,1,.726-.4a.12.12,0,0,1-.053.048A.191.191,0,0,1,.59-.336.158.158,0,0,1,.478-.372a.131.131,0,0,1-.04-.1v-.24H.517v.228a.1.1,0,0,0,.017.063A.072.072,0,0,0,.592-.4a.071.071,0,0,0,.056-.02A.1.1,0,0,0,.666-.486V-.714ZM.952-.56,1.03-.714h.085L.992-.486v.145H.913V-.483L.789-.714H.875Z" transform="translate(0.324 0.859)" fill="#fff"/>
            </g>
          </g>
        </g>
        <g id="Group_17351" data-name="Group 17351" transform="translate(10.554 9.47)">
          <g id="Group_17177" data-name="Group 17177" transform="translate(0 0)" style="isolation: isolate">
            <g id="Group_17176" data-name="Group 17176" clip-path="url(#clip-path-2)">
              <path id="Path_56070" data-name="Path 56070" d="M4.171,8.106l-.595.5L.657,11.034A.394.394,0,0,1,.013,10.8.637.637,0,0,1,0,10.663q0-5.1,0-10.2A.436.436,0,0,1,.308.012.406.406,0,0,1,.415,0H7.933a.418.418,0,0,1,.414.414c0,.03,0,.059,0,.089q0,5.061,0,10.122a.707.707,0,0,1-.039.248.385.385,0,0,1-.622.156L4.216,8.143l-.045-.037" transform="translate(0 0)" fill="url(#linear-gradient)"/>
            </g>
          </g>
          <g id="Group_17333" data-name="Group 17333" transform="translate(1.185 0.302)">
            <g id="Group_17283" data-name="Group 17283" transform="translate(0 0)">
              <g id="Group_17282" data-name="Group 17282">
                <g id="Group_17279" data-name="Group 17279">
                  <circle id="Ellipse_874" data-name="Ellipse 874" cx="2.113" cy="2.113" r="2.113" transform="translate(0 2.989) rotate(-45)" fill="#ffcb27"/>
                </g>
                <g id="Group_17280" data-name="Group 17280" transform="translate(1.595 0.948)">
                  <path id="Path_56475" data-name="Path 56475" d="M365.066,97.67a2.114,2.114,0,0,1-1.953,3.628,2.114,2.114,0,1,0,1.953-3.628Z" transform="translate(-363.113 -97.67)" fill="#f9c021"/>
                </g>
                <g id="Group_17281" data-name="Group 17281" transform="translate(1.018 1.034)">
                  <path id="Path_56476" data-name="Path 56476" d="M335.11,104.524a1.962,1.962,0,0,1,3.045-2.129,1.962,1.962,0,1,0-2.522,3A1.954,1.954,0,0,1,335.11,104.524Z" transform="translate(-334.831 -101.846)" fill="#ffd95f"/>
                </g>
              </g>
            </g>
            <path id="Path_56477" data-name="Path 56477" d="M367.607,137.6a.1.1,0,0,0-.1-.042l-.792.11-.54-.59a.1.1,0,0,0-.171.049l-.14.787-.728.331a.1.1,0,0,0-.006.178l.705.376.09.795a.1.1,0,0,0,.167.06l.576-.555.783.16a.1.1,0,0,0,.048,0,.1.1,0,0,0,.061-.138l-.349-.719.394-.7A.1.1,0,0,0,367.607,137.6Z" transform="translate(-363.448 -135.291)" fill="#fff"/>
          </g>
        </g>
        <g id="Group_17349" data-name="Group 17349" transform="translate(0 15.685)">
          <path id="Path_56752" data-name="Path 56752" d="M78.663,134.058a7.586,7.586,0,0,1-.191,2.254H89.118l3.5-10.081c.022-.05.042-.1.06-.153l.236-.7.552-1.632a1.808,1.808,0,0,0-1.13-2.285h0a1.807,1.807,0,0,0-1.809.393,1.809,1.809,0,0,0-1.2-2.014h0a1.808,1.808,0,0,0-2.285,1.13l-.227.671-.011-.007.4-1.178a1.808,1.808,0,0,0-1.13-2.285h0a1.81,1.81,0,0,0-2.024.632l1.888-5.976a1.821,1.821,0,0,0-1.13-2.285h0a1.8,1.8,0,0,0-2.285,1.13l-2.634,8.18a1.932,1.932,0,0,0-.075.308L78.271,124.9c-6.938-6.178-8.757-1.651-7.085-.274,1.855,1.527,2.194,2.094,4.051,3.618C76.379,130.179,76.355,131.29,78.663,134.058Z" transform="translate(-70.606 -110.45)" fill="#de9d80" fill-rule="evenodd"/>
          <path id="Path_56753" data-name="Path 56753" d="M128.158,115.794l.133-.472L126,114.68l-.133.472a1.192,1.192,0,0,0,.823,1.465h0A1.191,1.191,0,0,0,128.158,115.794Z" transform="translate(-113.434 -113.731)" fill="#e6b8a2" fill-rule="evenodd"/>
        </g>
      </g>
    </g>
  </g>
</svg>
