<svg id="home1" xmlns="http://www.w3.org/2000/svg" width="18.751" height="15.549" viewBox="0 0 18.751 15.549">
  <path id="Path_56088" data-name="Path 56088" d="M2408.066,249.925a.3.3,0,0,1,.268,0,1.911,1.911,0,0,1,.242.133q4.344,3.007,8.687,6.018c.262.181.427.4.218.7s-.481.189-.733.014q-4.128-2.865-8.253-5.733a.429.429,0,0,0-.587,0q-4.055,2.83-8.124,5.64c-.438.3-.692.331-.871.086s-.077-.494.353-.792q4.244-2.942,8.49-5.882A2.925,2.925,0,0,1,2408.066,249.925Z" transform="translate(-2398.824 -249.892)"/>
  <path id="Path_56089" data-name="Path 56089" d="M2417.543,262.964v-.055a1.082,1.082,0,0,0-.01-.336.438.438,0,0,0-.428-.344h-.038a.155.155,0,0,0-.055.01.438.438,0,0,0-.344.4.836.836,0,0,0,0,.2v.122a.418.418,0,0,0,.006.066q0,3.593,0,7.186v.438h-3.861c0-.971,0-1.913,0-2.855,0-.463-.133-.589-.6-.592-.784,0-1.569,0-2.354,0-.562,0-.673.114-.674.679,0,.916,0,1.831,0,2.772h-3.852v-.567q0-3.558,0-7.115c0-.016,0-.031,0-.047v-.3a.438.438,0,0,0-.687-.361.347.347,0,0,0-.084.076.439.439,0,0,0-.1.284v.3q0,4.046,0,8.093a.457.457,0,0,0,.512.52q2.3.005,4.589,0c.343,0,.5-.195.5-.536,0-.825,0-1.649,0-2.474,0-.141,0-.282,0-.437h1.888v.447q0,1.137,0,2.275c0,.634.088.731.7.732q2.115,0,4.23-.005c.559,0,.667-.116.667-.688q0-3.945,0-7.89Z" transform="translate(-2401.625 -256.004)"/>
</svg>
