<svg xmlns="http://www.w3.org/2000/svg" xmlns:xlink="http://www.w3.org/1999/xlink" width="73" height="71" viewBox="0 0 73 71">
  <defs>
    <filter id="Rectangle_31" x="8" y="6" width="65" height="65" filterUnits="userSpaceOnUse">
      <feOffset dx="5" dy="5" input="SourceAlpha"/>
      <feGaussianBlur stdDeviation="7.5" result="blur"/>
      <feFlood flood-opacity="0.102"/>
      <feComposite operator="in" in2="blur"/>
      <feComposite in="SourceGraphic"/>
    </filter>
    <filter id="Rectangle_32" x="0" y="0" width="65" height="65" filterUnits="userSpaceOnUse">
      <feOffset dx="-3" dy="-1" input="SourceAlpha"/>
      <feGaussianBlur stdDeviation="7.5" result="blur-2"/>
      <feFlood flood-color="#fff" flood-opacity="0.91"/>
      <feComposite operator="in" in2="blur-2"/>
      <feComposite in="SourceGraphic"/>
    </filter>
    <clipPath id="clip-path">
      <rect id="Rectangle_11601" data-name="Rectangle 11601" width="12.077" height="12.087" fill="#f3f3f3"/>
    </clipPath>
  </defs>
  <g id="add" transform="translate(-280.5 -174.5)">
    <g id="Group_10061" data-name="Group 10061" transform="translate(-2 33)">
      <g transform="matrix(1, 0, 0, 1, 282.5, 141.5)" filter="url(#Rectangle_31)">
        <rect id="Rectangle_31-2" data-name="Rectangle 31" width="20" height="20" rx="10" transform="translate(25.5 23.5)" fill="#f6f9ff"/>
      </g>
      <g transform="matrix(1, 0, 0, 1, 282.5, 141.5)" filter="url(#Rectangle_32)">
        <rect id="Rectangle_32-2" data-name="Rectangle 32" width="20" height="20" rx="10" transform="translate(25.5 23.5)" fill="#1cb5b5"/>
      </g>
    </g>
    <g id="Group_10062" data-name="Group 10062" transform="translate(310 202)">
      <g id="Group_10059" data-name="Group 10059" transform="translate(0 0)" clip-path="url(#clip-path)">
        <path id="Path_52535" data-name="Path 52535" d="M5.263,6.825H5.139q-2.172,0-4.344,0A.745.745,0,0,1,.1,6.42a.737.737,0,0,1,.026-.793A.757.757,0,0,1,.81,5.267H5.263V5.144q0-2.163,0-4.326A.766.766,0,0,1,5.579.159a.736.736,0,0,1,.8-.071.736.736,0,0,1,.432.692c0,.544,0,1.088,0,1.633V5.267h4.47a.778.778,0,0,1,.031,1.556c-.441.005-.883,0-1.324,0H6.817v.122q0,2.172,0,4.344a.776.776,0,0,1-1.548.095c-.005-.063-.005-.127-.005-.19V6.825" transform="translate(0 0)" fill="#f3f3f3"/>
      </g>
    </g>
  </g>
</svg>
