<svg id="cart" xmlns="http://www.w3.org/2000/svg" xmlns:xlink="http://www.w3.org/1999/xlink" width="16.828" height="13.791" viewBox="0 0 16.828 13.791">
  <defs>
    <clipPath id="clip-path">
      <rect id="Rectangle_17577" data-name="Rectangle 17577" width="16.828" height="13.79" fill="#1cb5b5" stroke="rgba(0,0,0,0)" stroke-width="1"/>
    </clipPath>
  </defs>
  <g id="Group_17759" data-name="Group 17759" clip-path="url(#clip-path)">
    <path id="Path_57941" data-name="Path 57941" d="M5.558,8.391A1.268,1.268,0,0,0,6.786,9.466h6.382a1.188,1.188,0,0,1,.136,0,.349.349,0,0,1,.028.69.775.775,0,0,1-.146.009c-2.106,0-4.213-.009-6.319,0A1.868,1.868,0,0,1,5.092,9.1a3.423,3.423,0,0,1-.266-.661c-.41-1.409-.808-2.821-1.216-4.231-.284-.982-.577-1.962-.865-2.943A.855.855,0,0,0,1.946.7c-.519,0-1.037,0-1.556,0a.365.365,0,0,1-.3-.121A.331.331,0,0,1,.026.22.308.308,0,0,1,.309,0c.756,0,1.514,0,2.269.038a.9.9,0,0,1,.862.748c.622,2.269,1.257,4.536,1.886,6.8a.117.117,0,0,0,.136.1c2.534,0,5.068-.006,7.6,0a.7.7,0,0,0,.75-.421c.186-.423.4-.833.592-1.254q.8-1.782,1.591-3.571a1.918,1.918,0,0,0,.124-.527c.019-.148-.036-.2-.188-.2-.245-.006-.491,0-.736,0l-9.989,0a.366.366,0,0,1-.4-.264.347.347,0,0,1,.34-.438c.21-.007.42,0,.631,0l9.915,0a2.321,2.321,0,0,1,.419.022.861.861,0,0,1,.71,1.041,2.678,2.678,0,0,1-.221.753c-.627,1.393-1.248,2.788-1.878,4.179-.121.267-.266.525-.4.784a1.109,1.109,0,0,1-.99.589c-.1.006-.21.006-.315.006H5.558Z" transform="translate(0 0)" fill="#1cb5b5" stroke="rgba(0,0,0,0)" stroke-width="1"/>
    <path id="Path_57942" data-name="Path 57942" d="M51.592,112.43a1.638,1.638,0,1,1,1.638,1.638,1.638,1.638,0,0,1-1.638-1.638m2.6-.005a.963.963,0,1,0-.946.97.966.966,0,0,0,.946-.97" transform="translate(-46.696 -100.277)" fill="#1cb5b5" stroke="rgba(0,0,0,0)" stroke-width="1"/>
    <path id="Path_57943" data-name="Path 57943" d="M125.1,112.43a1.637,1.637,0,1,1-1.638-1.639,1.636,1.636,0,0,1,1.638,1.639m-2.6,0a.963.963,0,1,0,.967-.96.964.964,0,0,0-.967.96" transform="translate(-110.269 -100.278)" fill="#1cb5b5" stroke="rgba(0,0,0,0)" stroke-width="1"/>
  </g>
</svg>
