<svg xmlns="http://www.w3.org/2000/svg" xmlns:xlink="http://www.w3.org/1999/xlink" width="24" height="24" viewBox="0 0 24 24">
  <defs>
    <clipPath id="clip-path">
      <rect id="Rectangle_15216" data-name="Rectangle 15216" width="24" height="24" transform="translate(311 415)" fill="#fff" stroke="#707070" stroke-width="1"/>
    </clipPath>
  </defs>
  <g id="Mask_Group_181" data-name="Mask Group 181" transform="translate(-311 -415)" clip-path="url(#clip-path)">
    <path id="edit" d="M-584.409,89.68h.192q3.088,0,6.177,0c.176,0,.325.031.4.207a.521.521,0,0,1-.055.552.448.448,0,0,1-.23.117.99.99,0,0,1-.242.006q-8.173,0-16.347,0c-.159,0-.311-.009-.394-.168a.515.515,0,0,1,.012-.555.579.579,0,0,1,.268-.154.6.6,0,0,1,.2,0h9.121c0-.192,0-.375,0-.558q.019-1.355.04-2.71c0-.043.013-.1-.008-.126-.135-.189-.044-.359.03-.536q2.339-5.606,4.675-11.212a1.8,1.8,0,0,1,2-1.055,1.751,1.751,0,0,1,1.4,1.736,2.873,2.873,0,0,1-.3,1.159q-2.264,5.43-4.526,10.86c-.058.139-.128.253-.294.276a.168.168,0,0,0-.08.055l-2,2.051A.629.629,0,0,0-584.409,89.68Zm1.909-2.908,4.5-10.8-2.109-.879-4.5,10.8Zm-2.151-.059c0,.434,0,.832,0,1.229a.127.127,0,0,0,.067.09c.181.081.365.157.55.229a.112.112,0,0,0,.1-.012c.286-.287.567-.579.861-.88Zm6.835-11.364a1.12,1.12,0,0,0-.794-1.17,1,1,0,0,0-1.2.341Z" transform="translate(909.107 344.993)" fill="#3b9a05" stroke="#3b9a05" stroke-width="0.25"/>
  </g>
</svg>
