<svg id="fedex" xmlns="http://www.w3.org/2000/svg" xmlns:xlink="http://www.w3.org/1999/xlink" width="77.468" height="23.778" viewBox="0 0 77.468 23.778">
  <defs>
    <clipPath id="clip-path">
      <rect id="Rectangle_17396" data-name="Rectangle 17396" width="77.468" height="23.778" fill="none"/>
    </clipPath>
  </defs>
  <g id="Group_17167" data-name="Group 17167" transform="translate(0 0)" clip-path="url(#clip-path)">
    <path id="Path_56054" data-name="Path 56054" d="M162.935,33.228c-.138.152-.263.286-.385.424-.863.98-1.728,1.957-2.586,2.942a.525.525,0,0,1-.439.2c-1.873-.006-3.746,0-5.619,0h-.667c.368-.449.729-.835,1.078-1.231s.718-.806,1.077-1.21l1.061-1.2,1.061-1.2,1.075-1.211,1.072-1.21c-.063-.083-.115-.162-.177-.231q-2.742-3.091-5.485-6.179c-.209-.235-.419-.469-.628-.7-.035-.039-.064-.083-.115-.149.084-.008.142-.02.2-.02q3.179,0,6.358,0a.389.389,0,0,1,.315.15q1.455,1.614,2.916,3.224c.045.05.088.1.148.174.071-.069.126-.116.173-.17q1.025-1.174,2.048-2.349c.26-.3.523-.6.779-.9a.335.335,0,0,1,.281-.131q3.066.005,6.132,0c.052,0,.105.009.19.016-.048.068-.077.118-.114.16q-.747.845-1.5,1.688l-4.041,4.556c-.186.21-.373.418-.559.628-.049.055-.093.115-.135.168.072.156,2.009,2.343,3.206,3.659,1.083,1.191,2.146,2.4,3.218,3.6l-.02.048c-.078,0-.155.012-.233.012h-5.189c-.362,0-.725-.006-1.087,0a.42.42,0,0,1-.355-.157c-.7-.794-1.407-1.584-2.111-2.375-.273-.306-.545-.613-.818-.919a1.694,1.694,0,0,0-.128-.114" transform="translate(-95.408 -13.852)" fill="#ee6212"/>
    <path id="Path_56055" data-name="Path 56055" d="M44.946.006c-2.929,0-5.215.012-5.258.023a.2.2,0,0,0-.009.018.092.092,0,0,0,0,.02c0,.014,0,.027,0,.041s0,.027,0,.041c0,.062,0,.123,0,.185q0,4.452,0,8.9v.041c0,.007,0,.014,0,.021a.124.124,0,0,1,0,.02.351.351,0,0,1-.01.039.034.034,0,0,1-.011.016.33.33,0,0,1-.045.02c-.043-.043-.094-.092-.143-.144a5.04,5.04,0,0,0-2.739-1.544,7.493,7.493,0,0,0-2.79-.038A6.853,6.853,0,0,0,31.012,8.9a7.872,7.872,0,0,0-2.837,3.972c-.025.074-.051.146-.077.22a.546.546,0,0,1-.105-.2,8.825,8.825,0,0,0-.713-1.609,7.2,7.2,0,0,0-2.694-2.721A8.23,8.23,0,0,0,20.975,7.52a9.88,9.88,0,0,0-3.531.356,7.513,7.513,0,0,0-4.407,3.337c-.026.043-.059.081-.089.122l-.041-.011V8.389c-2.286,0-4.546,0-6.815,0V5.1c.1-.005.2-.014.291-.014h6.934c.065,0,.131-.009.2-.014V.011H.014A.731.731,0,0,0,0,.1Q0,11.47,0,22.835a.394.394,0,0,0,.014.08c0,.006.008.011.012.016l.016.015c.358.04,5.873.021,6.042-.028V13.3h6.073c-.016.092-.027.158-.039.225-.047.255-.107.508-.14.765a9.141,9.141,0,0,0,.109,3.139,7.659,7.659,0,0,0,2.155,3.956,8.155,8.155,0,0,0,5.193,2.3,9.951,9.951,0,0,0,3.137-.228A7.388,7.388,0,0,0,25.9,21.74a8.362,8.362,0,0,0,1.9-2.646c.081-.171.155-.346.242-.539H22.858c-.1.132-.206.268-.314.4a2.148,2.148,0,0,1-1.336.813,7.888,7.888,0,0,1-1,.083,2.485,2.485,0,0,1-1.079-.21,3.17,3.17,0,0,1-1.988-2.74,1.237,1.237,0,0,1,.011-.193h10.63c.012.057.024.1.031.148a8.692,8.692,0,0,0,.314,1.4,8.067,8.067,0,0,0,2.518,3.839,6.878,6.878,0,0,0,5.268,1.651,4.906,4.906,0,0,0,2.544-1.05A5.24,5.24,0,0,0,39.5,21.6c.036-.049.056-.132.169-.1,0,.236,0,.474,0,.712s0,.487,0,.749h.271c1.667-.006,3.334-.015,5-.017V.007ZM17.331,13.363a2.922,2.922,0,0,1,3.026-2.415,2.755,2.755,0,0,1,2.736,2.4c-.152.043-5.45.055-5.762.011m21.7,4.53A2.726,2.726,0,0,1,36.8,19.456,2.975,2.975,0,0,1,33.766,17.9a4.066,4.066,0,0,1-.566-1.823,5.057,5.057,0,0,1,.507-2.725,2.965,2.965,0,0,1,1.521-1.488,2.873,2.873,0,0,1,3.756,1.349,5.215,5.215,0,0,1,.529,2.361,4.833,4.833,0,0,1-.479,2.322" transform="translate(0 -0.004)" fill="#22247c"/>
    <path id="Path_56056" data-name="Path 56056" d="M131.869,17.85h-7.3V13.2h7.313c.041-.623.039-4.436-.006-4.778H124.57V7.308c0-.179,0-.367,0-.556V5.08h.046c.139,0,.288-.005.436-.005h6.564c.093,0,.186-.009.273-.014.045-.3.031-4.893-.012-5.036C131.752,0,124.469,0,119.2,0V0h-.069V.291h0V22.938h.277q6.154,0,12.308,0c.059,0,.118-.009.172-.013.045-.322.029-4.908-.022-5.074" transform="translate(-74.173 0)" fill="#ee6212"/>
  </g>
</svg>
