<svg xmlns="http://www.w3.org/2000/svg" width="12.775" height="16.998" viewBox="0 0 12.775 16.998">
  <g id="favourite" transform="translate(-2674.123 1.594)">
    <path id="Path_57929" data-name="Path 57929" d="M2680.506,10.758l-.746.62q-2.275,1.9-4.548,3.792a.579.579,0,0,1-.643.118.642.642,0,0,1-.381-.571c0-.038,0-.077,0-.116q0-7.7,0-15.4a.955.955,0,0,1,.076-.381.563.563,0,0,1,.549-.352h2.3q4.534,0,9.068,0a.656.656,0,0,1,.656.632c0,.035,0,.071,0,.106q0,7.7,0,15.4a.8.8,0,0,1-.112.451.581.581,0,0,1-.885.14l-3.654-3.042-1.616-1.345Zm-5.706,4c.039-.029.064-.047.088-.067l1.391-1.163,3.847-3.217a.572.572,0,0,1,.767,0l.082.068,5.174,4.306c.022.019.048.034.089.063,0-.064.006-.1.006-.145q0-7.693,0-15.385c0-.15,0-.15-.148-.15h-11.17c-.15,0-.15,0-.15.157V14.47c0,.058,0,.116,0,.174A.885.885,0,0,0,2674.8,14.755Z" transform="translate(0)" fill="#1cb5b5" stroke="#1cb5b5" stroke-width="0.125"/>
    <path id="Path_57930" data-name="Path 57930" d="M2836.4,160.947c.3,0,.6,0,.9,0a.091.091,0,0,0,.106-.077q.275-.868.556-1.735a.375.375,0,0,1,.451-.268.37.37,0,0,1,.283.27c.182.569.366,1.137.545,1.706a.123.123,0,0,0,.142.1c.59,0,1.18,0,1.771,0a.377.377,0,0,1,.373.5.453.453,0,0,1-.148.2q-.72.54-1.449,1.068a.1.1,0,0,0-.042.138c.185.568.366,1.137.548,1.705a.384.384,0,0,1-.608.439c-.477-.351-.955-.7-1.431-1.055a.1.1,0,0,0-.136,0q-.717.532-1.437,1.059a.382.382,0,0,1-.6-.433c.183-.571.364-1.142.551-1.712a.112.112,0,0,0-.051-.149q-.727-.53-1.451-1.066a.369.369,0,0,1-.155-.374.355.355,0,0,1,.251-.3.513.513,0,0,1,.157-.023C2835.815,160.946,2836.108,160.947,2836.4,160.947Zm4.478.488-.009-.02h-1.625a.379.379,0,0,1-.4-.292q-.21-.653-.418-1.307c-.027-.086-.056-.171-.09-.278-.018.044-.027.066-.035.088-.157.491-.316.982-.472,1.474a.387.387,0,0,1-.425.315h-1.614l-.006.019.063.049,1.247.918a.391.391,0,0,1,.159.493l-.473,1.474c-.009.029-.017.059-.031.108l.05-.034,1.26-.928a.4.4,0,0,1,.548,0l1.241.914c.017.013.035.023.071.046-.017-.053-.026-.086-.037-.119q-.235-.733-.47-1.466a.391.391,0,0,1,.161-.486l1.248-.918Z" transform="translate(-157.819 -157.295)" fill="#1cb5b5" stroke="#1cb5b5" stroke-width="0.125"/>
  </g>
</svg>
