<svg xmlns="http://www.w3.org/2000/svg" width="13.047" height="12.115" viewBox="0 0 13.047 12.115">
  <path id="grey_rate" d="M14.8,7.569H10.518l-1.3-3.885a.472.472,0,0,0-.885,0l-1.3,3.885H2.716a.467.467,0,0,0-.466.466.342.342,0,0,0,.009.079.448.448,0,0,0,.2.329l3.521,2.481L4.623,14.852a.467.467,0,0,0,.16.524.451.451,0,0,0,.262.114.571.571,0,0,0,.291-.1l3.436-2.449,3.436,2.449a.546.546,0,0,0,.291.1.418.418,0,0,0,.259-.114.462.462,0,0,0,.16-.524l-1.351-3.929,3.492-2.5.084-.073a.445.445,0,0,0-.344-.778Z" transform="translate(-2.25 -3.375)" fill="#e7e2d5"/>
</svg>
