<svg xmlns="http://www.w3.org/2000/svg" xmlns:xlink="http://www.w3.org/1999/xlink" width="17.739" height="14.982" viewBox="0 0 17.739 14.982">
  <defs>
    <clipPath id="clip-path">
      <rect id="Rectangle_11604" data-name="Rectangle 11604" width="17.739" height="14.982" fill="#f00d0d"/>
    </clipPath>
  </defs>
  <g id="like_favorite" style="isolation: isolate">
    <g id="Group_10069" data-name="Group 10069" clip-path="url(#clip-path)">
      <path id="Path_52536" data-name="Path 52536" d="M8.875,14.982c-.932-.793-1.863-1.579-2.786-2.373-1.512-1.3-3.061-2.567-4.515-3.931A4.717,4.717,0,0,1,.263,3.56,4.765,4.765,0,0,1,4.18.116,4.832,4.832,0,0,1,8.213,1.142c.23.183.44.391.657.584A11.433,11.433,0,0,1,9.99.839,4.836,4.836,0,0,1,15.38.8a4.811,4.811,0,0,1,2.341,4.74A5.25,5.25,0,0,1,15.694,9.2c-2.205,1.895-4.424,3.773-6.638,5.658-.05.043-.108.075-.181.126M8.842,2.624c-.23-.255-.432-.507-.663-.729A4.233,4.233,0,0,0,4.986.631,4.3,4.3,0,0,0,.949,3.374a4.34,4.34,0,0,0,.927,4.794c.519.521,1.08,1,1.64,1.481,1.781,1.525,3.57,3.04,5.373,4.574,1.213-1.031,2.422-2.047,3.618-3.077,1.127-.97,2.287-1.908,3.35-2.944A4.44,4.44,0,0,0,9.883,1.644c-.34.28-.644.6-1.041.98" transform="translate(0 0)" fill="#f00d0d"/>
    </g>
  </g>
</svg>
