<svg xmlns="http://www.w3.org/2000/svg" width="9.072" height="17.239" viewBox="0 0 9.072 17.239">
  <path id="mobile" d="M-1465.384,144.3c0,2.469-.012,4.937.008,7.406a1.171,1.171,0,0,1-1.229,1.222c-2.223-.019-4.447-.007-6.67-.007a1.094,1.094,0,0,1-1.171-1.169q0-4.831,0-9.661,0-2.606,0-5.212a1.1,1.1,0,0,1,1.183-1.19h6.734a1.09,1.09,0,0,1,1.146,1.146q0,1.816,0,3.631,0,.957,0,1.915t0,1.919Zm-.557,6.326V137.18h-7.952v13.444Zm-3.976,1.817a.647.647,0,0,0,.645-.636.641.641,0,0,0-.65-.645.636.636,0,0,0-.635.641A.644.644,0,0,0-1469.917,152.442Zm0-15.9h.75c.095,0,.2-.006.192-.133s-.1-.122-.187-.122h-1.514c-.091,0-.182.009-.184.124s.086.131.179.131Z" transform="translate(1474.448 -135.688)" fill="#1cb5b5"/>
</svg>
