<svg id="Mastercard_Icon" data-name="Mastercard Icon" xmlns="http://www.w3.org/2000/svg" width="26.231" height="16.393" viewBox="0 0 26.231 16.393">
  <path id="Shape" d="M16.388,8.2A8.194,8.194,0,1,1,8.194,0,8.194,8.194,0,0,1,16.388,8.2Z" transform="translate(0 0)" fill="#f64000"/>
  <path id="Shape-2" data-name="Shape" d="M8.2,0A8.149,8.149,0,0,0,3.3,1.634h.007a7.023,7.023,0,0,1,.794.742L2.4,2.4a8.428,8.428,0,0,0-.74.868H4.663a7.617,7.617,0,0,1,.632.816H1.112a8.167,8.167,0,0,0-.419.817H5.771a6.98,6.98,0,0,1,.352.791H.392a7.894,7.894,0,0,0-.228.867h6.2c.061.284.107.546.139.813H.041C.014,7.647,0,7.92,0,8.2H6.55a7.2,7.2,0,0,1-.05.82H.041q.042.417.123.82h6.19c-.064.266-.138.533-.23.81H.373a7.957,7.957,0,0,0,.308.818h5.09a7.467,7.467,0,0,1-.477.816H1.1a7.975,7.975,0,0,0,.547.823l3.02.045a7.978,7.978,0,0,1-.889.766c.016.013-.481,0-1.461-.017A8.195,8.195,0,1,0,8.2,0Z" transform="translate(9.838 0)" fill="#f6b900"/>
</svg>
