<svg xmlns="http://www.w3.org/2000/svg" width="15.359" height="17.504" viewBox="0 0 15.359 17.504">
  <g id="notification" transform="translate(0.504 0.5)">
    <path id="Path_9837" data-name="Path 9837" d="M346.117,85.451a2.377,2.377,0,1,1,2.384-2.377A2.375,2.375,0,0,1,346.117,85.451Z" transform="translate(-334.17 -79.321)" fill="#e50019"/>
    <g id="Group_5021" data-name="Group 5021" transform="translate(11.226 2.841)">
      <path id="Path_9842" data-name="Path 9842" d="M359.937,95.952H359.6V94.528a1.864,1.864,0,0,1-.32.154,2.8,2.8,0,0,1-.357.115v-.215a2.4,2.4,0,0,0,.5-.214,1.043,1.043,0,0,0,.3-.243h.218Z" transform="translate(-358.921 -94.126)" fill="#fff"/>
    </g>
    <path id="Path_9843" data-name="Path 9843" d="M300.474,199.569h-1.466a2.713,2.713,0,0,1-2.115-1.626h0c0-.444.335-.405.779-.405l3.747-.009c.444,0,.81-.029.81.414h0C301.871,198.75,301.174,199.569,300.474,199.569Z" transform="translate(-292.428 -183.418)" fill="#ffbe3d"/>
    <path id="Path_9844" data-name="Path 9844" d="M298.813,198.921a2.9,2.9,0,0,1-2.787-2.075c-.074-.265.075-.468.322-.435.155.021.222.128.264.268a2.248,2.248,0,0,0,.883,1.217,2.3,2.3,0,0,0,3.513-1.175,1.364,1.364,0,0,1,.045-.138.3.3,0,0,1,.348-.169.276.276,0,0,1,.221.295,1.34,1.34,0,0,1-.081.326A2.9,2.9,0,0,1,298.813,198.921Z" transform="translate(-291.638 -182.417)" fill="#1cb5b5" stroke="rgba(0,0,0,0)" stroke-width="1"/>
    <path id="Path_9845" data-name="Path 9845" d="M265.272,70.034a3.249,3.249,0,0,0,2.6,5.106.016.016,0,0,1,.017.016c.014.315.023.631.044.946.063.945.131,1.889.2,2.833a1.11,1.11,0,0,0,.359.782c.515.474,1.018.96,1.526,1.441a.768.768,0,0,1,.239.748.593.593,0,0,1-.519.447,2.2,2.2,0,0,1-.448.049q-6.186,0-12.372,0a2.192,2.192,0,0,1-.448-.047.6.6,0,0,1-.526-.441.76.76,0,0,1,.233-.751c.445-.422.881-.856,1.348-1.253a1.648,1.648,0,0,0,.571-1.274c.064-1.468.174-2.934.206-4.4a4.814,4.814,0,0,1,3.635-4.568c.117-.029.139-.081.139-.188a4.18,4.18,0,0,1,.029-.72.859.859,0,0,1,.82-.7c.118,0,.237,0,.355,0a.876.876,0,0,1,.843.888c0,.178.006.356,0,.533,0,.11.031.154.142.187.335.1.664.222,1.006.339A.017.017,0,0,1,265.272,70.034Zm-2.6.072a.017.017,0,0,1-.013.017l-.451.1a4.165,4.165,0,0,0-3.257,3.561c-.078.655-.059,1.322-.1,1.982-.061,1.08-.131,2.159-.2,3.238a1.581,1.581,0,0,1-.509,1.129c-.5.453-1.585,1.531-1.648,1.6a.016.016,0,0,0,.011.027c.162.009,13.065.018,13.108.014s.115.009.073-.045c0,0-1.272-1.252-1.812-1.778a.96.96,0,0,1-.294-.579c-.055-.448-.121-.9-.155-1.345-.051-.676-.075-1.355-.116-2.032a.411.411,0,0,0-.319-.371,3.817,3.817,0,0,1-2.867-4.327c.055-.315.155-.622.241-.957a.018.018,0,0,0-.012-.021,2.773,2.773,0,0,0-.831-.2.016.016,0,0,1-.013-.017c0-.358,0-.708,0-1.059,0-.276-.095-.373-.364-.375h-.081c-.305,0-.395.089-.4.393C262.673,69.406,262.673,69.751,262.673,70.106Z" transform="translate(-255.917 -68.056)" fill="#1cb5b5" stroke="rgba(0,0,0,0)" stroke-width="1"/>
  </g>
</svg>
