<svg id="speedex" xmlns="http://www.w3.org/2000/svg" xmlns:xlink="http://www.w3.org/1999/xlink" width="136.648" height="26.443" viewBox="0 0 136.648 26.443">
  <defs>
    <clipPath id="clip-path">
      <rect id="Rectangle_17400" data-name="Rectangle 17400" width="136.648" height="26.443" fill="none"/>
    </clipPath>
  </defs>
  <g id="Group_17173" data-name="Group 17173" transform="translate(0 0)" clip-path="url(#clip-path)">
    <path id="Path_56057" data-name="Path 56057" d="M14.59,1.27V6.521s-5.515-1.993-6.008.808a1.45,1.45,0,0,0,.555,1.363s1.616.959,2.474,1.414,3.231,1.464,3.686,4.19-.959,3.989-1.262,4.7S9.794,22.828.856,21.515V16.265s4.436,1.106,5.454-.454a1.233,1.233,0,0,0-.5-1.818,11.056,11.056,0,0,0-2.373-1.666c-.959-.454-5.021-3.315-2.12-8.28C3.936-.447,14.59,1.27,14.59,1.27" transform="translate(0.035 0.116)" fill="#002c64" fill-rule="evenodd"/>
    <path id="Path_56058" data-name="Path 56058" d="M14.59,1.27V6.521s-5.515-1.993-6.008.808a1.45,1.45,0,0,0,.555,1.363s1.616.959,2.474,1.414,3.231,1.464,3.686,4.19-.959,3.989-1.262,4.7S9.794,22.828.856,21.515V16.265s4.436,1.106,5.454-.454a1.233,1.233,0,0,0-.5-1.818,11.056,11.056,0,0,0-2.373-1.666c-.959-.454-5.021-3.315-2.12-8.28C3.936-.447,14.59,1.27,14.59,1.27Z" transform="translate(0.035 0.116)" fill="none" stroke="#fff" stroke-width="0.567"/>
    <path id="Path_56059" data-name="Path 56059" d="M28.638,13.618c0,1.534-1.729,2.777-3.862,2.777s-3.863-1.243-3.863-2.777,1.729-2.778,3.863-2.778,3.862,1.243,3.862,2.778M14,25.382h6.866v-5.5s3.029,2.019,7.876.707c7.1-1.925,6.665-6.967,6.665-6.967A6.852,6.852,0,0,0,30.053,6.7C23.361,4.823,20.61,7.863,20.61,7.863V6.448H13.845Z" transform="translate(1.688 0.743)" fill="#002c64" fill-rule="evenodd"/>
    <path id="Path_56060" data-name="Path 56060" d="M28.638,13.618c0,1.534-1.729,2.777-3.862,2.777s-3.863-1.243-3.863-2.777,1.729-2.778,3.863-2.778S28.638,12.084,28.638,13.618ZM14,25.382h6.866v-5.5s3.029,2.019,7.876.707c7.1-1.925,6.665-6.967,6.665-6.967A6.852,6.852,0,0,0,30.053,6.7C23.361,4.823,20.61,7.863,20.61,7.863V6.448H13.845Z" transform="translate(1.688 0.743)" fill="none" stroke="#fff" stroke-width="0.567"/>
    <path id="Path_56061" data-name="Path 56061" d="M71.777,13.068c0-1.534,1.73-2.777,3.863-2.777S79.5,11.534,79.5,13.068s-1.73,2.777-3.863,2.777-3.863-1.243-3.863-2.777M86.6.747H79.476l.077,6.061S76.524,4.787,71.676,6.1c-7.1,1.925-6.663,6.967-6.663,6.967a6.849,6.849,0,0,0,5.351,6.917c6.69,1.878,9.442-1.161,9.442-1.161v1.414h6.765Z" transform="translate(7.927 0.092)" fill="#002c64" fill-rule="evenodd"/>
    <path id="Path_56062" data-name="Path 56062" d="M71.777,13.068c0-1.534,1.73-2.777,3.863-2.777S79.5,11.534,79.5,13.068s-1.73,2.777-3.863,2.777S71.777,14.6,71.777,13.068ZM86.6.747H79.476l.077,6.061S76.524,4.787,71.676,6.1c-7.1,1.925-6.663,6.967-6.663,6.967a6.849,6.849,0,0,0,5.351,6.917c6.69,1.878,9.442-1.161,9.442-1.161v1.414h6.765Z" transform="translate(7.927 0.092)" fill="none" stroke="#fff" stroke-width="0.567"/>
    <path id="Path_56063" data-name="Path 56063" d="M42.464,16.026s3.585,1.565,8.583-1.919v5A19.392,19.392,0,0,1,39.485,20.52c-7.22-1.414-6.917-7.068-6.917-7.068S31.81,8.5,39.586,6.333,52.46,9.261,52.107,10.422ZM39.334,13.5l5.4-2.928a3.645,3.645,0,0,0-4.241-.2c-2.322,1.262-1.161,3.13-1.161,3.13" transform="translate(3.969 0.708)" fill="#002c64" fill-rule="evenodd"/>
    <path id="Path_56064" data-name="Path 56064" d="M42.464,16.026s3.585,1.565,8.583-1.919v5A19.392,19.392,0,0,1,39.485,20.52c-7.22-1.414-6.917-7.068-6.917-7.068S31.81,8.5,39.586,6.333,52.46,9.261,52.107,10.422ZM39.334,13.5l5.4-2.928a3.645,3.645,0,0,0-4.241-.2C38.172,11.634,39.334,13.5,39.334,13.5Z" transform="translate(3.969 0.708)" fill="none" stroke="#fff" stroke-width="0.567"/>
    <path id="Path_56065" data-name="Path 56065" d="M58.8,16.026s3.585,1.565,8.584-1.919v5A19.4,19.4,0,0,1,55.818,20.52C48.6,19.106,48.9,13.452,48.9,13.452S48.143,8.5,55.919,6.333,68.794,9.261,68.44,10.422ZM55.667,13.5l5.4-2.928a3.645,3.645,0,0,0-4.241-.2c-2.322,1.262-1.161,3.13-1.161,3.13" transform="translate(5.961 0.708)" fill="#002c64" fill-rule="evenodd"/>
    <path id="Path_56066" data-name="Path 56066" d="M58.8,16.026s3.585,1.565,8.584-1.919v5A19.4,19.4,0,0,1,55.818,20.52C48.6,19.106,48.9,13.452,48.9,13.452S48.143,8.5,55.919,6.333,68.794,9.261,68.44,10.422ZM55.667,13.5l5.4-2.928a3.645,3.645,0,0,0-4.241-.2C54.505,11.634,55.667,13.5,55.667,13.5Z" transform="translate(5.961 0.708)" fill="none" stroke="#fff" stroke-width="0.567"/>
    <path id="Path_56067" data-name="Path 56067" d="M97.891.56h3.458l8.225,9.22-7.648,10.531H98.572l1.729-4.506-9.9-.157L90.137,5.223,99.2,4.647Z" transform="translate(10.992 0.069)" fill="#002c64" fill-rule="evenodd"/>
    <path id="Path_56068" data-name="Path 56068" d="M98.916.576h9.167l3.511,4.033L115.051,0h8.7L116.2,9.691l8.383,9.85h-8.7l-4.035-4.506-3.929,5.344H99.543l7.7-10.163Z" transform="translate(12.062 0)" fill="#008a52" fill-rule="evenodd"/>
    <path id="Path_56069" data-name="Path 56069" d="M84.254.717V20.311H100.7l1.781-5.344H92.426v-1.99h5.658V7.737H92.269V5.747h9.011L99.866.56Z" transform="translate(10.274 0.069)" fill="#008a52" fill-rule="evenodd"/>
  </g>
</svg>
