<svg id="tcs" xmlns="http://www.w3.org/2000/svg" xmlns:xlink="http://www.w3.org/1999/xlink" width="87.8" height="34.54" viewBox="0 0 87.8 34.54">
  <defs>
    <clipPath id="clip-path">
      <rect id="Rectangle_17395" data-name="Rectangle 17395" width="87.8" height="34.539" fill="none"/>
    </clipPath>
  </defs>
  <g id="Group_17165" data-name="Group 17165" transform="translate(0 0)" clip-path="url(#clip-path)">
    <path id="Path_56047" data-name="Path 56047" d="M4.281,0H17.471s1.03-.177,2.452,2.571L26.675,14.55s.867,1.555,2.093,1.677h3.556L28.086,21.88H25.768s-1.882.02-3.333-2.867L15.611,6.708a1.947,1.947,0,0,0-1.924-.988H0Z" transform="translate(0 0)" fill="#e50019" fill-rule="evenodd"/>
    <path id="Path_56048" data-name="Path 56048" d="M27.182,24.187h6.763l7.988,14.155a3.682,3.682,0,0,0,2.575,2h2.36L43.03,45.469H40.559a3.131,3.131,0,0,1-2.674-2.009Z" transform="translate(-19.567 -17.411)" fill="#e50019" fill-rule="evenodd"/>
    <path id="Path_56049" data-name="Path 56049" d="M0,24.069H6.521L18.189,45.021a2.358,2.358,0,0,0,1.823,1.323h2.732l-4.092,5.472h-2.32s-1.093,0-2.054-1.88Z" transform="translate(0 -17.326)" fill="#e50019" fill-rule="evenodd"/>
    <path id="Path_56050" data-name="Path 56050" d="M175.275,57.922H161.066A3.485,3.485,0,0,0,158.31,59.4l-11.1,14.841s-1.672,1.948,1.305,1.948H161.63l4.21-5.6H159.8s-1.262.129-.468-.932l4.233-5.685s.375-.394,1.662-.394h5.83Z" transform="translate(-105.636 -41.695)" fill="#e50019" fill-rule="evenodd"/>
    <path id="Path_56051" data-name="Path 56051" d="M225.951,63.543l.333-.458h-1.732s-.271-.057-.654.467c0,0-.705.9,0,.9h5.756s1.754-.063.763,1.258l-6.9,9.223a3.081,3.081,0,0,1-2.808,1.239h-10.76s-2.07-.172-1.267-1.4l3.175-4.249h6.779l-.474.7h1.822s.17.047.55-.481c0,0,.959-1.137.309-1.167h-6.433s-1.481-.245-.822-1.474l7.127-9.4a1.93,1.93,0,0,1,1.653-.864h11.7s2.268-.055,1.08,1.556l-3.109,4.143Z" transform="translate(-150.09 -41.638)" fill="#e50019" fill-rule="evenodd"/>
    <path id="Path_56052" data-name="Path 56052" d="M99.194,57.923l-4.239,5.654h5.194l-9.422,12.6H98.7l9.422-12.6h5.214l4.226-5.653Z" transform="translate(-65.31 -41.696)" fill="#e50019" fill-rule="evenodd"/>
    <path id="Path_56053" data-name="Path 56053" d="M299.906,40.831a1.653,1.653,0,0,0-.5,1.213,1.673,1.673,0,0,0,.5,1.221,1.724,1.724,0,1,0,0-2.435m2.634,2.628a2,2,0,0,1-3.414-1.414,1.992,1.992,0,0,1,2-1.987,1.941,1.941,0,0,1,1.418.581,1.907,1.907,0,0,1,.586,1.406,1.927,1.927,0,0,1-.586,1.414M301.5,41.29a1,1,0,0,0-.466-.081h-.33V42h.349a1.045,1.045,0,0,0,.368-.049.336.336,0,0,0,.226-.342.333.333,0,0,0-.147-.32m-.414-.345a1.689,1.689,0,0,1,.6.079.542.542,0,0,1,.341.554.476.476,0,0,1-.215.432.845.845,0,0,1-.319.106.535.535,0,0,1,.379.214.6.6,0,0,1,.12.339v.16c0,.051,0,.105.005.163a.354.354,0,0,0,.019.114l.014.027h-.363l-.005-.022c0-.007,0-.015-.006-.025l-.008-.07v-.174a.536.536,0,0,0-.207-.5.932.932,0,0,0-.431-.071H300.7v.863h-.387V40.946Z" transform="translate(-215.327 -28.836)" fill="#e50019" fill-rule="evenodd"/>
  </g>
</svg>
