<svg xmlns="http://www.w3.org/2000/svg" xmlns:xlink="http://www.w3.org/1999/xlink" width="96.008" height="115.436" viewBox="0 0 96.008 115.436">
  <defs>
    <linearGradient id="linear-gradient" y1="0.5" x2="1" y2="0.5" gradientUnits="objectBoundingBox">
      <stop offset="0" stop-color="#72c9c5"/>
      <stop offset="0.438" stop-color="#65b9b5"/>
      <stop offset="0.698" stop-color="#5caeaa"/>
      <stop offset="0.771" stop-color="#58a7a3"/>
      <stop offset="0.876" stop-color="#4f9590"/>
      <stop offset="0.996" stop-color="#407873"/>
    </linearGradient>
    <linearGradient id="linear-gradient-2" x1="-0.18" y1="-0.235" x2="0.918" y2="1.161" gradientUnits="objectBoundingBox">
      <stop offset="0" stop-color="#72c9c5"/>
      <stop offset="0.278" stop-color="#65b9b5"/>
      <stop offset="0.443" stop-color="#5caeaa"/>
      <stop offset="0.996" stop-color="#407873"/>
    </linearGradient>
    <linearGradient id="linear-gradient-3" x1="-28.435" y1="-125.685" x2="-29.43" y2="-125.833" xlink:href="#linear-gradient-2"/>
    <linearGradient id="linear-gradient-4" x1="-0.18" y1="0.99" x2="0.987" y2="0.153" gradientUnits="objectBoundingBox">
      <stop offset="0" stop-color="#72c9c5"/>
      <stop offset="0.438" stop-color="#65b9b5"/>
      <stop offset="0.698" stop-color="#5caeaa"/>
      <stop offset="0.771" stop-color="#59a8a4"/>
      <stop offset="0.868" stop-color="#509793"/>
      <stop offset="0.978" stop-color="#427d78"/>
      <stop offset="0.996" stop-color="#407873"/>
    </linearGradient>
    <linearGradient id="linear-gradient-5" y1="0.5" x2="1" y2="0.5" gradientUnits="objectBoundingBox">
      <stop offset="0" stop-color="#72c9c5"/>
      <stop offset="0.326" stop-color="#65b9b5"/>
      <stop offset="0.519" stop-color="#5caeaa"/>
      <stop offset="0.637" stop-color="#59a8a4"/>
      <stop offset="0.784" stop-color="#519995"/>
      <stop offset="0.946" stop-color="#44817c"/>
      <stop offset="0.996" stop-color="#407873"/>
    </linearGradient>
  </defs>
  <g id="zstore" transform="translate(-145.233 -31.897)">
    <g id="Group_6631" data-name="Group 6631" transform="translate(145.234 31.897)">
      <g id="Group_6630" data-name="Group 6630" transform="translate(0 0)">
        <circle id="Ellipse_65" data-name="Ellipse 65" cx="48.004" cy="48.004" r="48.004" transform="translate(0)"/>
      </g>
      <g id="logo" transform="translate(22.995 21.779)">
        <path id="Path_163" data-name="Path 163" d="M511,2212.376l-8.687,7.565H464.423a7.566,7.566,0,0,1,7.566-7.565Z" transform="translate(-462.752 -2212.376)" fill="url(#linear-gradient)"/>
        <path id="Path_164" data-name="Path 164" d="M555.071,2304.4H543.622l-15.29-13.487,6.068-5.128Z" transform="translate(-504.077 -2259.846)" fill="url(#linear-gradient-2)"/>
        <path id="Path_165" data-name="Path 165" d="M469.8,2338.467h42.7a7.1,7.1,0,0,1-7.1,7.1h-42.9Z" transform="translate(-461.505 -2293.91)" fill="url(#linear-gradient-3)"/>
        <path id="Path_166" data-name="Path 166" d="M507.92,2212.376h0a13.027,13.027,0,0,1-3.929,14.129l-36,30.427-7.305,7.1-.356-.994a10.812,10.812,0,0,1,3.066-11.795Z" transform="translate(-459.694 -2212.376)" fill="url(#linear-gradient-4)"/>
        <path id="Path_167" data-name="Path 167" d="M475.143,2239.485l7.013,6.647-6,5.182-11.733-11.83Z" transform="translate(-462.752 -2229.906)" fill="url(#linear-gradient-5)"/>
      </g>
    </g>
    <g id="Group_2560" data-name="Group 2560" transform="translate(157.234 132.016)">
      <text id="Mobile_banking_like" data-name="Mobile banking like" transform="translate(3 11.317)" fill="#fff7f7" font-size="9" font-family="Montserrat" font-weight="700" letter-spacing="0.11em"><tspan x="-3.019" y="0">Z</tspan></text>
      <text id="Mobile_banking_like-2" data-name="Mobile banking like" transform="translate(14.327 10.317)" fill="#fff7f7" font-size="7" font-family="Montserrat" font-weight="700" letter-spacing="0.11em"><tspan x="-1.351" y="0">-</tspan></text>
      <text id="Mobile_banking_like-3" data-name="Mobile banking like" transform="translate(48.283 12.317)" fill="#fff7f7" font-size="12" font-family="Montserrat" font-weight="700" letter-spacing="0.11em"><tspan x="-23.556" y="0">STORE</tspan></text>
    </g>
  </g>
</svg>
