<svg xmlns="http://www.w3.org/2000/svg" width="38.792" height="36.828" viewBox="0 0 38.792 36.828">
  <g id="image" transform="translate(-1946.025 -1144.897) rotate(-25)">
    <path id="Path_56072" data-name="Path 56072" d="M1289.549,1898.133c-4.4,0-8.805-.033-13.207.019-1.408.017-1.953-.469-1.943-1.922q.075-11.321,0-22.642c-.007-1.347.451-1.862,1.825-1.857q13.443.057,26.886,0c1.267,0,1.774.436,1.767,1.744q-.057,11.478,0,22.957c.007,1.343-.585,1.725-1.81,1.716-4.507-.032-9.015-.013-13.521-.013ZM1276.108,1896h27.057v-22.505h-27.057Z" transform="translate(0 0)" fill="#f8d7f9"/>
    <path id="Path_56073" data-name="Path 56073" d="M1296.334,1906.919c1.194-.816,2.349-1.525,3.408-2.357a1.933,1.933,0,0,1,2.429-.139c1.861,1.042,3.766,2.006,5.653,3v7.483h-25.286c0-2.468-.033-4.963.036-7.455.01-.373.44-.8.776-1.088,2.041-1.723,4.133-3.386,6.162-5.123a1.318,1.318,0,0,1,2.222.21C1293.212,1903.277,1294.755,1905.049,1296.334,1906.919Z" transform="translate(-5.574 -19.877)" fill="#f8d7f9"/>
    <path id="Path_56074" data-name="Path 56074" d="M1341.777,1884.461a2.144,2.144,0,0,1-2.174,2.2,2.176,2.176,0,0,1-2.221-2.164,2.253,2.253,0,0,1,2.189-2.228A2.216,2.216,0,0,1,1341.777,1884.461Z" transform="translate(-43.173 -7.221)" fill="#e8d9e9"/>
  </g>
</svg>
