<svg xmlns="http://www.w3.org/2000/svg" width="14.908" height="16.982" viewBox="0 0 14.908 16.982">
  <g id="location" style="isolation: isolate">
    <path id="Path_301" data-name="Path 301" d="M1583.892,1308.528c-.252-.021-.5-.044-.756-.064a13.945,13.945,0,0,1-3.45-.667,5.172,5.172,0,0,1-1.809-.973,1.853,1.853,0,0,1-.573-.855,1.53,1.53,0,0,1,.464-1.6,4.344,4.344,0,0,1,1.576-.949,12.01,12.01,0,0,1,2.378-.629c.036-.006.072-.018.121-.031-.03-.053-.052-.1-.077-.136-.571-.892-1.153-1.778-1.712-2.678a5.464,5.464,0,1,1,9.981-4,5.3,5.3,0,0,1-.712,4c-.561.9-1.141,1.785-1.711,2.677-.026.04-.047.083-.078.137.331.068.65.125.965.2a8.007,8.007,0,0,1,2.568.976,2.241,2.241,0,0,1,.987,1.121,1.449,1.449,0,0,1-.221,1.393,3.147,3.147,0,0,1-1.2.943,9.624,9.624,0,0,1-3,.891c-.671.1-1.349.142-2.024.211-.054.005-.108.018-.162.027Zm.792-3.166c.048-.072.082-.121.114-.171,1.19-1.865,2.375-3.733,3.572-5.594a4.365,4.365,0,0,0,.289-4.572,4.224,4.224,0,0,0-3.516-2.431,4.294,4.294,0,0,0-4.072,1.829,4.488,4.488,0,0,0-.18,5l2.533,3.959C1583.841,1304.036,1584.255,1304.687,1584.685,1305.362Zm0,2.2c.622-.04,1.245-.067,1.865-.122a11.246,11.246,0,0,0,3.152-.7,3.132,3.132,0,0,0,1.255-.775.539.539,0,0,0,0-.822,2.6,2.6,0,0,0-.859-.607,10.071,10.071,0,0,0-3.086-.821.188.188,0,0,0-.135.083c-.125.182-.24.37-.359.556q-.684,1.074-1.368,2.15a.517.517,0,0,1-.552.278.553.553,0,0,1-.378-.294q-.843-1.327-1.687-2.652c-.058-.092-.108-.143-.234-.115-.231.051-.469.07-.7.113a7.9,7.9,0,0,0-2.519.818,3.183,3.183,0,0,0-.674.524.5.5,0,0,0,0,.766,2.052,2.052,0,0,0,.355.32,5.594,5.594,0,0,0,1.719.751A16.691,16.691,0,0,0,1584.682,1307.558Z" transform="translate(-1577.234 -1291.545)" fill="#1cb5b5"/>
    <path id="Path_302" data-name="Path 302" d="M1702.181,1367.293a2.485,2.485,0,1,1-2.492-2.481A2.493,2.493,0,0,1,1702.181,1367.293Zm-.995,0a1.49,1.49,0,1,0-1.483,1.492A1.5,1.5,0,0,0,1701.186,1367.294Z" transform="translate(-1692.243 -1361.777)" fill="#1cb5b5"/>
  </g>
</svg>
