<svg xmlns="http://www.w3.org/2000/svg" width="10.25" height="13.667" viewBox="0 0 10.25 13.667">
  <g id="lock" transform="translate(-48 -331.5)">
    <path id="Vector" d="M8.969,8.542H1.281A1.283,1.283,0,0,1,0,7.26V1.281A1.283,1.283,0,0,1,1.281,0H8.969A1.283,1.283,0,0,1,10.25,1.281V7.26A1.283,1.283,0,0,1,8.969,8.542ZM1.281.854a.428.428,0,0,0-.427.427V7.26a.428.428,0,0,0,.427.427H8.969A.428.428,0,0,0,9.4,7.26V1.281A.428.428,0,0,0,8.969.854Z" transform="translate(48 336.625)" fill="#1cb5b5"/>
    <path id="Vector-2" data-name="Vector" d="M6.406,5.979a.427.427,0,0,1-.427-.427V3.417a2.563,2.563,0,0,0-5.125,0V5.552a.427.427,0,0,1-.854,0V3.417a3.417,3.417,0,0,1,6.833,0V5.552A.427.427,0,0,1,6.406,5.979Z" transform="translate(49.708 331.5)" fill="#1cb5b5"/>
  </g>
</svg>
