<svg xmlns="http://www.w3.org/2000/svg" width="14.533" height="16.994" viewBox="0 0 14.533 16.994">
  <g id="my_account" transform="translate(-5.568 -4.141)">
    <g id="Group_17756" data-name="Group 17756" transform="translate(6.068 4.64)">
      <path id="Path_57934" data-name="Path 57934" d="M1469.934,1063.1a12.836,12.836,0,0,1-4.495-.775,4.354,4.354,0,0,1-1.688-1.069,1.846,1.846,0,0,1-.516-1.343,6.7,6.7,0,0,1,1.952-4.645.615.615,0,1,1,.877.859,5.472,5.472,0,0,0-1.537,3.072c-.033.221-.037.446-.061.669a.752.752,0,0,0,.282.661,3.688,3.688,0,0,0,1.3.722,12.157,12.157,0,0,0,4.656.6,10.244,10.244,0,0,0,3.252-.6,7.021,7.021,0,0,0,1.122-.575.941.941,0,0,0,.459-.961,5.576,5.576,0,0,0-1.579-3.556.686.686,0,0,1-.247-.576.614.614,0,0,1,1.057-.357,6.673,6.673,0,0,1,1.73,2.9,7.091,7.091,0,0,1,.27,1.779,1.9,1.9,0,0,1-.659,1.5,5.156,5.156,0,0,1-1.971,1.08A13.6,13.6,0,0,1,1469.934,1063.1Z" transform="translate(-1463.234 -1047.101)" fill="#1cb5b5" stroke="rgba(0,0,0,0)" stroke-width="1"/>
      <path id="Path_57935" data-name="Path 57935" d="M1511.253,904.8a4.3,4.3,0,1,1,4.32,4.306A4.31,4.31,0,0,1,1511.253,904.8Zm1.23-.013a3.075,3.075,0,1,0,3.06-3.061A3.078,3.078,0,0,0,1512.483,904.791Z" transform="translate(-1508.792 -900.5)" fill="#1cb5b5" stroke="rgba(0,0,0,0)" stroke-width="1"/>
    </g>
  </g>
</svg>
