<svg xmlns="http://www.w3.org/2000/svg" xmlns:xlink="http://www.w3.org/1999/xlink" width="35.813" height="35.845" viewBox="0 0 35.813 35.845">
  <defs>
    <linearGradient id="linear-gradient" x1="0.116" y1="1.229" x2="0.761" y2="0.003" gradientUnits="objectBoundingBox">
      <stop offset="0" stop-color="#fff5a8"/>
      <stop offset="0.312" stop-color="#bd8100"/>
      <stop offset="0.389" stop-color="#ca9822"/>
      <stop offset="0.561" stop-color="#e6ca69"/>
      <stop offset="0.685" stop-color="#f8e996"/>
      <stop offset="0.747" stop-color="#fff5a8"/>
      <stop offset="0.994" stop-color="#fbc01b"/>
    </linearGradient>
    <radialGradient id="radial-gradient" cx="0.5" cy="0.5" r="0.5" gradientTransform="matrix(0.969, 0.248, -0.248, 0.969, -0.083, -0.077)" gradientUnits="objectBoundingBox">
      <stop offset="0.956" stop-color="#fff" stop-opacity="0"/>
      <stop offset="0.976" stop-color="#a48175" stop-opacity="0.541"/>
      <stop offset="0.991" stop-color="#6c331f" stop-opacity="0.875"/>
      <stop offset="1" stop-color="#571600"/>
    </radialGradient>
    <linearGradient id="linear-gradient-2" x1="0.116" y1="1.229" x2="0.761" y2="0.003" gradientUnits="objectBoundingBox">
      <stop offset="0" stop-color="#fff5a8"/>
      <stop offset="0.312" stop-color="#bd8100"/>
      <stop offset="0.389" stop-color="#ca9822"/>
      <stop offset="0.994" stop-color="#fbc01b"/>
      <stop offset="1" stop-color="#fbc01b"/>
    </linearGradient>
    <linearGradient id="linear-gradient-3" x1="0.168" y1="1.03" x2="0.812" y2="0.002" gradientUnits="objectBoundingBox">
      <stop offset="0" stop-color="#8a0000"/>
      <stop offset="0.341" stop-color="#ac0a0c"/>
      <stop offset="1" stop-color="#ed1c24"/>
    </linearGradient>
    <radialGradient id="radial-gradient-2" cx="0.5" cy="0.5" r="0.5" gradientTransform="translate(0.001 -0.001) rotate(0.11)" gradientUnits="objectBoundingBox">
      <stop offset="0.9" stop-color="#fff" stop-opacity="0"/>
      <stop offset="1" stop-color="#321e03"/>
    </radialGradient>
    <radialGradient id="radial-gradient-3" cx="4.526" cy="-0.526" r="3.561" gradientTransform="translate(0.028) scale(0.944 1)" gradientUnits="objectBoundingBox">
      <stop offset="0" stop-color="#fff5a8"/>
      <stop offset="0.723" stop-color="#fff5a8"/>
    </radialGradient>
    <radialGradient id="radial-gradient-4" cx="3.812" cy="0.281" r="3.302" gradientTransform="translate(-0.001)" xlink:href="#radial-gradient-3"/>
    <radialGradient id="radial-gradient-5" cx="3.804" cy="0.827" r="3.705" gradientTransform="translate(-0.058) scale(1.116 1)" xlink:href="#radial-gradient-3"/>
    <radialGradient id="radial-gradient-6" cx="3.307" cy="1.307" r="3.524" gradientTransform="translate(-0.156) scale(1.313 1)" xlink:href="#radial-gradient-3"/>
    <radialGradient id="radial-gradient-7" cx="1.137" cy="1.689" r="3.889" gradientTransform="translate(0)" xlink:href="#radial-gradient-3"/>
    <radialGradient id="radial-gradient-8" cx="-0.154" cy="1.6" r="3.698" gradientTransform="translate(-0.063) scale(1.125 1)" xlink:href="#radial-gradient-3"/>
    <radialGradient id="radial-gradient-9" cx="-1.241" cy="1.225" r="3.507" gradientTransform="translate(-0.137) scale(1.274 1)" xlink:href="#radial-gradient-3"/>
    <radialGradient id="radial-gradient-10" cx="-3.1" cy="0.847" r="3.244" gradientTransform="translate(-0.371) scale(1.741 1)" xlink:href="#radial-gradient-3"/>
    <radialGradient id="radial-gradient-11" cx="-3.918" cy="0.519" r="4.301" gradientTransform="translate(-0.108) scale(1.216 1)" xlink:href="#radial-gradient-3"/>
    <radialGradient id="radial-gradient-12" cx="-3.298" cy="0.123" r="3.689" gradientTransform="translate(0)" xlink:href="#radial-gradient-3"/>
    <radialGradient id="radial-gradient-13" cx="-3.655" cy="-0.686" r="3.882" gradientTransform="translate(0.054) scale(0.891 1)" xlink:href="#radial-gradient-3"/>
    <radialGradient id="radial-gradient-14" cx="4.865" cy="1.258" r="3.144" gradientTransform="translate(-0.073) scale(1.146 1)" xlink:href="#radial-gradient-3"/>
    <radialGradient id="radial-gradient-15" cx="3.524" cy="0.713" r="3.108" gradientTransform="translate(-0.015) scale(1.029 1)" xlink:href="#radial-gradient-3"/>
    <radialGradient id="radial-gradient-16" cx="3.407" cy="0.071" r="3.172" gradientTransform="translate(-0.111) scale(1.222 1)" xlink:href="#radial-gradient-3"/>
    <radialGradient id="radial-gradient-17" cx="2.165" cy="-0.182" r="3.066" gradientTransform="translate(-0.139) scale(1.278 1)" xlink:href="#radial-gradient-3"/>
    <radialGradient id="radial-gradient-18" cx="1.011" cy="-0.464" r="3.491" gradientTransform="translate(-0.056) scale(1.113 1)" xlink:href="#radial-gradient-3"/>
    <radialGradient id="radial-gradient-19" cx="-0.227" cy="-0.337" r="3.239" gradientTransform="translate(-0.055) scale(1.11 1)" xlink:href="#radial-gradient-3"/>
    <radialGradient id="radial-gradient-20" cx="-1.513" cy="-0.047" r="3.251" gradientTransform="translate(-0.161) scale(1.321 1)" xlink:href="#radial-gradient-3"/>
    <radialGradient id="radial-gradient-21" cx="-2.065" cy="0.299" r="3.005" gradientTransform="translate(-0.054) scale(1.109 1)" xlink:href="#radial-gradient-3"/>
    <radialGradient id="radial-gradient-22" cx="-2.623" cy="0.754" r="2.994" gradientTransform="translate(-0.021) scale(1.041 1)" xlink:href="#radial-gradient-3"/>
    <radialGradient id="radial-gradient-23" cx="-3.342" cy="1.361" r="3.244" gradientTransform="translate(0.005) scale(0.991 1)" xlink:href="#radial-gradient-3"/>
    <linearGradient id="linear-gradient-4" x1="0.085" y1="2.439" x2="0.844" y2="-1.323" gradientUnits="objectBoundingBox">
      <stop offset="0" stop-color="#c9bf85"/>
      <stop offset="0.485" stop-color="#875900"/>
      <stop offset="1" stop-color="#c9bf85"/>
    </linearGradient>
  </defs>
  <g id="My_membership" transform="translate(-30.566 -358.751)">
    <g id="Group_17332" data-name="Group 17332" transform="translate(30.865 359.066)">
      <path id="Path_56481" data-name="Path 56481" d="M640.089,295.648a17.626,17.626,0,0,1-.12,2.138,17.218,17.218,0,0,1-.433,2.315c-.082.324-.173.643-.275.96v0a17.213,17.213,0,0,1-.649,1.718,17.629,17.629,0,0,1-1.978,3.407,17.609,17.609,0,0,1-26,2.547,17.687,17.687,0,0,1-2.207-2.416,17.546,17.546,0,0,1-3.415-8.371,17.609,17.609,0,1,1,35.076-2.3Z" transform="translate(-604.873 -278.104)" fill="url(#linear-gradient)"/>
      <g id="Group_17299" data-name="Group 17299" transform="translate(0.735 0.728)">
        <path id="Path_56482" data-name="Path 56482" d="M639.942,300.54a16.875,16.875,0,1,1-12-20.1A16.875,16.875,0,0,1,639.942,300.54Z" transform="translate(-606.63 -279.846)" fill="none" stroke="#707070" stroke-miterlimit="10" stroke-width="2"/>
        <path id="Path_56483" data-name="Path 56483" d="M639.942,300.54a16.875,16.875,0,1,1-12-20.1A16.875,16.875,0,0,1,639.942,300.54Z" transform="translate(-606.63 -279.846)" fill="url(#radial-gradient)" style="mix-blend-mode: multiply;isolation: isolate"/>
        <path id="Path_56484" data-name="Path 56484" d="M640.62,297.538a16.328,16.328,0,0,1-.111,1.974,15.974,15.974,0,0,1-.4,2.137c-.076.3-.16.594-.254.886v0a15.727,15.727,0,0,1-.6,1.587,16.261,16.261,0,1,1,1.364-6.586Z" transform="translate(-607.493 -280.717)" fill="url(#linear-gradient-2)"/>
        <circle id="Ellipse_877" data-name="Ellipse 877" cx="11.151" cy="11.151" r="11.151" transform="matrix(1, -0.002, 0.002, 1, 5.702, 5.75)" fill="url(#linear-gradient-3)"/>
        <circle id="Ellipse_878" data-name="Ellipse 878" cx="10.225" cy="10.225" r="10.225" transform="translate(5.869 7.498) rotate(-4.556)" fill="none" stroke="#707070" stroke-miterlimit="10" stroke-width="1"/>
        <circle id="Ellipse_879" data-name="Ellipse 879" cx="11.151" cy="11.151" r="11.151" transform="matrix(1, -0.002, 0.002, 1, 5.702, 5.75)" fill="url(#radial-gradient-2)" style="mix-blend-mode: multiply;isolation: isolate"/>
      </g>
      <g id="Group_17309" data-name="Group 17309" transform="translate(5.239 2.672)">
        <g id="Group_17303" data-name="Group 17303" transform="translate(0 0)">
          <g id="Group_17302" data-name="Group 17302">
            <g id="Group_17300" data-name="Group 17300">
              <path id="Path_56485" data-name="Path 56485" d="M619.993,298.462a.547.547,0,0,1,.239.456.786.786,0,0,1-.049.27,1.089,1.089,0,0,1-.143.267l-.683.942-1.949-1.414.757-1.043a.476.476,0,0,1,.177-.152.58.58,0,0,1,.215-.058.652.652,0,0,1,.224.027.674.674,0,0,1,.2.1.659.659,0,0,1,.216.265.535.535,0,0,1,.034.343.621.621,0,0,1,.369-.136A.63.63,0,0,1,619.993,298.462Zm-1.987.377.492.356.367-.5a.281.281,0,0,0,.053-.212.3.3,0,0,0-.133-.2.307.307,0,0,0-.223-.068.246.246,0,0,0-.176.1Zm1.639-.048a.35.35,0,0,0-.113-.054.333.333,0,0,0-.118-.013.277.277,0,0,0-.108.031.247.247,0,0,0-.086.075l-.423.582.514.372.408-.563a.308.308,0,0,0,.051-.112.283.283,0,0,0,0-.117.309.309,0,0,0-.043-.111A.316.316,0,0,0,619.645,298.792Z" transform="translate(-617.407 -292.199)" fill="#fff"/>
              <path id="Path_56486" data-name="Path 56486" d="M624.408,293.865l.282.3-1.214,1.15-1.656-1.748,1.192-1.129.282.3-.852.808.4.421.736-.7.261.275-.736.7.431.456Z" transform="translate(-619.976 -289.118)" fill="#fff"/>
              <path id="Path_56487" data-name="Path 56487" d="M628.415,289.726a.6.6,0,0,0-.108-.006,1.074,1.074,0,0,0-.172.017,1.321,1.321,0,0,0-.2.052.839.839,0,0,0-.193.094.481.481,0,0,0-.2.218.236.236,0,0,0,.03.219.2.2,0,0,0,.1.084.312.312,0,0,0,.135.015.848.848,0,0,0,.18-.037c.069-.02.147-.046.235-.077.115-.038.224-.068.323-.091a.883.883,0,0,1,.279-.02.57.57,0,0,1,.236.079.65.65,0,0,1,.2.2.692.692,0,0,1,.12.317.606.606,0,0,1-.042.293.851.851,0,0,1-.171.26,1.447,1.447,0,0,1-.261.218,1.8,1.8,0,0,1-.492.226,1.658,1.658,0,0,1-.524.068l-.048-.451a.627.627,0,0,0,.136.006,1.71,1.71,0,0,0,.212-.02,1.515,1.515,0,0,0,.247-.063,1.078,1.078,0,0,0,.245-.121c.216-.141.278-.281.188-.419a.207.207,0,0,0-.11-.087.373.373,0,0,0-.157-.01,1.134,1.134,0,0,0-.205.046l-.257.079a2.264,2.264,0,0,1-.307.078.808.808,0,0,1-.25.006.5.5,0,0,1-.2-.078.6.6,0,0,1-.167-.177.747.747,0,0,1-.122-.309.659.659,0,0,1,.027-.3.854.854,0,0,1,.155-.274,1.156,1.156,0,0,1,.26-.229,1.34,1.34,0,0,1,.435-.19,1.743,1.743,0,0,1,.416-.047Z" transform="translate(-623.038 -287.289)" fill="#fff"/>
              <path id="Path_56488" data-name="Path 56488" d="M633.762,286.318l-.713.291.756,1.85-.43.176-.756-1.849-.713.291-.155-.38,1.855-.758Z" transform="translate(-625.755 -285.336)" fill="#fff"/>
              <path id="Path_56489" data-name="Path 56489" d="M643.21,286.724a1.183,1.183,0,0,1-.276.146,1.139,1.139,0,0,1-.322.067,1.076,1.076,0,0,1-.486-.073,1.208,1.208,0,0,1-.387-.25,1.223,1.223,0,0,1-.265-.373,1.244,1.244,0,0,1-.115-.444,1.205,1.205,0,0,1,.059-.466,1.268,1.268,0,0,1,.221-.405,1.183,1.183,0,0,1,.356-.294,1.118,1.118,0,0,1,.464-.131,1.055,1.055,0,0,1,.482.075,1.178,1.178,0,0,1,.386.254,1.285,1.285,0,0,1,.263.377,1.254,1.254,0,0,1,.115.441,1.236,1.236,0,0,1-.26.846l.353.347-.44.03Zm-.622-.2a.636.636,0,0,0,.169-.033.7.7,0,0,0,.143-.069l-.393-.389.44-.029.179.175a.945.945,0,0,0,.04-.805.829.829,0,0,0-.156-.248.691.691,0,0,0-.232-.165.678.678,0,0,0-.594.042.663.663,0,0,0-.208.2.843.843,0,0,0-.116.268.969.969,0,0,0,.041.594.809.809,0,0,0,.154.248.677.677,0,0,0,.232.164A.633.633,0,0,0,642.588,286.524Z" transform="translate(-631.346 -284.497)" fill="#fff"/>
              <path id="Path_56490" data-name="Path 56490" d="M649.783,286.68a.544.544,0,0,0,.287-.026.555.555,0,0,0,.207-.148.745.745,0,0,0,.134-.232,1.447,1.447,0,0,0,.071-.283l.179-1.215.46.068-.18,1.215a1.736,1.736,0,0,1-.127.451,1.076,1.076,0,0,1-.24.349.9.9,0,0,1-.362.207,1.113,1.113,0,0,1-.487.024,1.1,1.1,0,0,1-.47-.171.913.913,0,0,1-.285-.31,1.052,1.052,0,0,1-.124-.4,1.8,1.8,0,0,1,.011-.455l.18-1.214.463.068-.18,1.215a1.469,1.469,0,0,0-.014.295.744.744,0,0,0,.061.261.538.538,0,0,0,.154.2A.531.531,0,0,0,649.783,286.68Z" transform="translate(-635.7 -284.52)" fill="#fff"/>
              <path id="Path_56491" data-name="Path 56491" d="M655.966,286.428l.391.134.084,2.575-.456-.156-.017-.64-.8-.273-.4.5-.456-.157ZM656,288l-.007-1-.634.783Z" transform="translate(-638.888 -285.621)" fill="#fff"/>
              <path id="Path_56492" data-name="Path 56492" d="M660.468,290.542l1.171-2.1.409.227-.971,1.746,1.073.6-.2.359Z" transform="translate(-642.47 -286.791)" fill="#fff"/>
              <path id="Path_56493" data-name="Path 56493" d="M665.029,293.554l1.442-1.929.375.28-1.442,1.929Z" transform="translate(-645.124 -288.646)" fill="#fff"/>
              <path id="Path_56494" data-name="Path 56494" d="M670.612,295.322l-.544-.545-1.414,1.411-.328-.329,1.414-1.412-.544-.544.29-.29,1.416,1.419Z" transform="translate(-647.043 -289.803)" fill="#fff"/>
              <path id="Path_56495" data-name="Path 56495" d="M673.817,298.81l-.636,1.137,1.3-.14.28.42-1.789.14-.7.466-.257-.387.705-.47.815-1.59Z" transform="translate(-649.19 -292.581)" fill="#fff"/>
            </g>
            <g id="Group_17301" data-name="Group 17301">
              <path id="Path_56496" data-name="Path 56496" d="M619.993,298.462a.547.547,0,0,1,.239.456.786.786,0,0,1-.049.27,1.089,1.089,0,0,1-.143.267l-.683.942-1.949-1.414.757-1.043a.476.476,0,0,1,.177-.152.58.58,0,0,1,.215-.058.652.652,0,0,1,.224.027.674.674,0,0,1,.2.1.659.659,0,0,1,.216.265.535.535,0,0,1,.034.343.621.621,0,0,1,.369-.136A.63.63,0,0,1,619.993,298.462Zm-1.987.377.492.356.367-.5a.281.281,0,0,0,.053-.212.3.3,0,0,0-.133-.2.307.307,0,0,0-.223-.068.246.246,0,0,0-.176.1Zm1.639-.048a.35.35,0,0,0-.113-.054.333.333,0,0,0-.118-.013.277.277,0,0,0-.108.031.247.247,0,0,0-.086.075l-.423.582.514.372.408-.563a.308.308,0,0,0,.051-.112.283.283,0,0,0,0-.117.309.309,0,0,0-.043-.111A.316.316,0,0,0,619.645,298.792Z" transform="translate(-617.407 -292.199)" fill="url(#radial-gradient-3)"/>
              <path id="Path_56497" data-name="Path 56497" d="M624.408,293.865l.282.3-1.214,1.15-1.656-1.748,1.192-1.129.282.3-.852.808.4.421.736-.7.261.275-.736.7.431.456Z" transform="translate(-619.976 -289.118)" fill="url(#radial-gradient-4)"/>
              <path id="Path_56498" data-name="Path 56498" d="M628.415,289.726a.6.6,0,0,0-.108-.006,1.074,1.074,0,0,0-.172.017,1.321,1.321,0,0,0-.2.052.839.839,0,0,0-.193.094.481.481,0,0,0-.2.218.236.236,0,0,0,.03.219.2.2,0,0,0,.1.084.312.312,0,0,0,.135.015.848.848,0,0,0,.18-.037c.069-.02.147-.046.235-.077.115-.038.224-.068.323-.091a.883.883,0,0,1,.279-.02.57.57,0,0,1,.236.079.65.65,0,0,1,.2.2.692.692,0,0,1,.12.317.606.606,0,0,1-.042.293.851.851,0,0,1-.171.26,1.447,1.447,0,0,1-.261.218,1.8,1.8,0,0,1-.492.226,1.658,1.658,0,0,1-.524.068l-.048-.451a.627.627,0,0,0,.136.006,1.71,1.71,0,0,0,.212-.02,1.515,1.515,0,0,0,.247-.063,1.078,1.078,0,0,0,.245-.121c.216-.141.278-.281.188-.419a.207.207,0,0,0-.11-.087.373.373,0,0,0-.157-.01,1.134,1.134,0,0,0-.205.046l-.257.079a2.264,2.264,0,0,1-.307.078.808.808,0,0,1-.25.006.5.5,0,0,1-.2-.078.6.6,0,0,1-.167-.177.747.747,0,0,1-.122-.309.659.659,0,0,1,.027-.3.854.854,0,0,1,.155-.274,1.156,1.156,0,0,1,.26-.229,1.34,1.34,0,0,1,.435-.19,1.743,1.743,0,0,1,.416-.047Z" transform="translate(-623.038 -287.289)" fill="url(#radial-gradient-5)"/>
              <path id="Path_56499" data-name="Path 56499" d="M633.762,286.318l-.713.291.756,1.85-.43.176-.756-1.849-.713.291-.155-.38,1.855-.758Z" transform="translate(-625.755 -285.336)" fill="url(#radial-gradient-6)"/>
              <path id="Path_56500" data-name="Path 56500" d="M643.21,286.724a1.183,1.183,0,0,1-.276.146,1.139,1.139,0,0,1-.322.067,1.076,1.076,0,0,1-.486-.073,1.208,1.208,0,0,1-.387-.25,1.223,1.223,0,0,1-.265-.373,1.244,1.244,0,0,1-.115-.444,1.205,1.205,0,0,1,.059-.466,1.268,1.268,0,0,1,.221-.405,1.183,1.183,0,0,1,.356-.294,1.118,1.118,0,0,1,.464-.131,1.055,1.055,0,0,1,.482.075,1.178,1.178,0,0,1,.386.254,1.285,1.285,0,0,1,.263.377,1.254,1.254,0,0,1,.115.441,1.236,1.236,0,0,1-.26.846l.353.347-.44.03Zm-.622-.2a.636.636,0,0,0,.169-.033.7.7,0,0,0,.143-.069l-.393-.389.44-.029.179.175a.945.945,0,0,0,.04-.805.829.829,0,0,0-.156-.248.691.691,0,0,0-.232-.165.678.678,0,0,0-.594.042.663.663,0,0,0-.208.2.843.843,0,0,0-.116.268.969.969,0,0,0,.041.594.809.809,0,0,0,.154.248.677.677,0,0,0,.232.164A.633.633,0,0,0,642.588,286.524Z" transform="translate(-631.346 -284.497)" fill="url(#radial-gradient-7)"/>
              <path id="Path_56501" data-name="Path 56501" d="M649.783,286.68a.544.544,0,0,0,.287-.026.555.555,0,0,0,.207-.148.745.745,0,0,0,.134-.232,1.447,1.447,0,0,0,.071-.283l.179-1.215.46.068-.18,1.215a1.736,1.736,0,0,1-.127.451,1.076,1.076,0,0,1-.24.349.9.9,0,0,1-.362.207,1.113,1.113,0,0,1-.487.024,1.1,1.1,0,0,1-.47-.171.913.913,0,0,1-.285-.31,1.052,1.052,0,0,1-.124-.4,1.8,1.8,0,0,1,.011-.455l.18-1.214.463.068-.18,1.215a1.469,1.469,0,0,0-.014.295.744.744,0,0,0,.061.261.538.538,0,0,0,.154.2A.531.531,0,0,0,649.783,286.68Z" transform="translate(-635.7 -284.52)" fill="url(#radial-gradient-8)"/>
              <path id="Path_56502" data-name="Path 56502" d="M655.966,286.428l.391.134.084,2.575-.456-.156-.017-.64-.8-.273-.4.5-.456-.157ZM656,288l-.007-1-.634.783Z" transform="translate(-638.888 -285.621)" fill="url(#radial-gradient-9)"/>
              <path id="Path_56503" data-name="Path 56503" d="M660.468,290.542l1.171-2.1.409.227-.971,1.746,1.073.6-.2.359Z" transform="translate(-642.47 -286.791)" fill="url(#radial-gradient-10)"/>
              <path id="Path_56504" data-name="Path 56504" d="M665.029,293.554l1.442-1.929.375.28-1.442,1.929Z" transform="translate(-645.124 -288.646)" fill="url(#radial-gradient-11)"/>
              <path id="Path_56505" data-name="Path 56505" d="M670.612,295.322l-.544-.545-1.414,1.411-.328-.329,1.414-1.412-.544-.544.29-.29,1.416,1.419Z" transform="translate(-647.043 -289.803)" fill="url(#radial-gradient-12)"/>
              <path id="Path_56506" data-name="Path 56506" d="M673.817,298.81l-.636,1.137,1.3-.14.28.42-1.789.14-.7.466-.257-.387.705-.47.815-1.59Z" transform="translate(-649.19 -292.581)" fill="url(#radial-gradient-13)"/>
            </g>
          </g>
        </g>
        <g id="Group_17308" data-name="Group 17308" transform="translate(0.906 22.517)">
          <g id="Group_17307" data-name="Group 17307">
            <g id="Group_17306" data-name="Group 17306">
              <g id="Group_17304" data-name="Group 17304">
                <path id="Path_56507" data-name="Path 56507" d="M620.532,341.071a.918.918,0,0,1-.667-.3,1.056,1.056,0,0,1-.233-.392,1.129,1.129,0,0,1-.054-.444,1.252,1.252,0,0,1,.123-.445,1.3,1.3,0,0,1,.3-.4,1.22,1.22,0,0,1,.854-.327,1.185,1.185,0,0,1,.443.1,1.114,1.114,0,0,1,.386.276,1.128,1.128,0,0,1,.29.524.929.929,0,0,1-.035.528l-.426-.082a.654.654,0,0,0,.028-.375.7.7,0,0,0-.173-.328.609.609,0,0,0-.237-.162.662.662,0,0,0-.277-.04.838.838,0,0,0-.283.072.974.974,0,0,0-.261.173.932.932,0,0,0-.2.255.822.822,0,0,0-.087.283.7.7,0,0,0,.028.282.645.645,0,0,0,.146.251.822.822,0,0,0,.67.241l.125-.115-.328-.357.252-.232.59.641-.91.838-.263-.284Z" transform="translate(-619.576 -338.601)" fill="#fff"/>
                <path id="Path_56508" data-name="Path 56508" d="M625.451,344.572a.535.535,0,0,0,.266.11.554.554,0,0,0,.252-.035.728.728,0,0,0,.226-.144,1.448,1.448,0,0,0,.194-.217l.722-.993.376.273-.722.993a1.742,1.742,0,0,1-.321.341,1.065,1.065,0,0,1-.374.2.89.89,0,0,1-.417.016,1.1,1.1,0,0,1-.442-.2,1.111,1.111,0,0,1-.338-.369.912.912,0,0,1-.109-.407,1.069,1.069,0,0,1,.077-.415,1.819,1.819,0,0,1,.221-.4l.722-.993.378.275-.722.993a1.514,1.514,0,0,0-.15.255.739.739,0,0,0-.067.259.544.544,0,0,0,.044.248A.529.529,0,0,0,625.451,344.572Z" transform="translate(-622.595 -340.673)" fill="#fff"/>
                <path id="Path_56509" data-name="Path 56509" d="M631.289,346.645l.373.179-.221,2.567-.434-.209.059-.638-.757-.365-.46.445-.433-.209Zm-.156,1.566.112-1-.722.7Z" transform="translate(-625.303 -343.186)" fill="#fff"/>
                <path id="Path_56510" data-name="Path 56510" d="M636.212,350.666l.645-2.32,1.026.285a.686.686,0,0,1,.277.149.8.8,0,0,1,.185.242.874.874,0,0,1,.084.291.773.773,0,0,1-.022.295.8.8,0,0,1-.227.379.672.672,0,0,1-.38.181l.287,1.019-.507-.141-.258-.909-.444-.124-.216.777Zm.777-1.047.566.157a.249.249,0,0,0,.124,0,.311.311,0,0,0,.115-.054.417.417,0,0,0,.1-.1.471.471,0,0,0,.064-.14.419.419,0,0,0,.015-.158.4.4,0,0,0-.037-.139.317.317,0,0,0-.079-.107.262.262,0,0,0-.108-.06l-.546-.152Z" transform="translate(-629.258 -344.176)" fill="#fff"/>
                <path id="Path_56511" data-name="Path 56511" d="M643.387,349.88l.413.029.744,2.467-.48-.034-.181-.614-.838-.06-.262.584-.48-.033Zm.434,1.513-.265-.967-.412.92Z" transform="translate(-632.802 -345.069)" fill="#fff"/>
                <path id="Path_56512" data-name="Path 56512" d="M649.634,350.373l.231,1.526-.463.07-.359-2.381.358-.054,1.477,1.376-.236-1.56.464-.07.359,2.378-.376.057Z" transform="translate(-636.726 -344.719)" fill="#fff"/>
                <path id="Path_56513" data-name="Path 56513" d="M657.1,347.8l-.727.253.656,1.887-.439.153-.656-1.886-.727.252-.135-.388,1.894-.658Z" transform="translate(-640.233 -343.63)" fill="#fff"/>
                <path id="Path_56514" data-name="Path 56514" d="M663.065,346.779l.195.361-1.471.794-1.144-2.12,1.445-.779.194.361-1.032.557.275.511.893-.482.18.335-.892.481.3.552Z" transform="translate(-643.479 -342.249)" fill="#fff"/>
                <path id="Path_56515" data-name="Path 56515" d="M667.807,343.428l.25.326-1.325,1.02-1.469-1.908,1.3-1,.25.326-.93.716.354.459.8-.619.232.3-.8.619.383.5Z" transform="translate(-646.167 -340.403)" fill="#fff"/>
                <path id="Path_56516" data-name="Path 56516" d="M671.188,341.054l-1.794-1.606.583-.652a1.313,1.313,0,0,1,.415-.322,1.063,1.063,0,0,1,.44-.1,1.076,1.076,0,0,1,.433.088,1.447,1.447,0,0,1,.4.255,1.413,1.413,0,0,1,.314.393,1.048,1.048,0,0,1,.055.874,1.3,1.3,0,0,1-.263.423Zm.161-1.991a1.035,1.035,0,0,0-.269-.177.721.721,0,0,0-.28-.064.617.617,0,0,0-.272.059.755.755,0,0,0-.245.188l-.272.3,1.183,1.059.272-.3a.731.731,0,0,0,.159-.269.626.626,0,0,0,.024-.279.749.749,0,0,0-.1-.271A1.015,1.015,0,0,0,671.349,339.063Z" transform="translate(-648.571 -338.369)" fill="#fff"/>
              </g>
              <g id="Group_17305" data-name="Group 17305">
                <path id="Path_56517" data-name="Path 56517" d="M620.532,341.071a.918.918,0,0,1-.667-.3,1.056,1.056,0,0,1-.233-.392,1.129,1.129,0,0,1-.054-.444,1.252,1.252,0,0,1,.123-.445,1.3,1.3,0,0,1,.3-.4,1.22,1.22,0,0,1,.854-.327,1.185,1.185,0,0,1,.443.1,1.114,1.114,0,0,1,.386.276,1.128,1.128,0,0,1,.29.524.929.929,0,0,1-.035.528l-.426-.082a.654.654,0,0,0,.028-.375.7.7,0,0,0-.173-.328.609.609,0,0,0-.237-.162.662.662,0,0,0-.277-.04.838.838,0,0,0-.283.072.974.974,0,0,0-.261.173.932.932,0,0,0-.2.255.822.822,0,0,0-.087.283.7.7,0,0,0,.028.282.645.645,0,0,0,.146.251.822.822,0,0,0,.67.241l.125-.115-.328-.357.252-.232.59.641-.91.838-.263-.284Z" transform="translate(-619.576 -338.601)" fill="url(#radial-gradient-14)"/>
                <path id="Path_56518" data-name="Path 56518" d="M625.451,344.572a.535.535,0,0,0,.266.11.554.554,0,0,0,.252-.035.728.728,0,0,0,.226-.144,1.448,1.448,0,0,0,.194-.217l.722-.993.376.273-.722.993a1.742,1.742,0,0,1-.321.341,1.065,1.065,0,0,1-.374.2.89.89,0,0,1-.417.016,1.1,1.1,0,0,1-.442-.2,1.111,1.111,0,0,1-.338-.369.912.912,0,0,1-.109-.407,1.069,1.069,0,0,1,.077-.415,1.819,1.819,0,0,1,.221-.4l.722-.993.378.275-.722.993a1.514,1.514,0,0,0-.15.255.739.739,0,0,0-.067.259.544.544,0,0,0,.044.248A.529.529,0,0,0,625.451,344.572Z" transform="translate(-622.595 -340.673)" fill="url(#radial-gradient-15)"/>
                <path id="Path_56519" data-name="Path 56519" d="M631.289,346.645l.373.179-.221,2.567-.434-.209.059-.638-.757-.365-.46.445-.433-.209Zm-.156,1.566.112-1-.722.7Z" transform="translate(-625.303 -343.186)" fill="url(#radial-gradient-16)"/>
                <path id="Path_56520" data-name="Path 56520" d="M636.212,350.666l.645-2.32,1.026.285a.686.686,0,0,1,.277.149.8.8,0,0,1,.185.242.874.874,0,0,1,.084.291.773.773,0,0,1-.022.295.8.8,0,0,1-.227.379.672.672,0,0,1-.38.181l.287,1.019-.507-.141-.258-.909-.444-.124-.216.777Zm.777-1.047.566.157a.249.249,0,0,0,.124,0,.311.311,0,0,0,.115-.054.417.417,0,0,0,.1-.1.471.471,0,0,0,.064-.14.419.419,0,0,0,.015-.158.4.4,0,0,0-.037-.139.317.317,0,0,0-.079-.107.262.262,0,0,0-.108-.06l-.546-.152Z" transform="translate(-629.258 -344.176)" fill="url(#radial-gradient-17)"/>
                <path id="Path_56521" data-name="Path 56521" d="M643.387,349.88l.413.029.744,2.467-.48-.034-.181-.614-.838-.06-.262.584-.48-.033Zm.434,1.513-.265-.967-.412.92Z" transform="translate(-632.802 -345.069)" fill="url(#radial-gradient-18)"/>
                <path id="Path_56522" data-name="Path 56522" d="M649.634,350.373l.231,1.526-.463.07-.359-2.381.358-.054,1.477,1.376-.236-1.56.464-.07.359,2.378-.376.057Z" transform="translate(-636.726 -344.719)" fill="url(#radial-gradient-19)"/>
                <path id="Path_56523" data-name="Path 56523" d="M657.1,347.8l-.727.253.656,1.887-.439.153-.656-1.886-.727.252-.135-.388,1.894-.658Z" transform="translate(-640.233 -343.63)" fill="url(#radial-gradient-20)"/>
                <path id="Path_56524" data-name="Path 56524" d="M663.065,346.779l.195.361-1.471.794-1.144-2.12,1.445-.779.194.361-1.032.557.275.511.893-.482.18.335-.892.481.3.552Z" transform="translate(-643.479 -342.249)" fill="url(#radial-gradient-21)"/>
                <path id="Path_56525" data-name="Path 56525" d="M667.807,343.428l.25.326-1.325,1.02-1.469-1.908,1.3-1,.25.326-.93.716.354.459.8-.619.232.3-.8.619.383.5Z" transform="translate(-646.167 -340.403)" fill="url(#radial-gradient-22)"/>
                <path id="Path_56526" data-name="Path 56526" d="M671.188,341.054l-1.794-1.606.583-.652a1.313,1.313,0,0,1,.415-.322,1.063,1.063,0,0,1,.44-.1,1.076,1.076,0,0,1,.433.088,1.447,1.447,0,0,1,.4.255,1.413,1.413,0,0,1,.314.393,1.048,1.048,0,0,1,.055.874,1.3,1.3,0,0,1-.263.423Zm.161-1.991a1.035,1.035,0,0,0-.269-.177.721.721,0,0,0-.28-.064.617.617,0,0,0-.272.059.755.755,0,0,0-.245.188l-.272.3,1.183,1.059.272-.3a.731.731,0,0,0,.159-.269.626.626,0,0,0,.024-.279.749.749,0,0,0-.1-.271A1.015,1.015,0,0,0,671.349,339.063Z" transform="translate(-648.571 -338.369)" fill="url(#radial-gradient-23)"/>
              </g>
            </g>
          </g>
        </g>
      </g>
      <g id="Group_17319" data-name="Group 17319" transform="translate(5.239 2.755)">
        <g id="Group_17313" data-name="Group 17313">
          <g id="Group_17312" data-name="Group 17312">
            <g id="Group_17310" data-name="Group 17310">
              <path id="Path_56527" data-name="Path 56527" d="M619.993,298.661a.558.558,0,0,1,.181.206.564.564,0,0,1,.058.25.786.786,0,0,1-.049.27,1.081,1.081,0,0,1-.143.267l-.683.942-1.949-1.414.757-1.043a.477.477,0,0,1,.177-.153.574.574,0,0,1,.215-.057.644.644,0,0,1,.224.026.675.675,0,0,1,.2.1.662.662,0,0,1,.216.265.536.536,0,0,1,.034.344.621.621,0,0,1,.369-.137A.631.631,0,0,1,619.993,298.661Zm-1.987.377.492.357.367-.5a.281.281,0,0,0,.053-.211.3.3,0,0,0-.133-.2.306.306,0,0,0-.223-.068.246.246,0,0,0-.176.1Zm1.639-.047a.357.357,0,0,0-.232-.067.271.271,0,0,0-.108.031.246.246,0,0,0-.086.075l-.423.582.514.372.408-.563a.308.308,0,0,0,.051-.112.283.283,0,0,0,0-.117.31.31,0,0,0-.043-.111A.315.315,0,0,0,619.645,298.991Z" transform="translate(-617.407 -292.397)" fill="#fff"/>
              <path id="Path_56528" data-name="Path 56528" d="M624.409,294.061l.283.3-1.215,1.15-1.656-1.748,1.192-1.129.283.3-.852.807.4.421.736-.7.261.275-.736.7.432.456Z" transform="translate(-619.976 -289.315)" fill="#fff"/>
              <path id="Path_56529" data-name="Path 56529" d="M628.414,289.924a.618.618,0,0,0-.108-.006,1,1,0,0,0-.171.017,1.324,1.324,0,0,0-.2.052.851.851,0,0,0-.194.094.478.478,0,0,0-.2.218.235.235,0,0,0,.03.219.2.2,0,0,0,.1.084.309.309,0,0,0,.134.016.876.876,0,0,0,.18-.037c.069-.021.148-.047.235-.077.116-.038.224-.068.323-.091a.876.876,0,0,1,.279-.02.568.568,0,0,1,.236.078.656.656,0,0,1,.2.2.688.688,0,0,1,.12.316.606.606,0,0,1-.042.293.86.86,0,0,1-.17.26,1.438,1.438,0,0,1-.261.218,1.822,1.822,0,0,1-.492.226,1.655,1.655,0,0,1-.524.067l-.048-.451a.628.628,0,0,0,.136.006,1.7,1.7,0,0,0,.211-.021,1.494,1.494,0,0,0,.247-.063,1.076,1.076,0,0,0,.245-.12q.324-.213.188-.419a.2.2,0,0,0-.109-.087.381.381,0,0,0-.157-.01,1.225,1.225,0,0,0-.205.046l-.257.079a2.211,2.211,0,0,1-.308.078.806.806,0,0,1-.25.006.5.5,0,0,1-.2-.078.613.613,0,0,1-.166-.176.75.75,0,0,1-.122-.31.662.662,0,0,1,.027-.3.842.842,0,0,1,.155-.274,1.152,1.152,0,0,1,.259-.229,1.345,1.345,0,0,1,.435-.191,1.747,1.747,0,0,1,.416-.047Z" transform="translate(-623.037 -287.487)" fill="#fff"/>
              <path id="Path_56530" data-name="Path 56530" d="M633.762,286.515l-.713.291.756,1.849-.43.176-.756-1.849-.713.291-.155-.38,1.855-.758Z" transform="translate(-625.755 -285.533)" fill="#fff"/>
              <path id="Path_56531" data-name="Path 56531" d="M643.21,286.922a1.178,1.178,0,0,1-.276.146,1.121,1.121,0,0,1-.322.067,1.07,1.07,0,0,1-.486-.073,1.208,1.208,0,0,1-.387-.249,1.247,1.247,0,0,1-.32-1.284,1.27,1.27,0,0,1,.221-.4,1.177,1.177,0,0,1,.356-.294,1.115,1.115,0,0,1,.464-.131,1.054,1.054,0,0,1,.482.075,1.173,1.173,0,0,1,.386.255,1.29,1.29,0,0,1,.263.377,1.236,1.236,0,0,1-.145,1.287l.353.347-.44.029Zm-.622-.2a.637.637,0,0,0,.169-.033.68.68,0,0,0,.143-.069l-.393-.389.44-.029.178.175a.933.933,0,0,0,.089-.244.938.938,0,0,0-.049-.561.833.833,0,0,0-.156-.248.673.673,0,0,0-.232-.164.624.624,0,0,0-.3-.048.639.639,0,0,0-.3.089.657.657,0,0,0-.207.2.816.816,0,0,0-.116.268.966.966,0,0,0,.041.594.8.8,0,0,0,.154.248.684.684,0,0,0,.232.165A.637.637,0,0,0,642.588,286.723Z" transform="translate(-631.347 -284.696)" fill="#fff"/>
              <path id="Path_56532" data-name="Path 56532" d="M649.783,286.878a.517.517,0,0,0,.494-.174.747.747,0,0,0,.134-.232,1.458,1.458,0,0,0,.071-.283l.179-1.214.46.068-.18,1.215a1.73,1.73,0,0,1-.127.451,1.075,1.075,0,0,1-.24.349.891.891,0,0,1-.362.207,1.25,1.25,0,0,1-.957-.146.918.918,0,0,1-.285-.31,1.052,1.052,0,0,1-.124-.4,1.8,1.8,0,0,1,.011-.455l.18-1.215.463.068-.18,1.215a1.463,1.463,0,0,0-.014.294.744.744,0,0,0,.061.261.537.537,0,0,0,.154.2A.53.53,0,0,0,649.783,286.878Z" transform="translate(-635.7 -284.719)" fill="#fff"/>
              <path id="Path_56533" data-name="Path 56533" d="M655.966,286.626l.391.134.084,2.575-.456-.156-.017-.64-.8-.273-.4.5-.456-.157ZM656,288.2l-.007-1-.634.783Z" transform="translate(-638.888 -285.819)" fill="#fff"/>
              <path id="Path_56534" data-name="Path 56534" d="M660.468,290.74l1.171-2.1.409.227-.971,1.745,1.073.6-.2.359Z" transform="translate(-642.47 -286.989)" fill="#fff"/>
              <path id="Path_56535" data-name="Path 56535" d="M665.029,293.753l1.442-1.929.375.28-1.442,1.929Z" transform="translate(-645.124 -288.845)" fill="#fff"/>
              <path id="Path_56536" data-name="Path 56536" d="M670.612,295.52l-.544-.545-1.414,1.412-.328-.329,1.414-1.412-.544-.545.29-.29,1.416,1.419Z" transform="translate(-647.043 -290.002)" fill="#fff"/>
              <path id="Path_56537" data-name="Path 56537" d="M673.817,299.008l-.636,1.137,1.3-.141.28.421-1.789.14-.7.466-.257-.386.705-.47.815-1.591Z" transform="translate(-649.19 -292.78)" fill="#fff"/>
            </g>
            <g id="Group_17311" data-name="Group 17311">
              <path id="Path_56538" data-name="Path 56538" d="M619.993,298.661a.558.558,0,0,1,.181.206.564.564,0,0,1,.058.25.786.786,0,0,1-.049.27,1.081,1.081,0,0,1-.143.267l-.683.942-1.949-1.414.757-1.043a.477.477,0,0,1,.177-.153.574.574,0,0,1,.215-.057.644.644,0,0,1,.224.026.675.675,0,0,1,.2.1.662.662,0,0,1,.216.265.536.536,0,0,1,.034.344.621.621,0,0,1,.369-.137A.631.631,0,0,1,619.993,298.661Zm-1.987.377.492.357.367-.5a.281.281,0,0,0,.053-.211.3.3,0,0,0-.133-.2.306.306,0,0,0-.223-.068.246.246,0,0,0-.176.1Zm1.639-.047a.357.357,0,0,0-.232-.067.271.271,0,0,0-.108.031.246.246,0,0,0-.086.075l-.423.582.514.372.408-.563a.308.308,0,0,0,.051-.112.283.283,0,0,0,0-.117.31.31,0,0,0-.043-.111A.315.315,0,0,0,619.645,298.991Z" transform="translate(-617.407 -292.397)" fill="#bd7227"/>
              <path id="Path_56539" data-name="Path 56539" d="M624.409,294.061l.283.3-1.215,1.15-1.656-1.748,1.192-1.129.283.3-.852.807.4.421.736-.7.261.275-.736.7.432.456Z" transform="translate(-619.976 -289.315)" fill="#bd7227"/>
              <path id="Path_56540" data-name="Path 56540" d="M628.414,289.924a.618.618,0,0,0-.108-.006,1,1,0,0,0-.171.017,1.324,1.324,0,0,0-.2.052.851.851,0,0,0-.194.094.478.478,0,0,0-.2.218.235.235,0,0,0,.03.219.2.2,0,0,0,.1.084.309.309,0,0,0,.134.016.876.876,0,0,0,.18-.037c.069-.021.148-.047.235-.077.116-.038.224-.068.323-.091a.876.876,0,0,1,.279-.02.568.568,0,0,1,.236.078.656.656,0,0,1,.2.2.688.688,0,0,1,.12.316.606.606,0,0,1-.042.293.86.86,0,0,1-.17.26,1.438,1.438,0,0,1-.261.218,1.822,1.822,0,0,1-.492.226,1.655,1.655,0,0,1-.524.067l-.048-.451a.628.628,0,0,0,.136.006,1.7,1.7,0,0,0,.211-.021,1.494,1.494,0,0,0,.247-.063,1.076,1.076,0,0,0,.245-.12q.324-.213.188-.419a.2.2,0,0,0-.109-.087.381.381,0,0,0-.157-.01,1.225,1.225,0,0,0-.205.046l-.257.079a2.211,2.211,0,0,1-.308.078.806.806,0,0,1-.25.006.5.5,0,0,1-.2-.078.613.613,0,0,1-.166-.176.75.75,0,0,1-.122-.31.662.662,0,0,1,.027-.3.842.842,0,0,1,.155-.274,1.152,1.152,0,0,1,.259-.229,1.345,1.345,0,0,1,.435-.191,1.747,1.747,0,0,1,.416-.047Z" transform="translate(-623.037 -287.487)" fill="#bd7227"/>
              <path id="Path_56541" data-name="Path 56541" d="M633.762,286.515l-.713.291.756,1.849-.43.176-.756-1.849-.713.291-.155-.38,1.855-.758Z" transform="translate(-625.755 -285.533)" fill="#bd7227"/>
              <path id="Path_56542" data-name="Path 56542" d="M643.21,286.922a1.178,1.178,0,0,1-.276.146,1.121,1.121,0,0,1-.322.067,1.07,1.07,0,0,1-.486-.073,1.208,1.208,0,0,1-.387-.249,1.247,1.247,0,0,1-.32-1.284,1.27,1.27,0,0,1,.221-.4,1.177,1.177,0,0,1,.356-.294,1.115,1.115,0,0,1,.464-.131,1.054,1.054,0,0,1,.482.075,1.173,1.173,0,0,1,.386.255,1.29,1.29,0,0,1,.263.377,1.236,1.236,0,0,1-.145,1.287l.353.347-.44.029Zm-.622-.2a.637.637,0,0,0,.169-.033.68.68,0,0,0,.143-.069l-.393-.389.44-.029.178.175a.933.933,0,0,0,.089-.244.938.938,0,0,0-.049-.561.833.833,0,0,0-.156-.248.673.673,0,0,0-.232-.164.624.624,0,0,0-.3-.048.639.639,0,0,0-.3.089.657.657,0,0,0-.207.2.816.816,0,0,0-.116.268.966.966,0,0,0,.041.594.8.8,0,0,0,.154.248.684.684,0,0,0,.232.165A.637.637,0,0,0,642.588,286.723Z" transform="translate(-631.347 -284.696)" fill="#bd7227"/>
              <path id="Path_56543" data-name="Path 56543" d="M649.783,286.878a.517.517,0,0,0,.494-.174.747.747,0,0,0,.134-.232,1.458,1.458,0,0,0,.071-.283l.179-1.214.46.068-.18,1.215a1.73,1.73,0,0,1-.127.451,1.075,1.075,0,0,1-.24.349.891.891,0,0,1-.362.207,1.25,1.25,0,0,1-.957-.146.918.918,0,0,1-.285-.31,1.052,1.052,0,0,1-.124-.4,1.8,1.8,0,0,1,.011-.455l.18-1.215.463.068-.18,1.215a1.463,1.463,0,0,0-.014.294.744.744,0,0,0,.061.261.537.537,0,0,0,.154.2A.53.53,0,0,0,649.783,286.878Z" transform="translate(-635.7 -284.719)" fill="#bd7227"/>
              <path id="Path_56544" data-name="Path 56544" d="M655.966,286.626l.391.134.084,2.575-.456-.156-.017-.64-.8-.273-.4.5-.456-.157ZM656,288.2l-.007-1-.634.783Z" transform="translate(-638.888 -285.819)" fill="#bd7227"/>
              <path id="Path_56545" data-name="Path 56545" d="M660.468,290.74l1.171-2.1.409.227-.971,1.745,1.073.6-.2.359Z" transform="translate(-642.47 -286.989)" fill="#bd7227"/>
              <path id="Path_56546" data-name="Path 56546" d="M665.029,293.753l1.442-1.929.375.28-1.442,1.929Z" transform="translate(-645.124 -288.845)" fill="#bd7227"/>
              <path id="Path_56547" data-name="Path 56547" d="M670.612,295.52l-.544-.545-1.414,1.412-.328-.329,1.414-1.412-.544-.545.29-.29,1.416,1.419Z" transform="translate(-647.043 -290.002)" fill="#bd7227"/>
              <path id="Path_56548" data-name="Path 56548" d="M673.817,299.008l-.636,1.137,1.3-.141.28.421-1.789.14-.7.466-.257-.386.705-.47.815-1.591Z" transform="translate(-649.19 -292.78)" fill="#bd7227"/>
            </g>
          </g>
        </g>
        <g id="Group_17318" data-name="Group 17318" transform="translate(0.907 22.517)">
          <g id="Group_17317" data-name="Group 17317">
            <g id="Group_17316" data-name="Group 17316">
              <g id="Group_17314" data-name="Group 17314">
                <path id="Path_56549" data-name="Path 56549" d="M620.533,341.268a.922.922,0,0,1-.667-.3,1.072,1.072,0,0,1-.232-.393,1.134,1.134,0,0,1-.054-.443,1.249,1.249,0,0,1,.123-.445,1.294,1.294,0,0,1,.3-.4,1.2,1.2,0,0,1,.4-.25,1.214,1.214,0,0,1,.449-.078,1.188,1.188,0,0,1,.443.1,1.216,1.216,0,0,1,.676.8.927.927,0,0,1-.035.528l-.426-.082a.65.65,0,0,0,.028-.375.7.7,0,0,0-.172-.328.607.607,0,0,0-.237-.162.655.655,0,0,0-.277-.04.819.819,0,0,0-.284.073.934.934,0,0,0-.26.173.9.9,0,0,0-.2.255.812.812,0,0,0-.087.283.692.692,0,0,0,.027.282.652.652,0,0,0,.146.25.82.82,0,0,0,.67.241l.125-.115-.329-.357.252-.232.591.641-.909.839-.262-.285Z" transform="translate(-619.576 -338.798)" fill="#fff"/>
                <path id="Path_56550" data-name="Path 56550" d="M625.451,344.771a.527.527,0,0,0,.266.11.547.547,0,0,0,.252-.035.7.7,0,0,0,.226-.144,1.421,1.421,0,0,0,.194-.217l.722-.993.376.273-.722.993a1.77,1.77,0,0,1-.321.341,1.071,1.071,0,0,1-.374.2.89.89,0,0,1-.416.016,1.107,1.107,0,0,1-.443-.2,1.092,1.092,0,0,1-.337-.369.911.911,0,0,1-.109-.406,1.037,1.037,0,0,1,.078-.415,1.789,1.789,0,0,1,.22-.4l.722-.993.378.275-.721.993a1.457,1.457,0,0,0-.15.254.758.758,0,0,0-.067.26.544.544,0,0,0,.045.248A.53.53,0,0,0,625.451,344.771Z" transform="translate(-622.595 -340.871)" fill="#fff"/>
                <path id="Path_56551" data-name="Path 56551" d="M631.289,346.843l.373.179-.221,2.567-.433-.209.059-.638-.757-.365-.46.445-.434-.209Zm-.157,1.566.112-1-.722.7Z" transform="translate(-625.303 -343.384)" fill="#fff"/>
                <path id="Path_56552" data-name="Path 56552" d="M636.212,350.864l.645-2.32,1.026.285a.677.677,0,0,1,.277.149.782.782,0,0,1,.184.241.87.87,0,0,1,.085.291.8.8,0,0,1-.249.674.67.67,0,0,1-.38.181l.287,1.02-.507-.141-.258-.91-.444-.124-.216.778Zm.777-1.047.565.158a.259.259,0,0,0,.124,0,.312.312,0,0,0,.115-.054.424.424,0,0,0,.1-.1.5.5,0,0,0,.064-.141.435.435,0,0,0,.016-.158.406.406,0,0,0-.038-.139.324.324,0,0,0-.079-.106.274.274,0,0,0-.108-.06l-.546-.152Z" transform="translate(-629.259 -344.374)" fill="#fff"/>
                <path id="Path_56553" data-name="Path 56553" d="M643.386,350.078l.413.029.744,2.466-.48-.033-.181-.615-.839-.059-.262.583-.481-.034Zm.434,1.513-.265-.967-.412.919Z" transform="translate(-632.802 -345.267)" fill="#fff"/>
                <path id="Path_56554" data-name="Path 56554" d="M649.635,350.572l.23,1.526-.463.07-.359-2.381.359-.054,1.477,1.375-.236-1.559.463-.07.359,2.377-.375.057Z" transform="translate(-636.727 -344.918)" fill="#fff"/>
                <path id="Path_56555" data-name="Path 56555" d="M657.1,348l-.728.253.656,1.886-.438.153-.657-1.887-.727.253-.135-.387,1.894-.659Z" transform="translate(-640.234 -343.829)" fill="#fff"/>
                <path id="Path_56556" data-name="Path 56556" d="M663.066,346.978l.194.362-1.471.794-1.143-2.119,1.445-.779.194.362-1.032.557.275.51.893-.481.18.334-.892.481.3.552Z" transform="translate(-643.48 -342.448)" fill="#fff"/>
                <path id="Path_56557" data-name="Path 56557" d="M667.807,343.627l.25.325-1.324,1.02-1.469-1.907,1.3-1,.251.325-.93.716.354.459.8-.619.231.3-.8.619.383.5Z" transform="translate(-646.167 -340.602)" fill="#fff"/>
                <path id="Path_56558" data-name="Path 56558" d="M671.19,341.252l-1.794-1.606.583-.652a1.3,1.3,0,0,1,.416-.322,1.036,1.036,0,0,1,.873-.017,1.515,1.515,0,0,1,.712.649,1.043,1.043,0,0,1,.055.874,1.319,1.319,0,0,1-.262.423Zm.161-1.99a1.01,1.01,0,0,0-.268-.177.721.721,0,0,0-.28-.064.621.621,0,0,0-.273.06.762.762,0,0,0-.245.188l-.271.3,1.183,1.059.272-.3a.736.736,0,0,0,.159-.269.64.64,0,0,0,.024-.279.745.745,0,0,0-.1-.271A1,1,0,0,0,671.35,339.262Z" transform="translate(-648.573 -338.567)" fill="#fff"/>
              </g>
              <g id="Group_17315" data-name="Group 17315">
                <path id="Path_56559" data-name="Path 56559" d="M620.533,341.268a.922.922,0,0,1-.667-.3,1.072,1.072,0,0,1-.232-.393,1.134,1.134,0,0,1-.054-.443,1.249,1.249,0,0,1,.123-.445,1.294,1.294,0,0,1,.3-.4,1.2,1.2,0,0,1,.4-.25,1.214,1.214,0,0,1,.449-.078,1.188,1.188,0,0,1,.443.1,1.216,1.216,0,0,1,.676.8.927.927,0,0,1-.035.528l-.426-.082a.65.65,0,0,0,.028-.375.7.7,0,0,0-.172-.328.607.607,0,0,0-.237-.162.655.655,0,0,0-.277-.04.819.819,0,0,0-.284.073.934.934,0,0,0-.26.173.9.9,0,0,0-.2.255.812.812,0,0,0-.087.283.692.692,0,0,0,.027.282.652.652,0,0,0,.146.25.82.82,0,0,0,.67.241l.125-.115-.329-.357.252-.232.591.641-.909.839-.262-.285Z" transform="translate(-619.576 -338.798)" fill="#bd7227"/>
                <path id="Path_56560" data-name="Path 56560" d="M625.451,344.771a.527.527,0,0,0,.266.11.547.547,0,0,0,.252-.035.7.7,0,0,0,.226-.144,1.421,1.421,0,0,0,.194-.217l.722-.993.376.273-.722.993a1.77,1.77,0,0,1-.321.341,1.071,1.071,0,0,1-.374.2.89.89,0,0,1-.416.016,1.107,1.107,0,0,1-.443-.2,1.092,1.092,0,0,1-.337-.369.911.911,0,0,1-.109-.406,1.037,1.037,0,0,1,.078-.415,1.789,1.789,0,0,1,.22-.4l.722-.993.378.275-.721.993a1.457,1.457,0,0,0-.15.254.758.758,0,0,0-.067.26.544.544,0,0,0,.045.248A.53.53,0,0,0,625.451,344.771Z" transform="translate(-622.595 -340.871)" fill="#bd7227"/>
                <path id="Path_56561" data-name="Path 56561" d="M631.289,346.843l.373.179-.221,2.567-.433-.209.059-.638-.757-.365-.46.445-.434-.209Zm-.157,1.566.112-1-.722.7Z" transform="translate(-625.303 -343.384)" fill="#bd7227"/>
                <path id="Path_56562" data-name="Path 56562" d="M636.212,350.864l.645-2.32,1.026.285a.677.677,0,0,1,.277.149.782.782,0,0,1,.184.241.87.87,0,0,1,.085.291.8.8,0,0,1-.249.674.67.67,0,0,1-.38.181l.287,1.02-.507-.141-.258-.91-.444-.124-.216.778Zm.777-1.047.565.158a.259.259,0,0,0,.124,0,.312.312,0,0,0,.115-.054.424.424,0,0,0,.1-.1.5.5,0,0,0,.064-.141.435.435,0,0,0,.016-.158.406.406,0,0,0-.038-.139.324.324,0,0,0-.079-.106.274.274,0,0,0-.108-.06l-.546-.152Z" transform="translate(-629.259 -344.374)" fill="#bd7227"/>
                <path id="Path_56563" data-name="Path 56563" d="M643.386,350.078l.413.029.744,2.466-.48-.033-.181-.615-.839-.059-.262.583-.481-.034Zm.434,1.513-.265-.967-.412.919Z" transform="translate(-632.802 -345.267)" fill="#bd7227"/>
                <path id="Path_56564" data-name="Path 56564" d="M649.635,350.572l.23,1.526-.463.07-.359-2.381.359-.054,1.477,1.375-.236-1.559.463-.07.359,2.377-.375.057Z" transform="translate(-636.727 -344.918)" fill="#bd7227"/>
                <path id="Path_56565" data-name="Path 56565" d="M657.1,348l-.728.253.656,1.886-.438.153-.657-1.887-.727.253-.135-.387,1.894-.659Z" transform="translate(-640.234 -343.829)" fill="#bd7227"/>
                <path id="Path_56566" data-name="Path 56566" d="M663.066,346.978l.194.362-1.471.794-1.143-2.119,1.445-.779.194.362-1.032.557.275.51.893-.481.18.334-.892.481.3.552Z" transform="translate(-643.48 -342.448)" fill="#bd7227"/>
                <path id="Path_56567" data-name="Path 56567" d="M667.807,343.627l.25.325-1.324,1.02-1.469-1.907,1.3-1,.251.325-.93.716.354.459.8-.619.231.3-.8.619.383.5Z" transform="translate(-646.167 -340.602)" fill="#bd7227"/>
                <path id="Path_56568" data-name="Path 56568" d="M671.19,341.252l-1.794-1.606.583-.652a1.3,1.3,0,0,1,.416-.322,1.036,1.036,0,0,1,.873-.017,1.515,1.515,0,0,1,.712.649,1.043,1.043,0,0,1,.055.874,1.319,1.319,0,0,1-.262.423Zm.161-1.99a1.01,1.01,0,0,0-.268-.177.721.721,0,0,0-.28-.064.621.621,0,0,0-.273.06.762.762,0,0,0-.245.188l-.271.3,1.183,1.059.272-.3a.736.736,0,0,0,.159-.269.64.64,0,0,0,.024-.279.745.745,0,0,0-.1-.271A1,1,0,0,0,671.35,339.262Z" transform="translate(-648.573 -338.567)" fill="#bd7227"/>
              </g>
            </g>
          </g>
        </g>
      </g>
      <g id="Group_17329" data-name="Group 17329" transform="translate(29.492 12.636)">
        <path id="Path_56611" data-name="Path 56611" d="M677.411,309.155l-.329-.82-.329.82-.881.06.678.566-.215.856.748-.47.748.47-.216-.856.678-.566Z" transform="translate(-675.688 -308.335)" fill="url(#linear-gradient-4)" style="mix-blend-mode: multiply;isolation: isolate"/>
        <path id="Path_56612" data-name="Path 56612" d="M676.971,329.454l-.329-.82-.329.82-.881.06.678.566-.215.856.748-.47.748.47-.215-.856.678-.566Z" transform="translate(-675.432 -320.15)" fill="url(#linear-gradient-4)" style="mix-blend-mode: multiply;isolation: isolate"/>
        <path id="Path_56613" data-name="Path 56613" d="M678.822,318.595l-.407-1.013-.407,1.013-1.089.074.838.7-.266,1.059.925-.581.925.581-.266-1.059.838-.7Z" transform="translate(-676.297 -313.717)" fill="url(#linear-gradient-4)" style="mix-blend-mode: multiply;isolation: isolate"/>
      </g>
      <g id="Group_17330" data-name="Group 17330" transform="translate(2.226 12.636)">
        <path id="Path_56614" data-name="Path 56614" d="M613.5,309.155l.329-.82.329.82.881.06-.678.566.215.856-.748-.47-.748.47.215-.856-.678-.566Z" transform="translate(-611.606 -308.335)" fill="url(#linear-gradient-4)" style="mix-blend-mode: multiply;isolation: isolate"/>
        <path id="Path_56615" data-name="Path 56615" d="M613.936,329.454l.329-.82.329.82.881.06-.678.566.215.856-.748-.47-.748.47.215-.856-.678-.566Z" transform="translate(-611.861 -320.15)" fill="url(#linear-gradient-4)" style="mix-blend-mode: multiply;isolation: isolate"/>
        <path id="Path_56616" data-name="Path 56616" d="M611.288,318.595l.407-1.013.407,1.013,1.089.074-.838.7.266,1.059-.925-.581-.925.581.266-1.059-.838-.7Z" transform="translate(-610.199 -313.717)" fill="url(#linear-gradient-4)" style="mix-blend-mode: multiply;isolation: isolate"/>
      </g>
      <g id="Group_17331" data-name="Group 17331" transform="translate(9.447 11.441)" style="mix-blend-mode: multiply;isolation: isolate">
        <text id="_100_" data-name="100%" transform="translate(0 7)" fill="#c40d0d" font-size="8" font-family="BebasNeue, Bebas Neue"><tspan x="0" y="0">100%</tspan></text>
        <path id="Path_56617" data-name="Path 56617" d="M.711-2.8H.156V-.264H.5v-1.8H.511L.8-.264h.377l.268-1.821h.007V-.264h.377V-2.8H1.277L1.008-1H1Zm1.81.363H3.21V-2.8H2.122V-.264H3.21V-.627H2.521V-1.37h.548v-.363H2.521ZM4.008-2.8H3.453V-.264H3.8v-1.8h.007l.29,1.8h.377l.268-1.821h.007V-.264h.377V-2.8H4.574L4.305-1H4.3Zm2.013,0h-.6V-.264h.627a.54.54,0,0,0,.606-.6v-.207a.508.508,0,0,0-.3-.54v-.007a.493.493,0,0,0,.258-.508v-.091C6.612-2.611,6.434-2.8,6.021-2.8ZM6-1.407c.181,0,.258.073.258.308v.221c0,.189-.073.25-.207.25H5.818v-.78ZM6.01-2.44c.141,0,.2.08.2.261v.141c0,.2-.091.268-.239.268H5.818V-2.44Zm1.28,0H7.98V-2.8H6.891V-.264H7.98V-.627H7.29V-1.37h.548v-.363H7.29ZM9.467-.264a.748.748,0,0,1-.044-.308V-.964c0-.265-.065-.453-.265-.537v-.007A.5.5,0,0,0,9.42-2.02v-.2c0-.392-.178-.584-.591-.584h-.6V-.264h.4V-1.3h.138c.181,0,.261.087.261.323v.4a.781.781,0,0,0,.036.312ZM8.817-2.44c.141,0,.2.08.2.261v.25c0,.2-.091.268-.239.268H8.625v-.78Zm.816.247a.984.984,0,0,0,.439.794c.261.229.341.366.341.551s-.08.247-.207.247S10-.667,10-.848v-.181H9.623v.156c0,.406.2.638.595.638s.595-.232.595-.638a.984.984,0,0,0-.439-.794c-.261-.229-.341-.366-.341-.551s.073-.25.2-.25.2.069.2.25v.105h.377v-.08c0-.406-.2-.638-.588-.638S9.634-2.6,9.634-2.194Zm1.806.841h.453V-.264H12.3V-2.8h-.406v1.088H11.44V-2.8h-.4V-.264h.4ZM12.59-.264h.4V-2.8h-.4ZM13.866-2.8h-.588V-.264h.4v-.954h.189c.4,0,.595-.221.595-.627v-.33C14.461-2.582,14.265-2.8,13.866-2.8Zm0,.363c.127,0,.2.058.2.239v.381c0,.181-.069.239-.2.239h-.189v-.86Z" transform="translate(1.385 12.249)" fill="#c40d0d"/>
      </g>
    </g>
  </g>
</svg>
