<svg xmlns="http://www.w3.org/2000/svg" width="38.679" height="32.583" viewBox="0 0 38.679 32.583">
  <g id="My_point" transform="translate(-29 -293.417)">
    <g id="Group_17217" data-name="Group 17217" transform="translate(56.655 299.432)">
      <path id="Path_56109" data-name="Path 56109" d="M236.671,246.731l1.566,3.174a.177.177,0,0,0,.133.1l3.5.509a.177.177,0,0,1,.1.3l-2.534,2.47a.177.177,0,0,0-.051.157l.6,3.488a.177.177,0,0,1-.257.186l-3.133-1.647a.177.177,0,0,0-.165,0l-3.133,1.647a.177.177,0,0,1-.257-.186l.6-3.488a.177.177,0,0,0-.051-.157l-2.534-2.47a.177.177,0,0,1,.1-.3l3.5-.509a.177.177,0,0,0,.133-.1l1.566-3.174A.177.177,0,0,1,236.671,246.731Z" transform="translate(-231 -246.632)" fill="#f3cc30"/>
      <g id="Group_17213" data-name="Group 17213" transform="translate(0.713 0.832)">
        <path id="Path_56110" data-name="Path 56110" d="M278.491,296.423l-1.4,2.7a.467.467,0,0,1-.373.251l-3.031.277,3.2.15a.467.467,0,0,0,.46-.3Z" transform="translate(-273.692 -296.423)" fill="#f7db5e"/>
      </g>
      <path id="Path_56111" data-name="Path 56111" d="M353.074,474.779l-.069.4a.177.177,0,0,0,.257.187l3.133-1.647a.177.177,0,0,1,.165,0l3.133,1.647a.177.177,0,0,0,.257-.187l-.6-3.488a.177.177,0,0,1,.051-.157l2.534-2.47a.177.177,0,0,0-.1-.3l-1.173-.17A13.527,13.527,0,0,1,353.074,474.779Z" transform="translate(-350.964 -464.886)" fill="#edbd31"/>
    </g>
    <g id="Group_17215" data-name="Group 17215" transform="translate(52.208 293.417)">
      <path id="Path_56109-2" data-name="Path 56109" d="M235.083,246.7l1.128,2.285a.127.127,0,0,0,.1.07l2.522.366a.127.127,0,0,1,.071.217l-1.825,1.779a.127.127,0,0,0-.037.113l.431,2.511a.127.127,0,0,1-.185.134l-2.255-1.186a.127.127,0,0,0-.119,0l-2.255,1.186a.127.127,0,0,1-.185-.134l.431-2.511a.127.127,0,0,0-.037-.113l-1.825-1.779a.127.127,0,0,1,.071-.217l2.522-.366a.127.127,0,0,0,.1-.07l1.128-2.285A.127.127,0,0,1,235.083,246.7Z" transform="translate(-231 -246.632)" fill="#f3cc30"/>
      <g id="Group_17213-2" data-name="Group 17213" transform="translate(0.513 0.599)">
        <path id="Path_56110-2" data-name="Path 56110" d="M277.147,296.423l-1,1.947a.336.336,0,0,1-.268.181l-2.182.2,2.305.108a.337.337,0,0,0,.331-.219Z" transform="translate(-273.692 -296.423)" fill="#f7db5e"/>
      </g>
      <path id="Path_56111-2" data-name="Path 56111" d="M353.054,473.047l-.05.289a.127.127,0,0,0,.185.134l2.255-1.186a.127.127,0,0,1,.119,0l2.255,1.186a.127.127,0,0,0,.185-.134l-.431-2.511a.128.128,0,0,1,.037-.113l1.825-1.779a.127.127,0,0,0-.071-.217l-.845-.123A9.739,9.739,0,0,1,353.054,473.047Z" transform="translate(-351.535 -465.924)" fill="#edbd31"/>
    </g>
    <g id="Group_17224" data-name="Group 17224" transform="translate(29 297.17)">
      <g id="Group_17220" data-name="Group 17220" transform="translate(0 0)">
        <circle id="Ellipse_867" data-name="Ellipse 867" cx="14.5" cy="14.5" r="14.5" transform="translate(0 -0.17)" fill="#f2d334"/>
      </g>
      <g id="Group_17221" data-name="Group 17221" transform="translate(2.165 2.165)">
        <circle id="Ellipse_868" data-name="Ellipse 868" cx="12.146" cy="12.146" r="12.146" transform="translate(0 0)" fill="#f3cc30"/>
      </g>
      <g id="Group_17222" data-name="Group 17222" transform="translate(4.076 3.945)">
        <path id="Path_56112" data-name="Path 56112" d="M350.525,331.017a12.148,12.148,0,0,1-16.59,16.894,12.147,12.147,0,1,0,16.59-16.894Z" transform="translate(-333.935 -331.017)" fill="#edbd31"/>
      </g>
      <g id="Group_17223" data-name="Group 17223" transform="translate(3.495 3.509)">
        <path id="Path_56113" data-name="Path 56113" d="M321.837,333.262a10.721,10.721,0,0,1,19.221-6.536,10.722,10.722,0,1,0-17.8,11.88A10.672,10.672,0,0,1,321.837,333.262Z" transform="translate(-321.039 -321.348)" fill="#f7db5e"/>
      </g>
    </g>
  </g>
</svg>
