<svg xmlns="http://www.w3.org/2000/svg" width="23.821" height="23.821" viewBox="0 0 23.821 23.821">
  <g id="myaccount-profile" transform="translate(0.25 0.25)">
    <g id="Group_67" data-name="Group 67" transform="translate(6.068 4.64)">
      <path id="Path_295" data-name="Path 295" d="M1468.914,1061.865a10.883,10.883,0,0,1-3.81-.657,3.691,3.691,0,0,1-1.431-.906,1.565,1.565,0,0,1-.438-1.138,5.676,5.676,0,0,1,1.655-3.937.521.521,0,1,1,.744.728,4.638,4.638,0,0,0-1.3,2.6c-.028.187-.031.378-.052.567a.637.637,0,0,0,.239.56,3.125,3.125,0,0,0,1.1.612,10.3,10.3,0,0,0,3.946.506,8.683,8.683,0,0,0,2.756-.511,5.956,5.956,0,0,0,.951-.487.8.8,0,0,0,.389-.814,4.726,4.726,0,0,0-1.339-3.014.581.581,0,0,1-.209-.489.52.52,0,0,1,.9-.3,5.656,5.656,0,0,1,1.467,2.462,6.008,6.008,0,0,1,.229,1.508,1.611,1.611,0,0,1-.559,1.268,4.371,4.371,0,0,1-1.671.915A11.533,11.533,0,0,1,1468.914,1061.865Z" transform="translate(-1463.234 -1048.308)" stroke="rgba(0,0,0,0)" stroke-width="1"/>
      <path id="Path_296" data-name="Path 296" d="M1511.253,904.148a3.649,3.649,0,1,1,3.661,3.65A3.653,3.653,0,0,1,1511.253,904.148Zm1.043-.011a2.606,2.606,0,1,0,2.594-2.595A2.609,2.609,0,0,0,1512.3,904.137Z" transform="translate(-1509.167 -900.5)" stroke="rgba(0,0,0,0)" stroke-width="1"/>
    </g>
    <path id="Path_33932" data-name="Path 33932" d="M177.58,815a11.661,11.661,0,1,0,11.66,11.66A11.661,11.661,0,0,0,177.58,815Zm0,22.864a11.2,11.2,0,1,1,11.2-11.2A11.2,11.2,0,0,1,177.58,837.86Z" transform="translate(-165.92 -814.996)" fill="#119322" stroke="#000" stroke-width="0.5"/>
  </g>
</svg>
