<svg xmlns="http://www.w3.org/2000/svg" width="23.386" height="19.763" viewBox="0 0 23.386 19.763">
  <g id="order_place" transform="translate(-2013.604 -2134.946)">
    <path id="Path_56080" data-name="Path 56080" d="M2021.746,2149.355h11.728v-4.608a3.288,3.288,0,0,1-1.151-.166v.616q0,1.308,0,2.615a.319.319,0,0,1-.361.364h-5.651q-1.628,0-3.256,0a.334.334,0,0,1-.347-.184.389.389,0,0,1-.031-.155c0-1.676.005-3.354-.007-5.03a1.6,1.6,0,0,1,.215-.812c.534-.973,1.056-1.955,1.576-2.936a.417.417,0,0,1,.412-.25c1.533,0,3.066,0,4.6,0,.347,0,.694,0,1.041,0a.337.337,0,0,1,.347.231c.051.13.112.256.171.391a3.119,3.119,0,0,1,3.147-.87,3.148,3.148,0,0,1,2.284,3.4,3.082,3.082,0,0,1-.757,1.7,3.158,3.158,0,0,1-1.586.982v.156c0,1.6,0,3.2,0,4.8a.362.362,0,0,1-.39.4c-1.019-.009-2.037,0-3.056,0h-9.137a.329.329,0,0,1-.387-.313q-.375-1.748-.751-3.5-.416-1.944-.831-3.89-.478-2.228-.959-4.456c-.124-.579-.246-1.159-.373-1.75h-3.777a.322.322,0,1,1-.034-.642c.207,0,.414,0,.621,0h3.4a.338.338,0,0,1,.379.3q.134.636.269,1.271.479,2.238.959,4.475.337,1.569.675,3.137.5,2.312.989,4.624C2021.726,2149.291,2021.737,2149.322,2021.746,2149.355Zm9.931-1.823c0-.028,0-.044,0-.06q0-1.563,0-3.125a.158.158,0,0,0-.063-.108,3.165,3.165,0,0,1-1.157-1.363.107.107,0,0,0-.118-.075c-.464,0-.928,0-1.392,0h-5.624v4.73Zm1.659-8.439a2.506,2.506,0,1,0,2.508,2.547A2.5,2.5,0,0,0,2033.336,2139.092Zm-3.106,3.064a.289.289,0,0,0,0-.043,3.108,3.108,0,0,1,.166-1.642c.059-.153.179-.3.175-.454a1.664,1.664,0,0,0-.188-.469.129.129,0,0,0-.147-.094q-2.575,0-5.15,0a.149.149,0,0,0-.153.092q-.521.981-1.048,1.958c-.115.214-.229.428-.348.652Z" fill="#cdc8c8" stroke="rgba(0,0,0,0)" stroke-width="1"/>
    <path id="Path_56081" data-name="Path 56081" d="M2028.941,2165.99a1.672,1.672,0,0,1-3.292,0h-.115c-.825,0-1.65.007-2.474,0a1.873,1.873,0,0,1-1.765-1.553,1.891,1.891,0,0,1,1.868-2.213c.083,0,.167,0,.251,0a.316.316,0,0,1,.306.33.319.319,0,0,1-.316.31,3.189,3.189,0,0,0-.557.043,1.227,1.227,0,0,0-.937,1.208,1.247,1.247,0,0,0,.921,1.2,1.282,1.282,0,0,0,.317.039c.808,0,1.616,0,2.425,0,.057,0,.094,0,.114-.075a1.663,1.663,0,0,1,3.214,0c.019.073.058.074.114.074h4.585a1.681,1.681,0,0,1,3.278,0c.147,0,.3,0,.447,0a.32.32,0,0,1,.118.617.346.346,0,0,1-.127.021c-.14,0-.28,0-.416,0a1.671,1.671,0,0,1-1.748,1.376,1.53,1.53,0,0,1-1.016-.417,1.69,1.69,0,0,1-.536-.955Zm6.3-1.311a1.023,1.023,0,1,0,1.028.969A1.021,1.021,0,0,0,2035.237,2164.68Zm-7.938,0a1.023,1.023,0,1,0,1.018,1.03A1.023,1.023,0,0,0,2027.3,2164.68Z" transform="translate(-3.522 -13.161)" fill="#cdc8c8" stroke="rgba(0,0,0,0)" stroke-width="1"/>
    <path id="Path_56082" data-name="Path 56082" d="M2043.549,2154.643c0,.217,0,.434,0,.651a.313.313,0,0,1-.26.311.308.308,0,0,1-.352-.181.452.452,0,0,1-.028-.166q0-.631,0-1.262a.311.311,0,0,1,.312-.342.316.316,0,0,1,.329.338C2043.551,2154.208,2043.549,2154.426,2043.549,2154.643Z" transform="translate(-14.159 -8.952)" fill="#cdc8c8" stroke="rgba(0,0,0,0)" stroke-width="1"/>
    <path id="Path_56083" data-name="Path 56083" d="M2045.741,2154.635c0-.213,0-.427,0-.64a.313.313,0,0,1,.332-.33.307.307,0,0,1,.309.332q0,.631,0,1.261a.324.324,0,1,1-.643,0c0-.207,0-.414,0-.621Z" transform="translate(-15.552 -8.957)" fill="#cdc8c8" stroke="rgba(0,0,0,0)" stroke-width="1"/>
    <path id="Path_56084" data-name="Path 56084" d="M2050.416,2146.914c.11-.2.21-.382.312-.565l.627-1.139a.329.329,0,0,1,.336-.2.319.319,0,0,1,.239.488c-.2.372-.407.743-.611,1.113q-.285.517-.57,1.033a.326.326,0,0,1-.6.026c-.21-.309-.423-.616-.632-.926a.319.319,0,0,1,.214-.511.33.33,0,0,1,.334.173C2050.177,2146.569,2050.292,2146.732,2050.416,2146.914Z" transform="translate(-17.379 -4.699)" fill="#cdc8c8" stroke="rgba(0,0,0,0)" stroke-width="1"/>
  </g>
</svg>
