<svg id="Order_History" xmlns="http://www.w3.org/2000/svg" xmlns:xlink="http://www.w3.org/1999/xlink" width="33.75" height="34.652" viewBox="0 0 33.75 34.652">
  <defs>
    <linearGradient id="linear-gradient" x1="0.5" x2="0.5" y2="1" gradientUnits="objectBoundingBox">
      <stop offset="0" stop-color="#8835d2"/>
      <stop offset="1" stop-color="#1b3d69"/>
    </linearGradient>
    <linearGradient id="linear-gradient-2" x1="0.171" y1="1" x2="0.42" y2="-0.267" gradientUnits="objectBoundingBox">
      <stop offset="0" stop-color="#7037bb"/>
      <stop offset="1" stop-color="#9662dd"/>
    </linearGradient>
  </defs>
  <path id="Path_56092" data-name="Path 56092" d="M809.5,282.409h2.809C811.367,282.405,810.432,282.4,809.5,282.409Z" transform="translate(-793.314 -252.462)" fill="none"/>
  <circle id="Ellipse_865" data-name="Ellipse 865" cx="2.133" cy="2.133" r="2.133" transform="translate(9.955 30.178)" fill="#1f3c6d"/>
  <circle id="Ellipse_866" data-name="Ellipse 866" cx="2.133" cy="2.133" r="2.133" transform="translate(24.276 30.386)" fill="#1f3c6d"/>
  <path id="Path_56093" data-name="Path 56093" d="M823.268,113.581c.655.371,1.3.753,1.958,1.128.327.188.618.134.765-.133s.041-.527-.271-.709c-.523-.306-1.043-.617-1.576-.907a.346.346,0,0,1-.207-.368c.012-.3,0-.607,0-.91s0-.607,0-.91c0-.352-.2-.583-.488-.584s-.492.23-.492.58c0,.754,0,1.509,0,2.263A.569.569,0,0,0,823.268,113.581Z" transform="translate(-804.713 -106.565)" fill="none"/>
  <path id="Path_56094" data-name="Path 56094" d="M832.765,109.435c.788.446,1.572.9,2.356,1.355a4.851,4.851,0,0,0,.647-1.051h.761c-.768-.451-1.535-.905-2.318-1.33a.57.57,0,0,1-.341-.607c.019-.5.005-1,.005-1.5s0-1,0-1.5c0-.581-.323-.962-.806-.964s-.811.38-.812.958c0,1.245.007,2.489,0,3.734A.938.938,0,0,0,832.765,109.435Z" transform="translate(-812.587 -101.183)" fill="none"/>
  <path id="Path_56095" data-name="Path 56095" d="M735.843,111.294a4.172,4.172,0,0,0-1.691-.327l-2.117,0a8.033,8.033,0,0,1-15.927,0q-1.574,0-3.148,0c-.928,0-1.855.12-2.91.193-.183-.591-.446-1.329-.633-2.087a2.019,2.019,0,0,0-.83-1.224c-1.058-.753-2.106-1.52-3.158-2.282a1.074,1.074,0,0,0-1.6.11c-.4.505-.309,1,.331,1.487q1.323,1.006,2.693,1.951a1.761,1.761,0,0,1,.744,1.008c1.561,5.305,3.144,10.6,4.709,15.908a5,5,0,0,0,1.882,2.441,3.935,3.935,0,0,0,2.547.759c4.144-.012,8.289,0,12.433,0a1.967,1.967,0,0,1,.722.075.43.43,0,0,1-.026.844,2.159,2.159,0,0,1-.725.063c-3.542,0-7.083-.018-10.624.022a5.753,5.753,0,0,0-2.139.4,3.447,3.447,0,0,0-1.809,1.71h5.209c.931-.005,1.866,0,2.809,0h6.706a6.454,6.454,0,0,0,.915-.073,2.557,2.557,0,0,0,.8-4.8,4.631,4.631,0,0,0-2.462-.344c-1.969-.018-3.937,0-5.906,0-1.762,0-3.524.014-5.286.005a2.75,2.75,0,0,1-2.037-.426c-.327-.3-.644-.6-1.012-.947a1.941,1.941,0,0,1,.315-.063c1.765.033,3.53.091,5.3.1,3.348.018,6.7-.01,10.045.02a4.934,4.934,0,0,0,3.687-1.385,5.6,5.6,0,0,0,1.326-2.573c.726-2.433,1.511-4.849,2.227-7.285A2.6,2.6,0,0,0,735.843,111.294Z" transform="translate(-703.592 -102.403)" fill="url(#linear-gradient)"/>
  <path id="Path_56096" data-name="Path 56096" d="M797.512,100.933a7.2,7.2,0,1,0-6.55-4.247A7.21,7.21,0,0,0,797.512,100.933Zm-.693-10.712c0-.519.3-.862.73-.86s.722.344.724.867c0,.45,0,.9,0,1.35s.013.9,0,1.35a.512.512,0,0,0,.306.545c.7.382,1.393.79,2.083,1.2l.253.149c.463.271.611.67.4,1.052-.217.4-.65.476-1.134.2l-.787-.455c-.7-.408-1.408-.816-2.117-1.218a.843.843,0,0,1-.461-.818C796.825,92.458,796.817,91.339,796.819,90.221Z" transform="translate(-777.068 -86.489)" fill="url(#linear-gradient-2)"/>
</svg>
