<svg id="order_processed" xmlns="http://www.w3.org/2000/svg" xmlns:xlink="http://www.w3.org/1999/xlink" width="24.505" height="20.295" viewBox="0 0 24.505 20.295">
  <defs>
    <clipPath id="clip-path">
      <rect id="Rectangle_17627" data-name="Rectangle 17627" width="24.506" height="20.295" fill="#cdc8c8" stroke="rgba(0,0,0,0)" stroke-width="1"/>
    </clipPath>
  </defs>
  <g id="Group_17859" data-name="Group 17859" clip-path="url(#clip-path)">
    <path id="Path_58026" data-name="Path 58026" d="M8.079,16.308c-.046.349-.093.663-.127.98-.043.4-.156.509-.555.509s-.79,0-1.185,0a.39.39,0,0,1-.455-.385c-.055-.349-.112-.7-.156-1.049-.015-.122-.069-.165-.179-.208-.424-.163-.839-.349-1.262-.513a.307.307,0,0,0-.248.024c-.3.206-.579.43-.869.644a.363.363,0,0,1-.558-.039Q2,15.789,1.517,15.3a.348.348,0,0,1-.043-.524c.217-.3.445-.585.655-.887a.307.307,0,0,0,.03-.247q-.252-.654-.535-1.3a.287.287,0,0,0-.183-.144C1.087,12.141.729,12.1.373,12.04A.383.383,0,0,1,0,11.613q0-.664,0-1.328a.322.322,0,0,1,.319-.371c.349-.056.7-.11,1.049-.151a.312.312,0,0,0,.294-.245c.147-.408.322-.806.5-1.2a.212.212,0,0,0-.021-.255c-.221-.285-.436-.575-.65-.865a.365.365,0,0,1,.045-.573Q2,6.159,2.462,5.7a.335.335,0,0,1,.522-.037q.424.319.838.652a.229.229,0,0,0,.286.03c.406-.187.821-.356,1.238-.517.107-.042.165-.078.18-.2.04-.344.1-.686.152-1.029.042-.287.157-.4.442-.4q.644,0,1.287,0c.3,0,.421.116.464.423.048.343.1.687.159,1.027a.287.287,0,0,0,.153.173q.643.281,1.3.538a.259.259,0,0,0,.21-.026c.3-.212.59-.439.885-.657a.349.349,0,0,1,.554.038q.465.459.925.924a.384.384,0,0,1,.044.579c-.209.277-.421.553-.641.821a.242.242,0,0,0-.031.3q.278.6.509,1.219a.244.244,0,0,0,.218.194c.317.042.632.092.949.134.366.047.471.16.472.529,0,.4,0,.8,0,1.205,0,.3-.1.415-.4.461-.349.054-.7.1-1.048.163a.264.264,0,0,0-.169.132q-.289.661-.554,1.333a.264.264,0,0,0,.039.211c.209.294.431.579.645.869a.36.36,0,0,1-.044.571q-.438.443-.881.881a.433.433,0,0,1-.666.035c-.264-.2-.531-.4-.788-.617a.206.206,0,0,0-.272-.021c-.188.107-.384.2-.615.318l5.33,3.355c.006-.139.014-.231.014-.324,0-2.635,0-5.271,0-7.906a.6.6,0,0,1,.356-.612c1.01-.533,2.006-1.094,3.008-1.645.058-.032.115-.068.2-.119-.128-.073-.231-.135-.336-.193q-4.3-2.345-8.6-4.692a.683.683,0,0,1-.276-.253c-.1-.194,0-.38.238-.51l2.708-1.47c.927-.5,1.856-1,2.777-1.513a.483.483,0,0,1,.529,0q2.271,1.248,4.55,2.482,2.41,1.313,4.822,2.623a.612.612,0,0,1,.371.608q-.018,4.525,0,9.05a.374.374,0,0,1-.228.382q-4.694,2.494-9.384,5a.585.585,0,0,1-.631-.04Q11.3,18.321,8.346,16.469c-.079-.049-.16-.1-.267-.161M23.807,6.183c-.067.026-.1.035-.128.051-.789.428-1.577.859-2.369,1.281a.234.234,0,0,0-.122.251c0,.9,0,1.8,0,2.7a.5.5,0,0,1-.292.489c-.723.394-1.439.8-2.159,1.2-.352.2-.6.047-.6-.36,0-.749,0-1.5,0-2.247V9.3c-.083.035-.133.051-.178.076-.983.541-1.965,1.086-2.95,1.622a.27.27,0,0,0-.142.283q0,3.892,0,7.783c0,.07.01.14.018.233.085-.04.141-.064.194-.092q4.287-2.3,8.574-4.606a.278.278,0,0,0,.168-.286q-.005-3.953,0-7.906c0-.066-.006-.131-.011-.226M.729,11.356l1.167.153a.383.383,0,0,1,.357.337,4.673,4.673,0,0,0,.676,1.629.4.4,0,0,1-.032.573l-.694.9c.186.165.362.314.528.472a.156.156,0,0,0,.244.01c.233-.189.473-.368.71-.55a.479.479,0,0,1,.683-.036,4.612,4.612,0,0,0,1.461.608c.313.066.413.192.447.515.037.35.085.7.13,1.071.242,0,.472.006.7-.006.042,0,.108-.077.116-.125.049-.329.088-.66.125-.991s.085-.39.411-.459a4.284,4.284,0,0,0,1.585-.673.365.365,0,0,1,.484.016c.3.242.613.474.937.723.137-.157.259-.311.4-.452.093-.1.076-.167,0-.261-.184-.228-.359-.463-.537-.694a.473.473,0,0,1-.039-.682,4.6,4.6,0,0,0,.613-1.48.45.45,0,0,1,.446-.423c.27-.036.54-.065.81-.092.332-.033.333-.031.333-.354,0-.116-.009-.232,0-.347.015-.154-.059-.2-.2-.213-.325-.032-.648-.075-.972-.118a.4.4,0,0,1-.419-.391,4.27,4.27,0,0,0-.655-1.57.355.355,0,0,1,.014-.531l.676-.88-.572-.589-.817.627a.477.477,0,0,1-.668.031,4.72,4.72,0,0,0-1.52-.625.439.439,0,0,1-.385-.432C7.251,5.86,7.23,5.67,7.2,5.483s-.012-.455-.126-.545S6.7,4.907,6.5,4.9h-.02c-.106-.005-.156.035-.167.151-.033.338-.08.675-.12,1.013a.408.408,0,0,1-.355.411,4.444,4.444,0,0,0-1.625.682.386.386,0,0,1-.517-.025c-.3-.239-.6-.465-.885-.683l-.588.569c.219.285.439.578.665.867a.428.428,0,0,1,.051.529,5.067,5.067,0,0,0-.7,1.706.285.285,0,0,1-.287.243c-.108.007-.216.025-.324.039l-.895.115Zm11.2-9.226c.092.055.149.091.208.123q4.243,2.336,8.486,4.675a.305.305,0,0,0,.337,0c.744-.411,1.493-.813,2.239-1.219.057-.031.111-.068.187-.116-.065-.043-.106-.076-.151-.1q-4.29-2.335-8.58-4.672a.275.275,0,0,0-.3.007c-.639.348-1.281.69-1.922,1.034l-.5.271m-2.377,1.3c.115.066.195.113.276.157q4.356,2.365,8.713,4.726a.526.526,0,0,1,.309.521c-.008.735,0,1.47,0,2.205,0,.07.008.14.014.242.531-.3,1.031-.572,1.522-.86a.275.275,0,0,0,.079-.206c.005-.8,0-1.606.007-2.409a.276.276,0,0,0-.176-.282c-.457-.242-.907-.5-1.36-.743q-3.8-2.083-7.6-4.168a.3.3,0,0,0-.336,0c-.28.168-.569.32-.854.479-.188.105-.374.212-.593.336" transform="translate(0 0)" fill="#cdc8c8" stroke="rgba(0,0,0,0)" stroke-width="1"/>
    <path id="Path_58027" data-name="Path 58027" d="M29.98,68.645a3.25,3.25,0,1,1,3.234,3.271,3.269,3.269,0,0,1-3.234-3.271m5.783.018a2.539,2.539,0,0,0-5.078-.015,2.539,2.539,0,1,0,5.078.015" transform="translate(-26.441 -57.683)" fill="#cdc8c8" stroke="rgba(0,0,0,0)" stroke-width="1"/>
  </g>
</svg>
