<svg xmlns="http://www.w3.org/2000/svg" width="22.803" height="22.908" viewBox="0 0 22.803 22.908">
  <g id="order_confirmation" transform="translate(-2152.777 -2140.177)">
    <path id="Path_56085" data-name="Path 56085" d="M2160.292,2155.332c.185-.237.367-.466.544-.7.242-.316.479-.637.721-.954.135-.177.191-.182.371-.048.158.117.313.237.47.354a.2.2,0,0,1,.044.319q-.945,1.239-1.89,2.48c-.116.151-.2.156-.341.021-.344-.341-.684-.685-1.029-1.026a.208.208,0,0,1,.007-.349c.148-.138.29-.284.431-.429a.2.2,0,0,1,.323,0C2160.051,2155.109,2160.162,2155.209,2160.292,2155.332Zm1.5-1.366c-.05.062-.091.11-.129.161q-.584.762-1.167,1.527c-.135.175-.208.179-.365.032-.117-.11-.232-.223-.357-.344l-.218.235.832.846,1.7-2.234Z" transform="translate(-1.101 -2.435)" fill="#cdc8c8" stroke="rgba(0,0,0,0)" stroke-width="1"/>
    <path id="Path_56086" data-name="Path 56086" d="M2161.254,2151.955a2.885,2.885,0,0,1,2.739,2.721c.009.137.042.3-.158.316s-.183-.172-.191-.3a2.423,2.423,0,0,0-.437-1.281,2.478,2.478,0,0,0-1.979-1.108.684.684,0,0,1-.217-.031.176.176,0,0,1-.055-.161c0-.128.083-.144.159-.153A1.006,1.006,0,0,1,2161.254,2151.955Z" transform="translate(-1.454 -2.136)" fill="#cdc8c8" stroke="rgba(0,0,0,0)" stroke-width="1"/>
    <circle id="Ellipse_85" data-name="Ellipse 85" cx="0.211" cy="0.211" r="0.211" transform="translate(2155.605 2158.736)" fill="#cdc8c8" stroke="rgba(0,0,0,0)" stroke-width="1"/>
    <circle id="Ellipse_86" data-name="Ellipse 86" cx="0.211" cy="0.211" r="0.211" transform="translate(2168.726 2156.062)" fill="#cdc8c8" stroke="rgba(0,0,0,0)" stroke-width="1"/>
    <circle id="Ellipse_87" data-name="Ellipse 87" cx="0.211" cy="0.211" r="0.211" transform="translate(2167.224 2147.691)" fill="#cdc8c8" stroke="rgba(0,0,0,0)" stroke-width="1"/>
    <rect id="Rectangle_17410" data-name="Rectangle 17410" width="6.983" height="0.334" transform="translate(2155.882 2143.959)" fill="#cdc8c8" stroke="rgba(0,0,0,0)" stroke-width="1"/>
    <rect id="Rectangle_17411" data-name="Rectangle 17411" width="6.983" height="0.334" transform="translate(2155.914 2144.681)" fill="#cdc8c8" stroke="rgba(0,0,0,0)" stroke-width="1"/>
    <rect id="Rectangle_17412" data-name="Rectangle 17412" width="6.983" height="0.334" transform="translate(2155.882 2146.604)" fill="#cdc8c8" stroke="rgba(0,0,0,0)" stroke-width="1"/>
    <rect id="Rectangle_17413" data-name="Rectangle 17413" width="6.983" height="0.334" transform="translate(2155.914 2147.326)" fill="#cdc8c8" stroke="rgba(0,0,0,0)" stroke-width="1"/>
    <rect id="Rectangle_17414" data-name="Rectangle 17414" width="3.131" height="0.334" transform="translate(2156.4 2158.762)" fill="#cdc8c8" stroke="rgba(0,0,0,0)" stroke-width="1"/>
    <rect id="Rectangle_17415" data-name="Rectangle 17415" width="3.241" height="0.334" transform="translate(2161.774 2159.55) rotate(28.676)" fill="#cdc8c8" stroke="rgba(0,0,0,0)" stroke-width="1"/>
    <path id="Path_56087" data-name="Path 56087" d="M2174.9,2150.961c-.555-.293-1.1-.6-1.662-.889a.36.36,0,0,1-.221-.378c.008-1.664,0-3.328.008-4.991a.333.333,0,0,0-.2-.34q-2.2-1.178-4.385-2.373a.432.432,0,0,0-.47,0q-2.153,1.176-4.318,2.333a.459.459,0,0,0-.277.475c.01,1.657.007,3.314,0,4.971,0,.072-.011.18-.056.208-.273.164-.558.308-.834.458a3.619,3.619,0,0,0-6.131,3.732,3.5,3.5,0,0,0,1.691,1.764,3.614,3.614,0,0,0,3.261-.006v2.07h-7.669v-16.955H2165.1c0,.4,0,.794,0,1.186,0,.138,0,.278,0,.417l0,.012v.253a.178.178,0,0,0,.357,0v-.065c0-.017,0-.032,0-.05v-.138l0-.011c0-.545,0-1.09,0-1.635,0-.3-.026-.327-.32-.327h-11.515c-.322,0-.34.017-.34.348q0,8.5,0,17c0,.312.021.331.337.331h7.711c0,.133.006.238,0,.341a.3.3,0,0,0,.184.312q3.266,1.76,6.528,3.529a.309.309,0,0,0,.329.006q3.27-1.774,6.545-3.54a.281.281,0,0,0,.168-.279q0-3.732,0-7.466A.293.293,0,0,0,2174.9,2150.961Zm-2.237-6.065c0,.084.011.141.011.2v4.5c0,.1,0,.182-.109.244q-2.008,1.076-4.008,2.163c-.045.024-.093.044-.182.087v-.459q0-2.123,0-4.244a.252.252,0,0,1,.143-.265q1.981-1.063,3.958-2.135C2172.531,2144.955,2172.59,2144.932,2172.666,2144.9Zm-8.417-.489q1.906-1.033,3.816-2.059a.3.3,0,0,1,.245-.019q2.025,1.083,4.041,2.181c.034.019.065.042.117.077-.446.242-.875.477-1.305.709-.944.51-1.888,1.021-2.835,1.525a.281.281,0,0,1-.227.012q-2.032-1.088-4.058-2.191c-.027-.015-.052-.036-.1-.068C2164.058,2144.513,2164.153,2144.458,2164.25,2144.407Zm-.517.662c0-.051.007-.1.012-.182.356.191.7.37,1.033.553q1.545.836,3.09,1.67a.266.266,0,0,1,.166.273c0,1.519,0,3.037,0,4.556a1.26,1.26,0,0,1-.016.142c-.144-.071-.278-.13-.407-.2q-1.852-1-3.706-2.009a.266.266,0,0,1-.175-.266C2163.735,2148.092,2163.733,2146.581,2163.733,2145.069Zm-4.091,10.894a3.265,3.265,0,1,1,3.291-3.263A3.28,3.28,0,0,1,2159.642,2155.962Zm8.39,5.962c0,.051-.006.1-.011.188-.09-.044-.165-.077-.236-.115q-2.936-1.585-5.873-3.169a.391.391,0,0,1-.238-.407c.013-.85,0-1.7.01-2.553a.349.349,0,0,1,.105-.246,3.609,3.609,0,0,0,1.48-3.114c0-.051,0-.1,0-.185.357.189.691.363,1.021.542,1.191.645,2.38,1.293,3.572,1.936a.268.268,0,0,1,.173.268Q2168.026,2158.5,2168.031,2161.925Zm.288-7.4a.283.283,0,0,1-.228,0q-2.411-1.294-4.815-2.6a.237.237,0,0,1-.106-.1c-.145-.362-.284-.726-.435-1.118.291-.157.609-.334.933-.5a.209.209,0,0,1,.16.027q1.633.878,3.263,1.762c.321.174.646.344.964.524a.324.324,0,0,0,.348-.024c1.367-.743,2.737-1.481,4.1-2.229a.338.338,0,0,1,.374,0c.474.266.954.52,1.432.778.062.034.122.07.2.117-.061.04-.1.07-.143.093-.656.356-1.313.708-1.966,1.068a.309.309,0,0,1-.341,0c-.376-.213-.762-.407-1.137-.621a.359.359,0,0,0-.4,0c-.381.216-.772.413-1.153.629a.318.318,0,0,0-.152.2c0,.057.082.143.146.18.363.2.732.4,1.146.624l-1.261.683C2168.943,2154.191,2168.636,2154.363,2168.319,2154.521Zm2.889-1.159c.274-.136.541-.289.841-.45.005.093.012.151.013.208,0,.923,0,1.844,0,2.765a.262.262,0,0,1-.159.278c-.273.135-.537.286-.83.443-.007-.086-.016-.141-.016-.2,0-.928,0-1.856,0-2.786A.247.247,0,0,1,2171.208,2153.362Zm-.283-.248a.114.114,0,0,1-.091-.006c-.35-.187-.7-.377-1.078-.582.325-.178.615-.34.91-.493a.178.178,0,0,1,.145.008c.34.18.678.365,1.051.569C2171.532,2152.789,2171.229,2152.954,2170.926,2153.114Zm3.636,5.678q-2.993,1.606-5.978,3.225c-.056.03-.114.055-.206.1v-.254q0-3.379,0-6.758a.308.308,0,0,1,.192-.316c.659-.348,1.313-.707,1.97-1.061.044-.024.092-.044.176-.083v.227c0,.969.01,1.938-.006,2.908,0,.288.146.365.374.23a11.452,11.452,0,0,1,1.037-.559.482.482,0,0,0,.3-.521c-.013-1.008,0-2.017-.009-3.025a.275.275,0,0,1,.171-.286c.654-.346,1.3-.7,1.953-1.054.05-.026.1-.049.194-.092v.292q0,3.36,0,6.719A.3.3,0,0,1,2174.562,2158.792Z" transform="translate(0)" fill="#cdc8c8" stroke="rgba(0,0,0,0)" stroke-width="1"/>
    <rect id="Rectangle_17416" data-name="Rectangle 17416" width="0.355" height="3.189" transform="translate(2167.292 2148.283)" fill="#cdc8c8" stroke="rgba(0,0,0,0)" stroke-width="1"/>
    <rect id="Rectangle_17417" data-name="Rectangle 17417" width="0.355" height="3.189" transform="translate(2168.76 2156.713)" fill="#cdc8c8" stroke="rgba(0,0,0,0)" stroke-width="1"/>
  </g>
</svg>
