<svg id="out_for_delivery" xmlns="http://www.w3.org/2000/svg" xmlns:xlink="http://www.w3.org/1999/xlink" width="21.308" height="21.638" viewBox="0 0 21.308 21.638">
  <defs>
    <clipPath id="clip-path">
      <rect id="Rectangle_17628" data-name="Rectangle 17628" width="21.307" height="21.637" fill="#cdc8c8"/>
    </clipPath>
  </defs>
  <g id="Group_17861" data-name="Group 17861" clip-path="url(#clip-path)">
    <path id="Path_58028" data-name="Path 58028" d="M352.495,218.241c.06.5.12.97.174,1.443.061.527.122,1.055.173,1.583a.306.306,0,0,1-.3.343c-.522.061-1.044.122-1.565.188-.342.043-.466-.066-.5-.407-.048-.475-.117-.947-.171-1.422-.046-.4-.083-.8-.125-1.2-.027-.26-.029-.262-.29-.238-.16.015-.32.038-.48.057a.314.314,0,0,1-.332-.145.285.285,0,0,1,.023-.343q.758-1.1,1.515-2.2c.042-.062.086-.123.129-.184.162-.227.323-.247.533-.058q.655.589,1.305,1.183c.265.24.527.482.794.719a.339.339,0,0,1,.134.383.322.322,0,0,1-.326.209c-.223.019-.445.058-.691.092m-1.428,2.883a.158.158,0,0,0,.051.016c.336-.033.672-.065,1.007-.107.027,0,.068-.076.065-.114-.012-.166-.04-.33-.059-.495-.094-.8-.187-1.6-.282-2.395a.331.331,0,0,1,.29-.371c.109-.012.217-.027.326-.041l.012-.045-1.4-1.265-1.1,1.6c.144-.022.237-.039.331-.05.252-.028.379.065.408.314.086.713.165,1.426.249,2.139.032.271.068.54.1.81" transform="translate(-337.786 -208.585)" fill="#cdc8c8"/>
    <path id="Path_58029" data-name="Path 58029" d="M228.043,573.449a.307.307,0,0,1-.276.29.315.315,0,0,1-.333-.3c-.042-.33-.081-.66-.114-.991-.021-.21.077-.34.253-.361a.3.3,0,0,1,.358.286c.043.335.071.672.113,1.072" transform="translate(-219.993 -553.657)" fill="#cdc8c8"/>
    <path id="Path_58030" data-name="Path 58030" d="M98.691,31.685l.2,1.431H99.5l-.219-1.941Z" transform="translate(-95.512 -30.17)" fill="#cdc8c8"/>
    <path id="Path_58031" data-name="Path 58031" d="M115.724,7.563a2.875,2.875,0,0,1,1.186.551c.4.386.368-.368.368-.368l-1.355-.578Z" transform="translate(-111.996 -6.937)" fill="#cdc8c8"/>
    <path id="Path_58032" data-name="Path 58032" d="M308.563,442.271l.1.538,1.632-.2-.2-.6-1.538.181Z" transform="translate(-298.623 -427.777)" fill="#cdc8c8"/>
    <path id="Path_58033" data-name="Path 58033" d="M574.238,175.824l.377,3.212.6-.066-.367-3.213Z" transform="translate(-555.738 -170.095)" fill="#cdc8c8"/>
    <path id="Path_58034" data-name="Path 58034" d="M21.3,15.374c-.07-.634-.139-1.269-.213-1.9a.314.314,0,0,0-.37-.293c-.187.014-.374.031-.56.058-.122.018-.172-.017-.186-.145-.054-.517-.118-1.033-.176-1.55-.055-.485-.1-.97-.161-1.455-.088-.751-.209-1.5-.259-2.253-.024-.367-.264-.567-.44-.824a.156.156,0,0,0-.256.125.918.918,0,0,0,.1.3,1.742,1.742,0,0,0,.164.233.058.058,0,0,1-.026.089l-.125.048a.058.058,0,0,0-.037.061l.624,5.4a.058.058,0,0,1-.048.064c-.131.02-.242.04-.353.052-.485.055-.971.1-1.456.16-.74.087-1.48.181-2.22.268-.666.078-1.332.15-2,.226l-2.238.257c-.1.011-.216-.023-.213.141,0,.014-.048.041-.075.043-.091.006-.115.054-.117.138a.089.089,0,0,1-.025.05.057.057,0,0,1-.086,0,.11.11,0,0,1-.032-.054,1.108,1.108,0,0,1,0-.189.058.058,0,0,0-.065-.059l-.33.041-1.376.17c-.219.027-.233.016-.259-.2q-.094-.823-.191-1.646Q8.146,11.483,8,10.244q-.092-.791-.184-1.582c-.065-.565-.129-1.129-.2-1.694-.01-.088.017-.123.11-.132.288-.027.575-.064.863-.1.932-.111,1.863-.224,2.8-.333.73-.085,1.46-.161,2.19-.246.927-.108,1.853-.221,2.779-.331q.807-.1,1.614-.187c.149-.017.3-.032.452-.047a.058.058,0,0,1,.063.051l.141,1.138a.058.058,0,0,0,.084.044.313.313,0,0,1,.436.127.058.058,0,0,0,.1-.048,1.194,1.194,0,0,0-.182-.309.058.058,0,0,1,.023-.08c.147-.083.077-.242.071-.382a4.282,4.282,0,0,0-.055-.472c-.018-.117.017-.164.135-.171.187-.011.373-.036.559-.062a.334.334,0,0,0,.306-.332c-.027-.272-.061-.544-.094-.815-.09-.751-.183-1.5-.269-2.252-.03-.261-.137-.36-.4-.334-.245.024-.49.056-.735.083-.751.085-1.5.167-2.254.254-.916.106-1.832.219-2.748.325-.48.056-.96.1-1.44.158-.751.088-1.5.183-2.252.271-.65.076-1.3.147-1.95.221q-.855.1-1.71.2c-.087.01-.129-.019-.138-.109-.028-.272-.073-.543-.091-.815A2.266,2.266,0,0,0,5.179.6a2.631,2.631,0,0,0-1.9-.6C2.466.069,1.658.188.85.291A1.159,1.159,0,0,0,.41.424.823.823,0,0,0,.918,1.955c.507-.047,1.012-.114,1.518-.172.238-.027.476-.051.727-.078a.058.058,0,0,1,.064.055c.012.2.2.229.324.326a.058.058,0,0,1-.024.1H3.518c-.214-.023-.226-.019-.2.2.043.427.1.852.146,1.279L3.847,7.02q.193,1.67.386,3.34t.388,3.356q.213,1.838.429,3.675a.282.282,0,0,0,.332.286c.109,0,.217-.012.348-.022a.058.058,0,0,1,.049.094,2.362,2.362,0,0,0-.494,1.667,2.269,2.269,0,0,0,.834,1.641,2.393,2.393,0,0,0,3.05.062,2.284,2.284,0,0,0,.887-1.494,2.392,2.392,0,0,0-.87-2.284.058.058,0,0,1,.029-.1l.079-.011c.73-.082,1.46-.161,2.19-.246.948-.11,1.9-.226,2.843-.336.719-.084,1.439-.16,2.158-.244.937-.109,1.874-.224,2.811-.335.57-.067,1.14-.13,1.71-.2.193-.023.287-.11.3-.273a1.257,1.257,0,0,0-.006-.225M2.9,1.189.93,1.371A.264.264,0,0,1,.881.845L2.85.663a.264.264,0,0,1,.049.526M7.853,14.215c0,.025,0,.05.006.076.016.381.054.38-.251.394-.029,0-.057,0-.091,0a.058.058,0,0,1-.057-.05c-.029-.22-.058-.436-.084-.652Q7.239,12.793,7.1,11.6c-.074-.655-.143-1.31-.219-1.965C6.8,8.92,6.712,8.2,6.627,7.483c-.016-.134-.021-.27-.036-.4a.118.118,0,0,1,.12-.134c.07,0,.141,0,.224-.009A.065.065,0,0,1,7,6.991c.026.185.054.365.075.546q.195,1.661.386,3.322.195,1.678.389,3.356M6.264,3.827,19.1,2.338a.058.058,0,0,1,.064.05c.032.235.063.455.09.675.065.543.123,1.087.192,1.629.016.125-.017.17-.144.184q-1.527.165-3.053.342c-1.006.117-2.012.245-3.018.362-.66.077-1.323.137-1.983.213-.7.082-1.4.177-2.107.261-.644.077-1.289.146-1.934.219-.21.024-.42.051-.649.079A.058.058,0,0,1,6.5,6.3l-.282-2.41a.058.058,0,0,1,.051-.064M9.478,19.234a1.8,1.8,0,1,1-1.793-1.805,1.808,1.808,0,0,1,1.793,1.805m11.05-3.919q-1.511.163-3.022.339c-.714.083-1.426.177-2.14.261-.65.076-1.3.144-1.95.219-.751.087-1.5.18-2.253.266-.661.076-1.322.144-1.982.22-.708.082-1.416.173-2.124.257-.45.053-.9.1-1.373.152a.058.058,0,0,1-.064-.049c-.028-.189-.057-.37-.078-.553q-.193-1.645-.381-3.291c-.107-.943-.205-1.887-.313-2.83-.083-.724-.179-1.447-.263-2.171-.076-.655-.142-1.311-.217-1.966-.082-.708-.172-1.416-.255-2.124-.079-.676-.149-1.354-.23-2.03a.294.294,0,0,0-.106-.173c-.191-.151-.2-.272-.034-.431a.211.211,0,0,0,.051-.15c-.012-.17-.034-.339-.058-.548A.058.058,0,0,1,3.81.648c.166.043.31.082.455.117a.539.539,0,0,0,.17.019.187.187,0,0,1,.222.135.36.36,0,0,0,.12.136A1.887,1.887,0,0,1,5.439,2.43c.085.832.184,1.663.277,2.494.072.645.142,1.29.218,1.934.083.714.175,1.426.257,2.14.11.959.212,1.919.322,2.878.082.714.172,1.427.257,2.14q.061.511.118,1.023c.024.221.137.333.36.31.464-.046.926-.109,1.39-.162.671-.076,1.343-.147,2.014-.223a1.789,1.789,0,0,0,.283-.052c.03-.008.051-.055.072-.086.01-.015.019-.03.029-.046a.058.058,0,0,1,.1-.006c.011.015.023.03.033.045a.091.091,0,0,1,.011.028.058.058,0,0,0,.063.043c.169-.021.337-.044.506-.063.778-.087,1.556-.17,2.334-.261.724-.084,1.447-.18,2.171-.264.65-.076,1.3-.141,1.95-.216q1.062-.123,2.123-.26c.138-.018.187.009.2.157.032.384.082.767.132,1.15.014.11,0,.166-.128.18" transform="translate(0 -0.001)" fill="#cdc8c8"/>
  </g>
</svg>
