<svg xmlns="http://www.w3.org/2000/svg" width="17.013" height="12.959" viewBox="0 0 17.013 12.959">
  <g id="profile_email" style="isolation: isolate">
    <g id="Group" transform="translate(0 0)">
      <path id="Vector" d="M15.518,0H1.5A1.5,1.5,0,0,0,0,1.5v9.969a1.5,1.5,0,0,0,1.5,1.5H15.518a1.5,1.5,0,0,0,1.5-1.5V1.5A1.5,1.5,0,0,0,15.518,0Zm-.206,1L8.538,7.77,1.707,1ZM1,11.258V1.7l4.8,4.76Zm.7.7,4.8-4.8L8.189,8.827a.5.5,0,0,0,.7,0l1.641-1.641,4.778,4.778Zm14.315-.7L11.239,6.48,16.016,1.7Z" fill="#1cb5b5"/>
    </g>
  </g>
</svg>
