<svg xmlns="http://www.w3.org/2000/svg" width="23.954" height="22.243" viewBox="0 0 23.954 22.243">
  <path id="ratting" d="M25.3,11.075H17.43L15.04,3.942a.866.866,0,0,0-1.625,0l-2.39,7.133H3.106a.858.858,0,0,0-.856.856.629.629,0,0,0,.016.144.822.822,0,0,0,.358.6l6.464,4.556L6.608,24.447a.858.858,0,0,0,.294.962.827.827,0,0,0,.481.209,1.048,1.048,0,0,0,.535-.192l6.309-4.5,6.309,4.5a1,1,0,0,0,.535.192.768.768,0,0,0,.476-.209.847.847,0,0,0,.294-.962L19.36,17.234l6.411-4.6.155-.134a.9.9,0,0,0,.278-.572A.906.906,0,0,0,25.3,11.075Zm-6.8,4.946a1.5,1.5,0,0,0-.545,1.7l1.609,4.689a.215.215,0,0,1-.326.246L15.093,19.7a1.494,1.494,0,0,0-.872-.278,1.466,1.466,0,0,0-.866.278L9.217,22.651a.214.214,0,0,1-.326-.246L10.5,17.715A1.507,1.507,0,0,0,9.95,16L5.619,12.951a.215.215,0,0,1,.123-.39h5.277a1.5,1.5,0,0,0,1.417-1.021l1.583-4.716a.215.215,0,0,1,.406,0l1.583,4.716a1.5,1.5,0,0,0,1.417,1.021h5.2a.212.212,0,0,1,.123.385Z" transform="translate(-2.25 -3.375)" fill="#ffbd08"/>
</svg>
