<svg id="ready_to_ship" xmlns="http://www.w3.org/2000/svg" xmlns:xlink="http://www.w3.org/1999/xlink" width="22.447" height="16.165" viewBox="0 0 22.447 16.165">
  <defs>
    <clipPath id="clip-path">
      <rect id="Rectangle_17629" data-name="Rectangle 17629" width="22.447" height="16.165" fill="#cdc8c8" stroke="rgba(0,0,0,0)" stroke-width="1"/>
    </clipPath>
  </defs>
  <g id="Group_17863" data-name="Group 17863" clip-path="url(#clip-path)">
    <path id="Path_58035" data-name="Path 58035" d="M88.548,79.581,92.7,75.392l.6.625c-.021.023-.065.077-.114.127q-2.118,2.119-4.236,4.236c-.308.308-.506.306-.818-.005-.709-.707-1.417-1.416-2.115-2.113l.612-.613,1.919,1.932" transform="translate(-82.24 -72.082)" fill="#cdc8c8" stroke="rgba(0,0,0,0)" stroke-width="1"/>
    <path id="Path_58036" data-name="Path 58036" d="M371.2,126.314c-.57,0-1.14,0-1.71,0-.367,0-.515-.151-.515-.521q0-1.271,0-2.543c0-.349.156-.509.509-.511.694,0,1.388,0,2.082,0a.532.532,0,0,1,.523.323c.422.849.852,1.695,1.275,2.544a.448.448,0,0,1-.432.71c-.577,0-1.154,0-1.732,0Zm1.046-.884c0-.027.011-.044.005-.054-.274-.557-.548-1.113-.827-1.667a.163.163,0,0,0-.116-.079c-.48-.005-.96,0-1.45,0v1.8Z" transform="translate(-352.773 -117.347)" fill="#cdc8c8" stroke="rgba(0,0,0,0)" stroke-width="1"/>
    <path id="Path_58037" data-name="Path 58037" d="M21.361,5.3c-.164-.326-.338-.648-.5-.978a1.193,1.193,0,0,0-1.173-.726q-2.074,0-4.147,0h-.261c0-.093-.011-.17-.011-.247,0-.695,0-1.39,0-2.085A1.121,1.121,0,0,0,14.018,0c-1.88,0-3.759,0-5.639,0Q4.858,0,1.336,0A1.2,1.2,0,0,0,0,.918V13.5a1.228,1.228,0,0,0,1.377.87c.152-.01.3,0,.45,0,.525,1.274,1.209,1.813,2.271,1.8a2.3,2.3,0,0,0,2.156-1.788h9.969c.023.063.05.129.071.2a2.23,2.23,0,0,0,4.264.035.289.289,0,0,1,.352-.246,2.722,2.722,0,0,0,.613-.011,1.166,1.166,0,0,0,.925-.768V7.458Q21.9,6.372,21.361,5.3m-17.319,10A1.381,1.381,0,0,1,2.683,13.91a1.362,1.362,0,1,1,1.359,1.381m10.067-1.8q-3.83,0-7.66,0a.224.224,0,0,1-.259-.19A2.232,2.232,0,0,0,1.9,13.3c-.042.144-.1.212-.254.2-.123-.013-.248,0-.373-.006-.322,0-.39-.067-.391-.383q0-1.514,0-3.029,0-4.378,0-8.757c0-.4.044-.441.438-.441H14.007c.338,0,.394.056.394.394q0,5.959,0,11.917c0,.3,0,.3-.294.3m4.338,1.8A1.363,1.363,0,1,1,19.8,13.946a1.39,1.39,0,0,1-1.352,1.345m2.758-1.8c-.175,0-.385.05-.515-.029-.114-.068-.14-.285-.2-.435a2.234,2.234,0,0,0-4.178.221c-.057.189-.129.268-.328.246a2.294,2.294,0,0,0-.46,0c-.191.017-.25-.048-.248-.245.01-1.039,0-2.078,0-3.117q0-2.721,0-5.443c0-.064.007-.128.012-.205.085,0,.156-.01.227-.01,1.383,0,2.765,0,4.148,0a.409.409,0,0,1,.425.261c.467.943.95,1.878,1.42,2.819a.828.828,0,0,1,.087.354c.006,1.726,0,3.453,0,5.179,0,.328-.071.4-.4.406" transform="translate(0 0)" fill="#cdc8c8" stroke="rgba(0,0,0,0)" stroke-width="1"/>
  </g>
</svg>
