<svg xmlns="http://www.w3.org/2000/svg" width="40.381" height="30.672" viewBox="0 0 40.381 30.672">
  <g id="reviews" transform="translate(-29 -567.339)">
    <g id="Group_17219" data-name="Group 17219" transform="translate(29 567.339)">
      <g id="Group_17214" data-name="Group 17214" transform="translate(0 2.109)">
        <path id="Path_56109" data-name="Path 56109" d="M245.255,246.88l3.937,7.978a.445.445,0,0,0,.335.243l8.8,1.279a.445.445,0,0,1,.246.758l-6.37,6.21a.445.445,0,0,0-.128.394l1.5,8.768a.445.445,0,0,1-.645.469l-7.874-4.14a.445.445,0,0,0-.414,0l-7.874,4.14a.445.445,0,0,1-.645-.469l1.5-8.768a.445.445,0,0,0-.128-.394l-6.37-6.21a.445.445,0,0,1,.246-.758l8.8-1.279a.445.445,0,0,0,.335-.243l3.937-7.978A.445.445,0,0,1,245.255,246.88Z" transform="translate(-231 -246.632)" fill="#f3cc30"/>
        <g id="Group_17213" data-name="Group 17213" transform="translate(1.793 2.091)">
          <path id="Path_56110" data-name="Path 56110" d="M285.755,296.423l-3.509,6.8a1.175,1.175,0,0,1-.937.631l-7.618.7,8.048.376a1.174,1.174,0,0,0,1.156-.766Z" transform="translate(-273.692 -296.423)" fill="#f7db5e"/>
        </g>
        <path id="Path_56111" data-name="Path 56111" d="M353.182,484.142l-.173,1.009a.445.445,0,0,0,.645.469l7.874-4.14a.445.445,0,0,1,.414,0l7.874,4.14a.445.445,0,0,0,.645-.469l-1.5-8.768a.445.445,0,0,1,.128-.394l6.37-6.21a.445.445,0,0,0-.246-.758l-2.949-.428C367.492,477.152,360.189,481.659,353.182,484.142Z" transform="translate(-347.88 -459.274)" fill="#edbd31"/>
      </g>
      <g id="Group_17217" data-name="Group 17217" transform="translate(27.421 0)">
        <path id="Path_56109-2" data-name="Path 56109" d="M237.041,246.737l1.669,3.381a.188.188,0,0,0,.142.1l3.731.542a.188.188,0,0,1,.1.321l-2.7,2.632a.188.188,0,0,0-.054.167l.637,3.716a.188.188,0,0,1-.273.2l-3.337-1.754a.188.188,0,0,0-.175,0l-3.337,1.754a.188.188,0,0,1-.273-.2l.637-3.716a.189.189,0,0,0-.054-.167l-2.7-2.632a.188.188,0,0,1,.1-.321l3.731-.542a.189.189,0,0,0,.142-.1l1.669-3.381A.188.188,0,0,1,237.041,246.737Z" transform="translate(-231 -246.632)" fill="#f3cc30"/>
        <g id="Group_17213-2" data-name="Group 17213" transform="translate(0.76 0.886)">
          <path id="Path_56110-2" data-name="Path 56110" d="M278.8,296.423l-1.487,2.88a.5.5,0,0,1-.4.267l-3.228.295,3.411.16a.5.5,0,0,0,.49-.325Z" transform="translate(-273.692 -296.423)" fill="#f7db5e"/>
        </g>
        <path id="Path_56111-2" data-name="Path 56111" d="M353.078,475.183l-.073.428a.188.188,0,0,0,.273.2l3.337-1.754a.188.188,0,0,1,.175,0l3.337,1.754a.188.188,0,0,0,.273-.2l-.637-3.716a.188.188,0,0,1,.054-.167l2.7-2.632a.188.188,0,0,0-.1-.321l-1.25-.182A14.41,14.41,0,0,1,353.078,475.183Z" transform="translate(-350.831 -464.643)" fill="#edbd31"/>
      </g>
      <g id="Group_17215" data-name="Group 17215" transform="translate(21.943 13.106)">
        <path id="Path_56109-3" data-name="Path 56109" d="M240.485,246.8l2.62,5.308a.3.3,0,0,0,.223.162l5.858.851a.3.3,0,0,1,.164.5l-4.239,4.132a.3.3,0,0,0-.085.262l1,5.834a.3.3,0,0,1-.429.312l-5.24-2.755a.3.3,0,0,0-.275,0l-5.24,2.755a.3.3,0,0,1-.429-.312l1-5.834a.3.3,0,0,0-.085-.262l-4.239-4.132a.3.3,0,0,1,.164-.5l5.858-.851a.3.3,0,0,0,.223-.162l2.62-5.308A.3.3,0,0,1,240.485,246.8Z" transform="translate(-231 -246.632)" fill="#f3cc30"/>
        <g id="Group_17213-3" data-name="Group 17213" transform="translate(1.193 1.391)">
          <path id="Path_56110-3" data-name="Path 56110" d="M281.719,296.423l-2.335,4.522a.782.782,0,0,1-.623.42l-5.069.463,5.355.25a.781.781,0,0,0,.77-.51Z" transform="translate(-273.692 -296.423)" fill="#f7db5e"/>
        </g>
        <path id="Path_56111-3" data-name="Path 56111" d="M353.122,478.94l-.115.671a.3.3,0,0,0,.429.312l5.24-2.755a.3.3,0,0,1,.275,0l5.24,2.755a.3.3,0,0,0,.429-.312l-1-5.834a.3.3,0,0,1,.085-.262l4.239-4.132a.3.3,0,0,0-.164-.5l-1.962-.285A22.624,22.624,0,0,1,353.122,478.94Z" transform="translate(-349.594 -462.392)" fill="#edbd31"/>
      </g>
    </g>
  </g>
</svg>
