<svg xmlns="http://www.w3.org/2000/svg" width="34.499" height="34.493" viewBox="0 0 34.499 34.493">
  <g id="video" transform="translate(-1291.926 -2130.436)">
    <path id="Path_56078" data-name="Path 56078" d="M1326.424,2147.721a17.249,17.249,0,1,1-17.24-17.286A17.2,17.2,0,0,1,1326.424,2147.721Zm-2.253-.057a14.994,14.994,0,1,0-14.941,15.014A15.033,15.033,0,0,0,1324.171,2147.664Z" fill="#c9bef1"/>
    <path id="Path_56079" data-name="Path 56079" d="M1345.136,2178.86c0-2.016-.014-4.032,0-6.048q.017-1.814,1.574-.854,4.827,2.991,9.634,6.013c1.032.649,1.023,1.169-.026,1.828q-4.809,3.019-9.637,6.01c-1.015.628-1.536.321-1.545-.9C1345.127,2182.892,1345.137,2180.876,1345.136,2178.86Z" transform="translate(-40.291 -31.192)" fill="#c9bef1"/>
  </g>
</svg>
